{"glyphs":{"0":{"ha":814,"x_min":51,"x_max":766,"o":"m 406 -14 q 143 118 235 -14 q 51 453 51 250 q 148 806 51 673 q 407 940 244 940 q 605 877 524 940 q 726 703 686 814 q 766 494 766 591 q 728 225 766 330 q 610 53 691 121 q 406 -14 528 -14 m 405 117 q 519 160 475 117 q 578 281 562 203 q 593 497 593 359 q 555 713 593 611 q 408 816 517 816 q 220 467 220 816 q 260 213 220 309 q 405 117 300 117 z "},"1":{"ha":814,"x_min":95,"x_max":804,"o":"m 804 0 l 95 0 l 95 136 l 374 136 l 374 721 q 121 554 235 600 l 121 721 q 266 784 237 765 q 351 853 295 802 q 431 945 408 903 l 542 945 l 542 136 l 804 136 l 804 0 z "},"2":{"ha":814,"x_min":58,"x_max":743,"o":"m 741 144 l 741 0 l 58 0 l 58 162 l 342 351 q 519 507 474 439 q 565 632 565 575 q 519 747 565 701 q 401 794 474 794 q 219 601 243 794 l 58 641 q 168 852 77 764 q 407 940 259 940 q 652 853 560 940 q 743 631 743 766 q 662 419 743 513 q 258 144 581 326 l 741 144 z "},"3":{"ha":814,"x_min":35,"x_max":750,"o":"m 292 409 l 292 541 l 377 541 q 504 574 453 541 q 555 675 555 608 q 512 774 555 741 q 401 808 469 808 q 214 673 264 808 l 62 700 q 181 873 87 806 q 406 940 274 940 q 629 872 536 940 q 722 692 722 805 q 672 548 722 608 q 549 483 622 488 q 695 408 640 469 q 750 259 750 346 q 654 63 750 140 q 399 -14 558 -14 q 156 61 252 -14 q 35 233 60 136 l 193 271 q 397 117 240 117 q 529 158 479 117 q 578 259 578 200 q 535 364 578 319 q 406 409 492 409 l 292 409 z "},"4":{"ha":814,"x_min":47,"x_max":768,"o":"m 629 0 l 458 0 l 458 210 l 47 210 l 47 332 l 458 945 l 629 945 l 629 353 l 768 353 l 768 210 l 629 210 l 629 0 m 470 770 l 208 353 l 458 353 l 458 608 q 462 682 458 649 l 470 770 z "},"5":{"ha":814,"x_min":54,"x_max":779,"o":"m 147 926 l 723 926 l 708 783 l 269 783 l 243 514 q 461 621 327 621 q 687 528 595 621 q 779 309 779 436 q 682 81 779 177 q 418 -14 586 -14 q 184 47 284 -14 q 54 239 84 109 l 214 263 q 409 121 261 121 q 549 176 500 121 q 598 309 598 231 q 549 440 598 387 q 422 493 500 493 q 243 385 304 493 l 94 414 l 147 926 z "},"6":{"ha":814,"x_min":54,"x_max":768,"o":"m 737 715 l 596 688 q 433 818 557 818 q 268 716 315 818 q 221 500 221 614 q 222 456 221 478 q 460 595 291 595 q 680 511 592 595 q 768 301 768 428 q 674 76 768 167 q 437 -14 580 -14 q 156 112 258 -14 q 54 456 54 237 q 154 806 54 671 q 422 940 254 940 q 737 715 675 940 m 431 109 q 556 154 505 109 q 608 292 608 199 q 559 410 608 355 q 425 465 511 465 q 298 412 346 465 q 250 284 250 360 q 299 158 250 208 q 431 109 349 109 z "},"7":{"ha":814,"x_min":71,"x_max":742,"o":"m 85 926 l 742 926 l 742 808 q 515 423 571 586 q 448 0 459 260 l 257 0 q 600 783 281 450 l 71 783 l 85 926 z "},"8":{"ha":814,"x_min":39,"x_max":776,"o":"m 235 457 q 73 679 73 532 q 162 866 73 793 q 414 940 252 940 q 650 874 561 940 q 739 700 739 808 q 574 499 739 568 q 776 256 776 413 q 675 62 776 139 q 404 -14 574 -14 q 131 57 223 -14 q 39 235 39 127 q 235 457 39 387 m 459 547 q 587 694 587 600 q 535 790 587 756 q 414 824 483 824 q 292 793 343 824 q 241 705 241 763 q 296 612 241 644 q 459 547 352 581 m 350 402 q 241 335 282 378 q 199 243 199 292 q 251 150 199 193 q 411 107 303 107 q 552 142 500 107 q 604 231 604 177 q 561 313 604 278 q 350 402 518 349 z "},"9":{"ha":814,"x_min":50,"x_max":758,"o":"m 82 168 l 222 208 q 378 111 275 111 q 539 208 483 111 q 597 479 595 305 q 484 358 547 385 q 355 332 422 332 q 137 413 225 332 q 50 629 50 495 q 140 851 50 763 q 380 940 231 940 q 654 823 550 940 q 758 488 758 706 q 658 126 758 267 q 374 -14 557 -14 q 182 40 258 -14 q 82 168 106 94 m 385 467 q 513 514 458 467 q 568 651 568 562 q 520 763 568 713 q 387 814 472 814 q 258 763 308 814 q 208 639 208 713 q 255 520 208 574 q 385 467 301 467 z "}," ":{"ha":347,"x_min":0,"x_max":0,"o":""},"!":{"ha":382,"x_min":92,"x_max":296,"o":"m 296 926 l 228 281 l 157 281 l 92 926 l 296 926 m 275 170 l 275 0 l 106 0 l 106 170 l 275 170 z "},"\"":{"ha":526,"x_min":73,"x_max":453,"o":"m 201 554 l 95 554 l 73 926 l 224 926 l 201 554 m 430 554 l 323 554 l 301 926 l 453 926 l 430 554 z "},"#":{"ha":814,"x_min":34,"x_max":781,"o":"m 781 674 l 758 543 l 623 543 l 597 401 l 732 401 l 709 271 l 574 271 l 526 0 l 399 0 l 448 271 l 300 271 l 252 0 l 125 0 l 173 272 l 34 272 l 57 401 l 198 401 l 223 543 l 82 543 l 106 674 l 246 674 l 291 926 l 417 926 l 372 674 l 518 674 l 563 926 l 689 926 l 644 674 l 781 674 m 495 543 l 349 543 l 324 401 l 470 401 l 495 543 z "},"$":{"ha":814,"x_min":33,"x_max":746,"o":"m 447 -119 l 355 -119 l 355 7 q 33 251 103 28 l 178 285 q 355 131 218 142 l 355 399 q 121 504 176 440 q 67 655 67 567 q 355 919 67 884 l 355 1017 l 447 1017 l 447 919 q 713 711 658 892 l 576 682 q 447 794 541 786 l 447 557 q 626 499 580 519 q 709 420 672 479 q 746 281 746 361 q 669 94 746 169 q 447 7 593 20 l 447 -119 m 355 794 q 257 765 296 793 q 217 680 217 736 q 355 566 217 585 l 355 794 m 447 131 q 554 168 511 132 q 597 264 597 205 q 447 391 597 363 l 447 131 z "},"%":{"ha":1072,"x_min":44,"x_max":1027,"o":"m 259 418 q 103 495 161 418 q 44 681 44 571 q 103 862 44 789 q 261 935 162 935 q 425 858 372 935 q 478 683 478 781 q 414 490 478 561 q 259 418 351 418 m 260 519 q 353 682 353 519 q 263 836 353 836 q 172 682 172 836 q 260 519 172 519 m 874 926 l 301 0 l 199 0 l 774 926 l 874 926 m 806 -8 q 655 63 715 -8 q 595 241 595 134 q 662 437 595 366 q 815 509 728 509 q 962 442 897 509 q 1027 241 1027 376 q 965 60 1027 129 q 806 -8 902 -8 m 812 90 q 882 137 860 90 q 904 243 904 183 q 883 369 904 331 q 817 406 861 406 q 721 248 721 406 q 812 90 721 90 z "},"&":{"ha":996,"x_min":44,"x_max":968,"o":"m 829 562 l 968 537 q 804 187 939 339 q 874 124 851 136 q 928 113 897 113 q 968 117 942 113 l 968 -13 l 904 -14 q 801 4 841 -14 q 696 85 760 22 q 394 -14 557 -14 q 141 70 239 -14 q 44 276 44 153 q 90 425 44 354 q 285 562 135 495 q 204 737 204 656 q 272 884 204 827 q 446 940 340 940 q 623 886 554 940 q 692 738 692 831 q 646 611 692 672 q 512 515 599 550 l 713 286 q 829 562 808 408 m 436 616 q 554 738 554 665 q 526 800 554 777 q 458 822 497 822 q 390 799 419 822 q 360 740 360 777 q 436 616 360 680 m 366 460 q 227 286 227 397 q 281 166 227 212 q 417 121 335 121 q 608 187 518 121 l 366 460 z "},"'":{"ha":297,"x_min":73,"x_max":224,"o":"m 201 554 l 95 554 l 73 926 l 224 926 l 201 554 z "},"(":{"ha":408,"x_min":45,"x_max":370,"o":"m 370 -231 l 278 -231 q 45 359 45 24 q 123 701 45 543 q 278 926 201 859 l 370 926 q 216 635 258 770 q 174 345 174 500 q 228 38 174 189 q 370 -231 281 -113 z "},")":{"ha":408,"x_min":37,"x_max":363,"o":"m 37 926 l 129 926 q 363 335 363 669 q 284 -7 363 151 q 129 -231 205 -165 l 37 -231 q 191 59 149 -77 q 233 349 233 194 q 37 926 233 661 z "},"*":{"ha":814,"x_min":116,"x_max":699,"o":"m 471 935 l 455 703 l 665 783 l 699 661 l 484 614 l 622 444 l 515 372 l 408 558 l 300 372 l 193 444 l 330 614 l 116 661 l 149 783 l 359 703 l 344 935 l 471 935 z "},"+":{"ha":814,"x_min":64,"x_max":751,"o":"m 751 532 l 751 403 l 472 403 l 472 115 l 343 115 l 343 403 l 64 403 l 64 532 l 343 532 l 343 821 l 472 821 l 472 532 l 751 532 z "},",":{"ha":334,"x_min":83,"x_max":252,"o":"m 252 173 l 252 18 l 142 -198 l 83 -198 l 163 0 l 83 0 l 83 173 l 252 173 z "},"-":{"ha":334,"x_min":-3,"x_max":337,"o":"m 337 416 l 337 289 l -3 289 l -3 416 l 337 416 z "},".":{"ha":334,"x_min":83,"x_max":251,"o":"m 251 178 l 251 0 l 83 0 l 83 178 l 251 178 z "},"/":{"ha":665,"x_min":-79,"x_max":623,"o":"m 623 926 l 18 -231 l -79 -231 l 524 926 l 623 926 z "},":":{"ha":334,"x_min":83,"x_max":251,"o":"m 251 640 l 251 471 l 83 471 l 83 640 l 251 640 m 251 170 l 251 0 l 83 0 l 83 170 l 251 170 z "},";":{"ha":334,"x_min":83,"x_max":252,"o":"m 252 640 l 252 471 l 83 471 l 83 640 l 252 640 m 252 173 l 252 18 l 142 -198 l 83 -198 l 163 0 l 83 0 l 83 173 l 252 173 z "},"<":{"ha":814,"x_min":93,"x_max":694,"o":"m 694 828 l 694 672 l 260 462 l 694 252 l 694 96 l 93 396 l 93 529 l 694 828 z "},"=":{"ha":814,"x_min":64,"x_max":751,"o":"m 751 627 l 751 497 l 64 497 l 64 627 l 751 627 m 751 424 l 751 294 l 64 294 l 64 424 l 751 424 z "},">":{"ha":814,"x_min":120,"x_max":722,"o":"m 120 96 l 120 252 l 555 463 l 121 673 l 120 828 l 722 528 l 722 395 l 120 96 z "},"?":{"ha":696,"x_min":23,"x_max":652,"o":"m 407 266 l 275 266 l 275 357 q 293 430 275 404 q 375 505 312 456 q 471 662 471 579 q 434 761 471 724 q 336 798 396 798 q 171 604 196 798 l 23 631 q 130 858 37 775 q 353 940 223 940 q 568 863 483 940 q 652 671 652 786 q 629 563 652 614 q 576 484 606 512 q 450 385 546 456 q 415 347 422 366 q 407 266 408 328 m 434 170 l 434 0 l 275 0 l 275 170 l 434 170 z "},"@":{"ha":996,"x_min":17,"x_max":979,"o":"m 745 706 l 707 390 q 703 326 703 357 q 736 281 703 281 q 836 352 788 281 q 884 526 884 424 q 778 765 884 673 q 520 857 671 857 q 241 743 354 857 q 128 462 128 629 q 234 191 128 306 q 532 76 340 76 q 837 156 682 76 l 877 64 q 532 -21 711 -21 q 156 122 296 -21 q 17 463 17 264 q 163 808 17 669 q 517 947 310 947 q 846 828 713 947 q 979 526 979 708 q 904 290 979 393 q 722 186 829 186 q 607 257 639 186 q 465 184 549 184 q 317 256 378 184 q 256 445 256 328 q 325 641 256 566 q 490 717 394 717 q 623 659 582 717 l 628 706 l 745 706 m 473 294 q 571 347 528 294 q 615 484 615 399 q 582 569 615 531 q 499 606 548 606 q 412 560 446 606 q 377 439 377 513 q 404 335 377 376 q 473 294 431 294 z "},"A":{"ha":838,"x_min":5,"x_max":828,"o":"m 828 0 l 650 0 l 576 220 l 220 220 l 147 0 l 5 0 l 312 926 l 517 926 l 828 0 m 531 354 l 396 767 l 261 354 l 531 354 z "},"B":{"ha":844,"x_min":102,"x_max":793,"o":"m 102 0 l 102 926 l 463 926 q 614 907 554 926 q 719 827 675 888 q 763 686 763 767 q 718 552 763 609 q 595 480 673 496 q 743 401 692 463 q 793 253 793 338 q 723 73 793 146 q 507 0 652 0 l 102 0 m 260 537 l 463 537 q 562 574 526 537 q 598 669 598 612 q 557 763 598 733 q 460 793 515 793 l 260 793 l 260 537 m 260 139 l 475 139 q 584 175 544 139 q 623 272 623 211 q 583 368 623 330 q 476 405 543 405 l 260 405 l 260 139 z "},"C":{"ha":804,"x_min":53,"x_max":774,"o":"m 619 321 l 774 304 q 666 76 759 165 q 423 -14 574 -14 q 217 50 296 -14 q 96 222 138 113 q 53 463 53 332 q 153 807 53 675 q 429 940 254 940 q 659 855 567 940 q 774 612 750 770 l 619 596 q 431 806 576 806 q 285 719 337 806 q 233 466 233 631 q 289 212 233 298 q 436 126 345 126 q 561 184 509 126 q 619 321 612 241 z "},"D":{"ha":909,"x_min":97,"x_max":857,"o":"m 97 0 l 97 926 l 438 926 q 742 792 627 926 q 857 461 857 658 q 739 132 857 264 q 401 0 621 0 l 97 0 m 269 136 l 408 136 q 597 220 519 136 q 675 471 675 304 q 607 700 675 606 q 427 794 539 794 l 269 794 l 269 136 z "},"E":{"ha":745,"x_min":102,"x_max":703,"o":"m 703 0 l 102 0 l 102 926 l 697 926 l 697 788 l 269 788 l 269 537 l 613 537 l 613 403 l 269 403 l 269 144 l 703 144 l 703 0 z "},"F":{"ha":705,"x_min":102,"x_max":687,"o":"m 273 0 l 102 0 l 102 926 l 687 926 l 687 783 l 273 783 l 273 530 l 599 530 l 599 391 l 273 391 l 273 0 z "},"G":{"ha":892,"x_min":54,"x_max":804,"o":"m 804 473 l 804 0 l 730 0 l 680 125 q 429 -14 599 -14 q 147 130 240 -14 q 54 463 54 273 q 158 801 54 663 q 449 940 262 940 q 679 859 589 940 q 793 657 769 778 l 648 631 q 453 801 607 801 q 293 721 355 801 q 231 475 231 641 q 450 124 231 124 q 592 183 536 124 q 648 339 648 242 l 456 339 l 456 473 l 804 473 z "},"H":{"ha":890,"x_min":102,"x_max":789,"o":"m 789 0 l 622 0 l 622 402 l 269 402 l 269 0 l 102 0 l 102 926 l 269 926 l 269 545 l 622 545 l 622 926 l 789 926 l 789 0 z "},"I":{"ha":370,"x_min":102,"x_max":269,"o":"m 269 0 l 102 0 l 102 926 l 269 926 l 269 0 z "},"J":{"ha":516,"x_min":0,"x_max":423,"o":"m 423 926 l 423 287 q 354 57 423 127 q 135 -14 286 -14 q 0 0 48 -14 l 0 134 q 107 129 76 129 q 221 160 191 129 q 252 287 252 191 l 252 926 l 423 926 z "},"K":{"ha":852,"x_min":102,"x_max":829,"o":"m 829 0 l 643 0 l 448 471 l 269 234 l 269 0 l 102 0 l 102 926 l 269 926 l 269 439 q 315 508 300 489 l 622 926 l 791 926 l 571 621 l 829 0 z "},"L":{"ha":692,"x_min":102,"x_max":671,"o":"m 671 0 l 102 0 l 102 926 l 277 926 l 277 151 l 671 151 l 671 0 z "},"M":{"ha":1112,"x_min":102,"x_max":1010,"o":"m 1010 0 l 840 0 l 840 810 l 583 0 l 496 0 l 238 810 l 238 0 l 102 0 l 102 926 l 363 926 l 557 330 l 747 926 l 1010 926 l 1010 0 z "},"N":{"ha":903,"x_min":102,"x_max":801,"o":"m 801 0 l 639 0 l 288 591 q 261 635 279 605 q 236 678 253 649 l 236 0 l 102 0 l 102 926 l 286 926 l 610 380 q 669 281 614 374 l 669 926 l 801 926 l 801 0 z "},"O":{"ha":894,"x_min":53,"x_max":840,"o":"m 443 -14 q 156 124 258 -14 q 53 466 53 262 q 162 804 53 668 q 450 940 271 940 q 735 804 631 940 q 840 464 840 668 q 731 118 840 250 q 443 -14 623 -14 m 444 120 q 597 195 534 120 q 659 465 659 269 q 608 715 659 625 q 448 806 556 806 q 233 460 233 806 q 288 207 233 293 q 444 120 342 120 z "},"P":{"ha":832,"x_min":102,"x_max":800,"o":"m 269 0 l 102 0 l 102 926 l 481 926 q 721 844 643 926 q 800 651 800 762 q 715 446 800 524 q 500 367 630 367 l 269 367 l 269 0 m 269 510 l 466 510 q 584 548 543 510 q 625 649 625 586 q 587 747 625 706 q 451 787 549 787 l 269 787 l 269 510 z "},"Q":{"ha":894,"x_min":53,"x_max":840,"o":"m 802 -50 l 802 -189 q 707 -195 722 -195 q 501 -16 502 -195 q 439 -18 450 -18 q 153 118 254 -18 q 53 463 53 255 q 156 804 53 667 q 447 940 260 940 q 664 876 583 940 q 792 709 745 812 q 840 465 840 605 q 643 39 840 168 q 612 4 612 19 q 632 -37 612 -20 q 689 -54 653 -54 q 762 -51 713 -54 q 802 -50 775 -50 m 442 121 q 659 463 659 121 q 601 725 659 645 q 448 806 543 806 q 233 454 233 806 q 442 121 233 121 z "},"R":{"ha":892,"x_min":102,"x_max":828,"o":"m 823 0 l 647 0 l 503 380 l 269 380 l 269 0 l 102 0 l 102 926 l 503 926 q 749 850 671 926 q 828 654 828 774 q 661 409 828 476 l 823 0 m 269 514 l 476 514 q 610 552 566 514 q 654 656 654 590 q 611 755 654 718 q 490 793 568 793 l 269 793 l 269 514 z "},"S":{"ha":793,"x_min":5,"x_max":752,"o":"m 5 223 l 167 258 q 391 120 196 120 q 527 155 479 120 q 575 243 575 191 q 553 313 575 281 q 460 363 532 345 l 283 410 q 149 464 193 433 q 80 549 106 494 q 54 666 54 604 q 146 865 54 790 q 382 940 238 940 q 595 888 501 940 q 715 740 689 836 l 556 701 q 385 806 519 806 q 266 773 307 806 q 225 690 225 741 q 354 579 225 611 l 511 540 q 703 434 654 504 q 752 279 752 363 q 649 64 752 142 q 383 -14 547 -14 q 142 43 245 -14 q 5 223 39 101 z "},"T":{"ha":671,"x_min":0,"x_max":671,"o":"m 425 0 l 246 0 l 246 783 l 0 783 l 0 926 l 671 926 l 671 783 l 425 783 l 425 0 z "},"U":{"ha":826,"x_min":93,"x_max":737,"o":"m 737 926 l 737 331 q 710 145 737 210 q 605 33 683 80 q 416 -14 528 -14 q 230 26 302 -14 q 125 138 157 67 q 93 319 93 209 l 93 926 l 263 926 l 263 331 q 314 171 263 209 q 433 132 366 132 q 558 173 511 132 q 605 331 605 214 l 605 926 l 737 926 z "},"V":{"ha":751,"x_min":3,"x_max":747,"o":"m 458 0 l 288 0 l 3 926 l 179 926 l 391 216 l 608 926 l 747 926 l 458 0 z "},"W":{"ha":1227,"x_min":14,"x_max":1213,"o":"m 1213 926 l 966 0 l 791 0 l 606 681 l 439 0 l 267 0 l 14 926 l 191 926 l 370 251 l 537 926 l 706 926 l 890 251 l 1066 926 l 1213 926 z "},"X":{"ha":787,"x_min":7,"x_max":779,"o":"m 779 0 l 585 0 l 380 365 l 163 0 l 7 0 l 300 482 l 49 926 l 243 926 l 414 618 l 595 926 l 751 926 l 493 503 l 779 0 z "},"Y":{"ha":755,"x_min":-18,"x_max":774,"o":"m 474 0 l 297 0 l 297 391 l -18 926 l 184 926 l 404 544 l 614 926 l 774 926 l 474 391 l 474 0 z "},"Z":{"ha":740,"x_min":28,"x_max":712,"o":"m 712 144 l 712 0 l 28 0 l 28 132 l 502 793 l 61 793 l 61 926 l 699 926 l 699 793 l 230 144 l 712 144 z "},"[":{"ha":408,"x_min":94,"x_max":327,"o":"m 327 814 l 214 814 l 214 -120 l 327 -120 l 327 -231 l 94 -231 l 94 926 l 327 926 l 327 814 z "},"\\":{"ha":665,"x_min":42,"x_max":744,"o":"m 42 926 l 141 926 l 744 -231 l 648 -231 l 42 926 z "},"]":{"ha":408,"x_min":81,"x_max":314,"o":"m 81 -120 l 194 -120 l 194 814 l 81 814 l 81 926 l 314 926 l 314 -231 l 81 -231 l 81 -120 z "},"^":{"ha":694,"x_min":15,"x_max":680,"o":"m 180 477 l 15 477 l 244 930 l 451 930 l 680 477 l 515 477 l 347 805 l 180 477 z "},"_":{"ha":694,"x_min":0,"x_max":694,"o":"m 0 -73 l 694 -73 l 694 -214 l 0 -214 l 0 -73 z "},"`":{"ha":694,"x_min":145,"x_max":456,"o":"m 190 1008 l 456 860 l 428 787 l 145 907 l 190 1008 z "},"a":{"ha":751,"x_min":50,"x_max":679,"o":"m 679 0 l 532 0 q 508 138 512 62 q 276 -14 446 -14 q 112 46 174 -14 q 50 197 50 106 q 464 433 50 433 q 508 432 480 433 l 508 484 q 363 590 508 590 q 203 484 222 590 l 71 503 q 159 644 82 589 q 383 699 237 699 q 513 686 463 699 q 597 641 563 673 q 645 573 632 610 q 659 448 659 536 l 659 138 q 679 0 659 71 m 508 349 q 208 205 208 349 q 238 133 208 163 q 330 102 269 102 q 463 158 418 102 q 508 286 508 214 l 508 349 z "},"b":{"ha":748,"x_min":93,"x_max":699,"o":"m 163 0 l 93 0 l 93 926 l 248 926 l 248 591 q 336 692 292 668 q 439 717 380 717 q 625 621 551 717 q 699 356 699 526 q 626 94 699 203 q 417 -14 553 -14 q 204 113 280 -14 l 163 0 m 248 292 q 287 157 248 201 q 390 113 327 113 q 492 163 451 113 q 536 360 534 214 q 499 525 536 467 q 394 583 462 583 q 289 534 330 583 q 248 394 248 484 l 248 292 z "},"c":{"ha":647,"x_min":49,"x_max":621,"o":"m 488 252 l 621 238 q 522 47 595 109 q 343 -14 448 -14 q 125 89 201 -14 q 49 342 49 193 q 132 598 49 497 q 355 699 216 699 q 621 463 578 699 l 488 445 q 363 572 471 572 q 249 504 284 572 q 213 337 213 435 q 250 177 213 233 q 353 121 287 121 q 488 252 455 121 z "},"d":{"ha":748,"x_min":49,"x_max":656,"o":"m 656 0 l 511 0 l 511 138 q 309 -14 452 -14 q 116 91 183 -14 q 49 352 49 196 q 119 605 49 497 q 317 713 189 713 q 501 592 450 713 l 501 926 l 656 926 l 656 0 m 501 404 q 461 534 501 488 q 359 581 422 581 q 252 521 290 581 q 213 342 213 461 q 357 113 213 113 q 457 162 414 113 q 501 288 501 212 l 501 404 z "},"e":{"ha":728,"x_min":49,"x_max":680,"o":"m 528 218 l 668 199 q 562 46 641 106 q 365 -14 484 -14 q 136 81 222 -14 q 49 340 49 177 q 136 597 49 496 q 374 699 224 699 q 600 599 520 699 q 680 341 680 498 l 680 323 l 210 323 q 223 212 210 254 q 275 138 236 170 q 374 107 315 107 q 528 218 488 107 m 519 423 q 474 544 518 497 q 366 591 431 591 q 260 547 302 591 q 210 423 217 503 l 519 423 z "},"f":{"ha":439,"x_min":15,"x_max":418,"o":"m 266 0 l 117 0 l 117 565 l 15 565 l 15 685 l 117 685 l 117 719 q 165 880 117 819 q 363 941 214 941 q 418 940 385 941 l 418 819 q 378 821 389 821 q 298 805 321 821 q 270 769 275 790 q 266 685 266 749 l 418 685 l 418 565 l 266 565 l 266 0 z "},"g":{"ha":720,"x_min":31,"x_max":718,"o":"m 718 816 l 718 697 l 670 697 q 615 690 639 697 q 570 642 592 682 q 651 494 651 575 q 575 343 651 403 q 373 283 498 283 q 246 301 319 283 q 199 234 199 279 q 222 188 199 209 q 292 167 245 167 l 495 167 q 659 113 600 167 q 718 -21 718 59 q 628 -182 718 -118 q 362 -245 538 -245 q 31 -60 31 -245 q 130 79 31 31 q 66 192 66 133 q 176 334 66 281 q 81 493 81 392 q 151 639 81 578 q 363 699 220 699 q 495 685 428 699 q 660 816 526 816 l 718 816 m 366 375 q 492 494 492 375 q 461 570 492 539 q 369 602 429 602 q 274 569 308 602 q 241 488 241 536 q 274 406 241 437 q 366 375 307 375 m 197 37 q 163 -22 163 7 q 219 -104 163 -68 q 396 -140 275 -140 q 574 -48 574 -140 q 543 3 574 -14 q 472 20 512 20 l 308 20 q 197 37 261 20 z "},"h":{"ha":753,"x_min":92,"x_max":660,"o":"m 660 0 l 505 0 l 505 448 q 474 550 505 521 q 402 580 444 580 q 292 528 336 580 q 247 355 247 475 l 247 0 l 92 0 l 92 926 l 247 926 l 247 565 q 449 713 304 713 q 660 471 660 713 l 660 0 z "},"i":{"ha":340,"x_min":92,"x_max":247,"o":"m 247 765 l 92 765 l 92 926 l 247 926 l 247 765 m 247 0 l 92 0 l 92 685 l 247 685 l 247 0 z "},"j":{"ha":340,"x_min":-68,"x_max":247,"o":"m 247 765 l 92 765 l 92 926 l 247 926 l 247 765 m 247 685 l 247 11 q 12 -245 247 -245 q -68 -237 -24 -245 l -68 -106 q -18 -110 -39 -110 q 69 -85 46 -110 q 92 11 92 -61 l 92 685 l 247 685 z "},"k":{"ha":739,"x_min":93,"x_max":730,"o":"m 730 0 l 568 0 l 393 351 l 241 181 l 241 0 l 93 0 l 93 926 l 241 926 l 241 351 q 272 390 260 377 l 543 685 l 709 685 l 503 458 l 730 0 z "},"l":{"ha":340,"x_min":92,"x_max":247,"o":"m 247 0 l 92 0 l 92 926 l 247 926 l 247 0 z "},"m":{"ha":1208,"x_min":92,"x_max":1116,"o":"m 1116 0 l 954 0 l 954 427 q 836 559 954 559 q 726 509 767 559 q 685 359 685 459 l 685 0 l 521 0 l 521 427 q 410 562 521 562 q 297 507 343 562 q 252 359 252 453 l 252 0 l 92 0 l 92 685 l 242 685 l 242 539 q 471 699 315 699 q 667 539 622 699 q 896 699 750 699 q 1055 637 995 699 q 1116 484 1116 576 l 1116 0 z "},"n":{"ha":752,"x_min":93,"x_max":660,"o":"m 660 0 l 505 0 l 505 428 q 474 530 505 496 q 399 564 443 564 q 293 511 338 564 q 248 352 248 458 l 248 0 l 93 0 l 93 685 l 234 685 l 234 526 q 441 699 308 699 q 596 642 532 699 q 660 442 660 585 l 660 0 z "},"o":{"ha":734,"x_min":49,"x_max":686,"o":"m 361 -14 q 129 95 209 -14 q 49 345 49 204 q 137 598 49 497 q 371 699 226 699 q 597 601 509 699 q 686 345 686 503 q 594 84 686 183 q 361 -14 502 -14 m 366 113 q 522 346 522 113 q 485 512 522 451 q 370 572 448 572 q 252 510 290 572 q 213 343 213 447 q 254 172 213 231 q 366 113 295 113 z "},"p":{"ha":748,"x_min":93,"x_max":700,"o":"m 250 -231 l 93 -231 l 93 685 l 241 685 l 241 566 q 450 699 312 699 q 632 600 564 699 q 700 347 700 501 q 635 94 700 201 q 442 -14 570 -14 q 250 96 310 -14 l 250 -231 m 250 281 q 295 157 250 206 q 393 108 339 108 q 502 173 467 108 q 536 337 536 237 q 501 507 536 441 q 398 572 467 572 q 293 519 336 572 q 250 378 250 465 l 250 281 z "},"q":{"ha":752,"x_min":49,"x_max":660,"o":"m 660 -231 l 499 -231 l 499 121 q 309 -14 444 -14 q 114 92 178 -14 q 49 340 49 199 q 125 599 49 498 q 335 699 201 699 q 536 589 460 699 l 577 685 l 660 685 l 660 -231 m 499 402 q 468 521 499 469 q 368 572 437 572 q 252 510 292 572 q 212 341 212 448 q 253 170 212 231 q 357 109 294 109 q 457 161 415 109 q 499 303 499 213 l 499 402 z "},"r":{"ha":460,"x_min":93,"x_max":442,"o":"m 248 0 l 93 0 l 93 685 l 233 685 l 233 522 q 315 661 262 617 q 422 705 367 705 q 442 705 429 705 l 442 538 q 286 463 324 538 q 248 317 248 388 l 248 0 z "},"s":{"ha":631,"x_min":9,"x_max":598,"o":"m 9 157 l 155 185 q 301 102 188 102 q 445 186 445 102 q 422 231 445 214 q 370 255 400 249 l 245 279 q 37 481 37 319 q 103 636 37 572 q 299 699 169 699 q 564 540 516 699 l 427 512 q 303 589 405 589 q 180 512 180 589 q 279 438 180 458 l 427 408 q 598 211 598 372 q 510 42 598 98 q 300 -14 422 -14 q 115 28 195 -14 q 9 157 34 71 z "},"t":{"ha":448,"x_min":24,"x_max":410,"o":"m 410 121 l 410 0 q 303 -15 341 -15 q 196 10 241 -15 q 131 78 151 35 q 110 210 110 121 l 110 565 l 24 565 l 24 685 l 119 685 l 133 863 l 260 875 l 260 685 l 397 685 l 397 565 l 260 565 l 260 231 q 283 143 260 166 q 372 119 307 119 q 410 121 390 119 z "},"u":{"ha":749,"x_min":93,"x_max":656,"o":"m 656 0 l 513 0 l 513 148 q 296 -14 454 -14 q 148 44 203 -14 q 93 205 93 102 l 93 685 l 251 685 l 251 239 q 283 142 251 165 q 347 119 316 119 q 450 164 397 119 q 502 356 502 209 l 502 685 l 656 685 l 656 0 z "},"v":{"ha":617,"x_min":9,"x_max":608,"o":"m 608 685 l 376 0 l 248 0 l 9 685 l 171 685 l 331 220 l 487 685 l 608 685 z "},"w":{"ha":968,"x_min":14,"x_max":954,"o":"m 954 685 l 753 0 l 614 0 l 490 480 l 368 0 l 224 0 l 14 685 l 178 685 l 313 224 l 431 685 l 571 685 l 691 224 l 823 685 l 954 685 z "},"x":{"ha":613,"x_min":0,"x_max":613,"o":"m 613 0 l 437 0 l 292 250 l 133 0 l 0 0 l 228 353 l 31 685 l 208 685 l 320 484 l 448 685 l 578 685 l 385 388 l 613 0 z "},"y":{"ha":614,"x_min":9,"x_max":604,"o":"m 604 685 l 338 -95 q 271 -207 313 -167 q 151 -246 229 -246 q 62 -241 121 -246 l 62 -119 l 136 -120 q 209 -104 185 -120 q 245 -47 232 -88 q 259 0 259 -7 q 245 42 259 4 l 9 685 l 172 685 l 338 233 l 481 685 l 604 685 z "},"z":{"ha":581,"x_min":33,"x_max":549,"o":"m 549 120 l 549 0 l 33 0 l 33 120 l 363 565 l 64 565 l 64 685 l 549 685 l 549 576 l 211 120 l 549 120 z "},"{":{"ha":408,"x_min":27,"x_max":365,"o":"m 146 347 q 230 186 230 305 l 230 -15 q 260 -110 230 -94 q 365 -127 290 -127 l 365 -231 l 304 -232 q 153 -187 200 -232 q 105 -37 105 -142 l 105 180 q 83 270 105 246 q 27 302 60 294 l 27 400 q 105 513 105 416 l 105 741 q 153 883 105 840 q 308 926 201 926 q 365 925 326 926 l 365 821 q 255 800 279 821 q 230 712 230 778 l 230 506 q 217 420 230 464 q 146 347 205 376 z "},"|":{"ha":694,"x_min":269,"x_max":426,"o":"m 269 926 l 426 926 l 426 -231 l 269 -231 l 269 926 z "},"}":{"ha":408,"x_min":43,"x_max":380,"o":"m 262 348 q 178 509 178 389 l 178 709 q 148 805 178 788 q 43 821 119 821 l 43 925 l 103 926 q 256 880 210 926 q 302 731 302 833 l 302 515 q 324 425 302 449 q 380 393 346 400 l 380 294 q 302 181 302 278 l 302 -46 q 254 -189 302 -145 q 100 -232 206 -232 q 43 -231 81 -232 l 43 -127 q 153 -105 128 -127 q 178 -18 178 -83 l 178 189 q 191 277 178 235 q 262 348 205 319 z "},"~":{"ha":814,"x_min":71,"x_max":744,"o":"m 158 334 l 71 391 q 162 536 114 497 q 275 575 210 575 q 422 536 323 575 q 547 500 513 500 q 654 578 612 500 l 744 525 q 528 348 667 348 q 361 397 489 348 q 264 423 292 423 q 158 334 200 423 z "},"Ä":{"ha":838,"x_min":5,"x_max":828,"o":"m 828 0 l 650 0 l 576 220 l 220 220 l 147 0 l 5 0 l 312 926 l 517 926 l 828 0 m 531 354 l 396 767 l 261 354 l 531 354 m 297 1025 q 243 1047 264 1025 q 222 1098 222 1068 q 243 1151 222 1128 q 297 1173 264 1173 q 351 1153 328 1173 q 374 1099 374 1133 q 352 1045 374 1065 q 297 1025 329 1025 m 524 1025 q 470 1047 491 1025 q 448 1098 448 1069 q 470 1151 448 1128 q 524 1173 491 1173 q 578 1153 555 1173 q 602 1099 602 1133 q 579 1045 602 1065 q 524 1025 556 1025 z "},"Å":{"ha":838,"x_min":5,"x_max":828,"o":"m 828 0 l 650 0 l 576 220 l 220 220 l 147 0 l 5 0 l 312 926 l 517 926 l 828 0 m 531 354 l 396 767 l 261 354 l 531 354 m 416 986 q 327 1023 363 986 q 290 1112 290 1059 q 327 1201 290 1164 q 416 1238 364 1238 q 502 1205 463 1238 q 542 1109 542 1172 q 506 1023 542 1061 q 416 986 469 986 m 416 1057 q 458 1074 445 1057 q 472 1109 472 1091 q 457 1152 472 1135 q 419 1168 443 1168 q 378 1154 396 1168 q 361 1112 361 1139 q 375 1073 361 1090 q 416 1057 389 1057 z "},"Ç":{"ha":804,"x_min":53,"x_max":774,"o":"m 430 -14 l 413 -68 q 531 -98 493 -68 q 569 -177 569 -128 q 531 -259 569 -225 q 429 -293 494 -293 q 277 -252 366 -293 l 299 -196 q 412 -231 378 -231 q 474 -181 474 -231 q 372 -121 474 -121 q 334 -123 361 -121 l 369 -11 q 138 139 223 5 q 53 463 53 273 q 153 807 53 675 q 429 940 254 940 q 659 855 567 940 q 774 612 750 770 l 619 596 q 431 806 576 806 q 285 719 337 806 q 233 466 233 631 q 289 212 233 298 q 436 126 345 126 q 561 184 509 126 q 619 321 612 241 l 774 304 q 673 82 760 172 q 430 -14 586 -9 z "},"É":{"ha":745,"x_min":102,"x_max":703,"o":"m 703 0 l 102 0 l 102 926 l 697 926 l 697 788 l 269 788 l 269 537 l 613 537 l 613 403 l 269 403 l 269 144 l 703 144 l 703 0 m 571 1221 l 616 1119 l 333 1000 l 304 1072 l 571 1221 z "},"Ñ":{"ha":903,"x_min":102,"x_max":801,"o":"m 801 0 l 639 0 l 288 591 q 261 635 279 605 q 236 678 253 649 l 236 0 l 102 0 l 102 926 l 286 926 l 610 380 q 669 281 614 374 l 669 926 l 801 926 l 801 0 m 638 1177 l 686 1107 q 626 1050 669 1073 q 549 1027 583 1027 q 446 1059 507 1027 q 376 1084 399 1084 q 291 1031 345 1084 l 244 1101 q 380 1179 307 1179 q 472 1152 416 1179 q 563 1124 533 1124 q 638 1177 604 1124 z "},"Ö":{"ha":894,"x_min":53,"x_max":840,"o":"m 443 -14 q 156 124 258 -14 q 53 466 53 262 q 162 804 53 668 q 450 940 271 940 q 735 804 631 940 q 840 464 840 668 q 731 118 840 250 q 443 -14 623 -14 m 444 120 q 597 195 534 120 q 659 465 659 269 q 608 715 659 625 q 448 806 556 806 q 233 460 233 806 q 288 207 233 293 q 444 120 342 120 m 332 1025 q 278 1047 299 1025 q 256 1098 256 1068 q 277 1151 256 1128 q 332 1173 298 1173 q 386 1153 363 1173 q 409 1099 409 1133 q 386 1045 409 1065 q 332 1025 363 1025 m 559 1025 q 504 1047 526 1025 q 483 1098 483 1069 q 504 1151 483 1128 q 559 1173 526 1173 q 613 1153 589 1173 q 636 1099 636 1133 q 613 1045 636 1065 q 559 1025 591 1025 z "},"Ü":{"ha":826,"x_min":93,"x_max":737,"o":"m 737 926 l 737 331 q 710 145 737 210 q 605 33 683 80 q 416 -14 528 -14 q 230 26 302 -14 q 125 138 157 67 q 93 319 93 209 l 93 926 l 263 926 l 263 331 q 314 171 263 209 q 433 132 366 132 q 558 173 511 132 q 605 331 605 214 l 605 926 l 737 926 m 300 1025 q 247 1047 268 1025 q 225 1098 225 1068 q 246 1151 225 1128 q 300 1173 267 1173 q 355 1153 332 1173 q 378 1099 378 1133 q 355 1045 378 1065 q 300 1025 332 1025 m 528 1025 q 473 1047 494 1025 q 452 1098 452 1069 q 473 1151 452 1128 q 528 1173 494 1173 q 582 1153 558 1173 q 605 1099 605 1133 q 582 1045 605 1065 q 528 1025 559 1025 z "},"á":{"ha":751,"x_min":50,"x_max":679,"o":"m 679 0 l 532 0 q 508 138 512 62 q 276 -14 446 -14 q 112 46 174 -14 q 50 197 50 106 q 464 433 50 433 q 508 432 480 433 l 508 484 q 363 590 508 590 q 203 484 222 590 l 71 503 q 159 644 82 589 q 383 699 237 699 q 513 686 463 699 q 597 641 563 673 q 645 573 632 610 q 659 448 659 536 l 659 138 q 679 0 659 71 m 508 349 q 208 205 208 349 q 238 133 208 163 q 330 102 269 102 q 463 158 418 102 q 508 286 508 214 l 508 349 m 542 1008 l 587 907 l 304 787 l 275 860 l 542 1008 z "},"à":{"ha":751,"x_min":50,"x_max":679,"o":"m 679 0 l 532 0 q 508 138 512 62 q 276 -14 446 -14 q 112 46 174 -14 q 50 197 50 106 q 464 433 50 433 q 508 432 480 433 l 508 484 q 363 590 508 590 q 203 484 222 590 l 71 503 q 159 644 82 589 q 383 699 237 699 q 513 686 463 699 q 597 641 563 673 q 645 573 632 610 q 659 448 659 536 l 659 138 q 679 0 659 71 m 508 349 q 208 205 208 349 q 238 133 208 163 q 330 102 269 102 q 463 158 418 102 q 508 286 508 214 l 508 349 m 226 1008 l 492 860 l 464 787 l 181 907 l 226 1008 z "},"â":{"ha":751,"x_min":50,"x_max":679,"o":"m 679 0 l 532 0 q 508 138 512 62 q 276 -14 446 -14 q 112 46 174 -14 q 50 197 50 106 q 464 433 50 433 q 508 432 480 433 l 508 484 q 363 590 508 590 q 203 484 222 590 l 71 503 q 159 644 82 589 q 383 699 237 699 q 513 686 463 699 q 597 641 563 673 q 645 573 632 610 q 659 448 659 536 l 659 138 q 679 0 659 71 m 508 349 q 208 205 208 349 q 238 133 208 163 q 330 102 269 102 q 463 158 418 102 q 508 286 508 214 l 508 349 m 383 1001 l 618 806 l 496 791 l 383 881 l 270 791 l 147 806 l 383 1001 z "},"ä":{"ha":751,"x_min":50,"x_max":679,"o":"m 679 0 l 532 0 q 508 138 512 62 q 276 -14 446 -14 q 112 46 174 -14 q 50 197 50 106 q 464 433 50 433 q 508 432 480 433 l 508 484 q 363 590 508 590 q 203 484 222 590 l 71 503 q 159 644 82 589 q 383 699 237 699 q 513 686 463 699 q 597 641 563 673 q 645 573 632 610 q 659 448 659 536 l 659 138 q 679 0 659 71 m 508 349 q 208 205 208 349 q 238 133 208 163 q 330 102 269 102 q 463 158 418 102 q 508 286 508 214 l 508 349 m 269 806 q 215 827 236 806 q 193 878 193 848 q 214 931 193 908 q 269 954 235 954 q 323 933 300 954 q 346 879 346 913 q 323 825 346 845 q 269 806 300 806 m 496 806 q 441 827 463 806 q 420 878 420 849 q 441 931 420 908 q 496 954 463 954 q 550 933 526 954 q 573 879 573 913 q 550 825 573 845 q 496 806 528 806 z "},"ã":{"ha":751,"x_min":50,"x_max":679,"o":"m 679 0 l 532 0 q 508 138 512 62 q 276 -14 446 -14 q 112 46 174 -14 q 50 197 50 106 q 464 433 50 433 q 508 432 480 433 l 508 484 q 363 590 508 590 q 203 484 222 590 l 71 503 q 159 644 82 589 q 383 699 237 699 q 513 686 463 699 q 597 641 563 673 q 645 573 632 610 q 659 448 659 536 l 659 138 q 679 0 659 71 m 508 349 q 208 205 208 349 q 238 133 208 163 q 330 102 269 102 q 463 158 418 102 q 508 286 508 214 l 508 349 m 557 964 l 604 894 q 545 837 588 860 q 467 814 501 814 q 364 846 426 814 q 295 871 317 871 q 210 818 263 871 l 163 888 q 299 966 226 966 q 391 939 334 966 q 481 911 452 911 q 557 964 523 911 z "},"å":{"ha":751,"x_min":50,"x_max":679,"o":"m 679 0 l 532 0 q 508 138 512 62 q 276 -14 446 -14 q 112 46 174 -14 q 50 197 50 106 q 464 433 50 433 q 508 432 480 433 l 508 484 q 363 590 508 590 q 203 484 222 590 l 71 503 q 159 644 82 589 q 383 699 237 699 q 513 686 463 699 q 597 641 563 673 q 645 573 632 610 q 659 448 659 536 l 659 138 q 679 0 659 71 m 508 349 q 208 205 208 349 q 238 133 208 163 q 330 102 269 102 q 463 158 418 102 q 508 286 508 214 l 508 349 m 382 768 q 294 805 330 768 q 257 894 257 842 q 294 983 257 946 q 382 1021 331 1021 q 469 987 429 1021 q 509 892 509 954 q 472 806 509 843 q 382 768 436 768 m 383 839 q 425 856 412 839 q 439 892 439 873 q 424 934 439 918 q 386 950 410 950 q 345 936 363 950 q 328 895 328 922 q 342 856 328 872 q 383 839 356 839 z "},"ç":{"ha":647,"x_min":49,"x_max":621,"o":"m 349 -14 l 334 -63 q 441 -94 404 -63 q 479 -171 479 -125 q 443 -249 479 -215 q 348 -282 406 -282 q 210 -242 298 -282 l 232 -189 q 337 -221 292 -221 q 376 -208 361 -221 q 392 -175 392 -194 q 289 -117 392 -117 q 258 -118 278 -117 l 293 -10 q 113 107 176 8 q 49 342 49 205 q 132 598 49 497 q 355 699 216 699 q 621 463 578 699 l 488 445 q 363 572 471 572 q 249 504 284 572 q 213 337 213 435 q 250 177 213 233 q 353 121 287 121 q 488 252 455 121 l 621 238 q 349 -14 571 -7 z "},"é":{"ha":728,"x_min":49,"x_max":680,"o":"m 528 218 l 668 199 q 562 46 641 106 q 365 -14 484 -14 q 136 81 222 -14 q 49 340 49 177 q 136 597 49 496 q 374 699 224 699 q 600 599 520 699 q 680 341 680 498 l 680 323 l 210 323 q 223 212 210 254 q 275 138 236 170 q 374 107 315 107 q 528 218 488 107 m 519 423 q 474 544 518 497 q 366 591 431 591 q 260 547 302 591 q 210 423 217 503 l 519 423 m 532 1008 l 577 907 l 294 787 l 266 860 l 532 1008 z "},"è":{"ha":728,"x_min":49,"x_max":680,"o":"m 528 218 l 668 199 q 562 46 641 106 q 365 -14 484 -14 q 136 81 222 -14 q 49 340 49 177 q 136 597 49 496 q 374 699 224 699 q 600 599 520 699 q 680 341 680 498 l 680 323 l 210 323 q 223 212 210 254 q 275 138 236 170 q 374 107 315 107 q 528 218 488 107 m 519 423 q 474 544 518 497 q 366 591 431 591 q 260 547 302 591 q 210 423 217 503 l 519 423 m 221 1008 l 488 860 l 459 787 l 176 907 l 221 1008 z "},"ê":{"ha":728,"x_min":49,"x_max":680,"o":"m 528 218 l 668 199 q 562 46 641 106 q 365 -14 484 -14 q 136 81 222 -14 q 49 340 49 177 q 136 597 49 496 q 374 699 224 699 q 600 599 520 699 q 680 341 680 498 l 680 323 l 210 323 q 223 212 210 254 q 275 138 236 170 q 374 107 315 107 q 528 218 488 107 m 519 423 q 474 544 518 497 q 366 591 431 591 q 260 547 302 591 q 210 423 217 503 l 519 423 m 383 1001 l 618 806 l 496 791 l 383 881 l 270 791 l 147 806 l 383 1001 z "},"ë":{"ha":728,"x_min":49,"x_max":680,"o":"m 528 218 l 668 199 q 562 46 641 106 q 365 -14 484 -14 q 136 81 222 -14 q 49 340 49 177 q 136 597 49 496 q 374 699 224 699 q 600 599 520 699 q 680 341 680 498 l 680 323 l 210 323 q 223 212 210 254 q 275 138 236 170 q 374 107 315 107 q 528 218 488 107 m 519 423 q 474 544 518 497 q 366 591 431 591 q 260 547 302 591 q 210 423 217 503 l 519 423 m 269 806 q 215 827 236 806 q 193 878 193 848 q 214 931 193 908 q 269 954 235 954 q 323 933 300 954 q 346 879 346 913 q 323 825 346 845 q 269 806 300 806 m 496 806 q 441 827 463 806 q 420 878 420 849 q 441 931 420 908 q 496 954 463 954 q 550 933 526 954 q 573 879 573 913 q 550 825 573 845 q 496 806 528 806 z "},"í":{"ha":340,"x_min":79,"x_max":391,"o":"m 247 0 l 92 0 l 92 685 l 247 685 l 247 0 m 346 1008 l 391 907 l 108 787 l 79 860 l 346 1008 z "},"ì":{"ha":340,"x_min":-23,"x_max":288,"o":"m 247 0 l 92 0 l 92 685 l 247 685 l 247 0 m 22 1008 l 288 860 l 260 787 l -23 907 l 22 1008 z "},"î":{"ha":340,"x_min":-65,"x_max":406,"o":"m 247 0 l 92 0 l 92 685 l 247 685 l 247 0 m 171 1001 l 406 806 l 284 791 l 171 881 l 58 791 l -65 806 l 171 1001 z "},"ï":{"ha":340,"x_min":-21,"x_max":359,"o":"m 247 0 l 92 0 l 92 685 l 247 685 l 247 0 m 54 806 q 0 827 22 806 q -21 878 -21 848 q 0 931 -21 908 q 54 954 21 954 q 109 933 85 954 q 132 879 132 913 q 109 825 132 845 q 54 806 86 806 m 281 806 q 227 827 248 806 q 205 878 205 849 q 227 931 205 908 q 281 954 248 954 q 335 933 312 954 q 359 879 359 913 q 336 825 359 845 q 281 806 313 806 z "},"ñ":{"ha":752,"x_min":93,"x_max":660,"o":"m 660 0 l 505 0 l 505 428 q 474 530 505 496 q 399 564 443 564 q 293 511 338 564 q 248 352 248 458 l 248 0 l 93 0 l 93 685 l 234 685 l 234 526 q 441 699 308 699 q 596 642 532 699 q 660 442 660 585 l 660 0 m 541 964 l 588 894 q 528 837 572 860 q 451 814 485 814 q 348 846 410 814 q 279 871 301 871 q 193 818 247 871 l 146 888 q 283 966 210 966 q 374 939 318 966 q 465 911 435 911 q 541 964 507 911 z "},"ó":{"ha":734,"x_min":49,"x_max":686,"o":"m 361 -14 q 129 95 209 -14 q 49 345 49 204 q 137 598 49 497 q 371 699 226 699 q 597 601 509 699 q 686 345 686 503 q 594 84 686 183 q 361 -14 502 -14 m 366 113 q 522 346 522 113 q 485 512 522 451 q 370 572 448 572 q 252 510 290 572 q 213 343 213 447 q 254 172 213 231 q 366 113 295 113 m 534 1008 l 578 907 l 296 787 l 267 860 l 534 1008 z "},"ò":{"ha":734,"x_min":49,"x_max":686,"o":"m 361 -14 q 129 95 209 -14 q 49 345 49 204 q 137 598 49 497 q 371 699 226 699 q 597 601 509 699 q 686 345 686 503 q 594 84 686 183 q 361 -14 502 -14 m 366 113 q 522 346 522 113 q 485 512 522 451 q 370 572 448 572 q 252 510 290 572 q 213 343 213 447 q 254 172 213 231 q 366 113 295 113 m 210 1008 l 477 860 l 448 787 l 165 907 l 210 1008 z "},"ô":{"ha":734,"x_min":49,"x_max":686,"o":"m 361 -14 q 129 95 209 -14 q 49 345 49 204 q 137 598 49 497 q 371 699 226 699 q 597 601 509 699 q 686 345 686 503 q 594 84 686 183 q 361 -14 502 -14 m 366 113 q 522 346 522 113 q 485 512 522 451 q 370 572 448 572 q 252 510 290 572 q 213 343 213 447 q 254 172 213 231 q 366 113 295 113 m 372 1001 l 608 806 l 486 791 l 372 881 l 259 791 l 136 806 l 372 1001 z "},"ö":{"ha":734,"x_min":49,"x_max":686,"o":"m 361 -14 q 129 95 209 -14 q 49 345 49 204 q 137 598 49 497 q 371 699 226 699 q 597 601 509 699 q 686 345 686 503 q 594 84 686 183 q 361 -14 502 -14 m 366 113 q 522 346 522 113 q 485 512 522 451 q 370 572 448 572 q 252 510 290 572 q 213 343 213 447 q 254 172 213 231 q 366 113 295 113 m 258 806 q 204 827 225 806 q 182 878 182 848 q 203 931 182 908 q 258 954 224 954 q 312 933 289 954 q 335 879 335 913 q 312 825 335 845 q 258 806 290 806 m 485 806 q 430 827 452 806 q 409 878 409 849 q 430 931 409 908 q 485 954 452 954 q 539 933 515 954 q 562 879 562 913 q 539 825 562 845 q 485 806 517 806 z "},"õ":{"ha":734,"x_min":49,"x_max":686,"o":"m 361 -14 q 129 95 209 -14 q 49 345 49 204 q 137 598 49 497 q 371 699 226 699 q 597 601 509 699 q 686 345 686 503 q 594 84 686 183 q 361 -14 502 -14 m 366 113 q 522 346 522 113 q 485 512 522 451 q 370 572 448 572 q 252 510 290 572 q 213 343 213 447 q 254 172 213 231 q 366 113 295 113 m 555 964 l 602 894 q 543 837 586 860 q 465 814 499 814 q 362 846 424 814 q 293 871 315 871 q 208 818 261 871 l 161 888 q 297 966 224 966 q 389 939 332 966 q 479 911 450 911 q 555 964 521 911 z "},"ú":{"ha":749,"x_min":93,"x_max":656,"o":"m 656 0 l 513 0 l 513 148 q 296 -14 454 -14 q 148 44 203 -14 q 93 205 93 102 l 93 685 l 251 685 l 251 239 q 283 142 251 165 q 347 119 316 119 q 450 164 397 119 q 502 356 502 209 l 502 685 l 656 685 l 656 0 m 541 1008 l 586 907 l 303 787 l 275 860 l 541 1008 z "},"ù":{"ha":749,"x_min":93,"x_max":656,"o":"m 656 0 l 513 0 l 513 148 q 296 -14 454 -14 q 148 44 203 -14 q 93 205 93 102 l 93 685 l 251 685 l 251 239 q 283 142 251 165 q 347 119 316 119 q 450 164 397 119 q 502 356 502 209 l 502 685 l 656 685 l 656 0 m 218 1008 l 484 860 l 456 787 l 173 907 l 218 1008 z "},"û":{"ha":749,"x_min":93,"x_max":656,"o":"m 656 0 l 513 0 l 513 148 q 296 -14 454 -14 q 148 44 203 -14 q 93 205 93 102 l 93 685 l 251 685 l 251 239 q 283 142 251 165 q 347 119 316 119 q 450 164 397 119 q 502 356 502 209 l 502 685 l 656 685 l 656 0 m 375 1001 l 610 806 l 488 791 l 375 881 l 262 791 l 139 806 l 375 1001 z "},"ü":{"ha":749,"x_min":93,"x_max":656,"o":"m 656 0 l 513 0 l 513 148 q 296 -14 454 -14 q 148 44 203 -14 q 93 205 93 102 l 93 685 l 251 685 l 251 239 q 283 142 251 165 q 347 119 316 119 q 450 164 397 119 q 502 356 502 209 l 502 685 l 656 685 l 656 0 m 260 806 q 207 827 228 806 q 185 878 185 848 q 206 931 185 908 q 260 954 227 954 q 315 933 292 954 q 338 879 338 913 q 315 825 338 845 q 260 806 292 806 m 488 806 q 433 827 454 806 q 412 878 412 849 q 433 931 412 908 q 488 954 454 954 q 542 933 518 954 q 565 879 565 913 q 542 825 565 845 q 488 806 519 806 z "},"†":{"ha":814,"x_min":85,"x_max":729,"o":"m 85 543 l 85 671 l 333 671 l 333 926 l 481 926 l 481 671 l 729 671 l 729 543 l 481 543 l 481 -231 l 333 -231 l 333 543 l 85 543 z "},"°":{"ha":814,"x_min":222,"x_max":593,"o":"m 408 945 q 539 890 486 945 q 593 760 593 835 q 539 629 593 684 q 408 574 485 574 q 276 630 329 574 q 222 760 222 686 q 275 888 222 832 q 408 945 327 945 m 408 852 q 342 824 369 852 q 316 760 316 796 q 342 695 316 724 q 408 667 368 667 q 473 694 446 667 q 500 760 500 722 q 474 824 500 797 q 408 852 448 852 z "},"¢":{"ha":814,"x_min":119,"x_max":705,"o":"m 380 983 l 467 983 l 467 808 q 705 580 667 781 l 579 557 q 467 686 544 675 l 467 267 q 579 392 545 272 l 705 374 q 467 144 669 174 l 467 -46 l 380 -46 l 380 144 q 188 252 258 160 q 119 469 119 343 q 191 703 119 612 q 380 808 263 793 l 380 983 m 380 686 q 280 467 280 670 q 380 267 280 291 l 380 686 z "},"£":{"ha":814,"x_min":-17,"x_max":817,"o":"m -17 0 l -17 154 q 109 170 68 155 q 180 230 150 184 q 210 327 210 275 q 202 423 210 353 l 95 423 l 95 543 l 188 543 q 176 658 176 620 q 254 860 176 781 q 456 940 332 940 q 722 771 640 940 l 591 710 q 463 814 559 814 q 376 778 408 814 q 344 671 344 742 q 366 543 344 621 l 534 543 l 534 423 l 366 423 q 346 263 366 313 q 262 154 326 213 l 439 154 q 621 188 577 154 q 671 285 665 221 l 817 212 q 745 88 789 136 q 648 20 701 41 q 500 0 594 0 l -17 0 z "},"§":{"ha":814,"x_min":84,"x_max":731,"o":"m 84 -42 l 232 -14 q 422 -127 288 -127 q 528 -98 487 -127 q 569 -28 569 -69 q 544 38 569 9 q 438 97 518 67 l 292 151 q 199 198 227 175 q 148 265 170 221 q 126 362 126 309 q 232 542 126 481 q 149 700 149 605 q 222 866 149 798 q 437 935 296 935 q 718 766 644 935 l 593 730 q 425 833 553 833 q 291 742 291 833 q 399 643 291 680 l 521 602 q 675 507 634 563 q 717 380 717 450 q 627 198 717 288 q 731 12 731 135 q 649 -171 731 -102 q 414 -240 566 -240 q 214 -196 294 -240 q 84 -42 134 -152 m 533 239 q 583 334 583 289 q 463 451 583 410 l 316 501 q 267 414 267 460 q 406 285 267 335 l 533 239 z "},"•":{"ha":926,"x_min":272,"x_max":654,"o":"m 654 472 q 598 335 654 393 q 463 278 542 278 q 327 335 382 278 q 272 472 272 393 q 328 609 272 552 q 463 666 384 666 q 598 609 542 666 q 654 472 654 552 z "},"¶":{"ha":814,"x_min":47,"x_max":783,"o":"m 783 926 l 783 848 l 682 848 l 682 -227 l 604 -227 l 604 848 l 528 848 l 528 -227 l 448 -227 l 448 477 l 360 477 q 177 494 237 477 q 83 563 118 511 q 47 695 47 615 q 85 819 47 758 q 175 903 122 881 q 363 926 229 926 l 783 926 m 448 555 l 448 848 l 376 848 q 241 829 273 848 q 196 767 210 810 q 183 692 183 724 q 222 589 183 623 q 361 555 261 555 l 448 555 z "},"ß":{"ha":774,"x_min":22,"x_max":744,"o":"m 252 -64 l 97 -64 l 97 499 l 22 499 l 22 621 l 97 621 q 192 914 100 835 q 408 993 284 993 q 595 931 519 993 q 671 777 671 870 q 433 565 671 605 q 416 539 416 548 q 486 497 416 522 q 564 463 490 496 q 672 399 638 429 q 725 325 705 368 q 744 231 744 281 q 664 45 744 121 q 457 -31 585 -31 q 317 -5 389 -31 l 351 100 q 441 87 391 87 q 599 190 599 87 q 571 258 599 226 q 460 328 544 290 q 327 411 356 374 q 298 494 298 448 q 364 638 298 562 l 393 650 q 489 701 463 675 q 515 772 515 726 q 484 851 515 819 q 399 882 452 882 q 293 838 335 882 q 252 713 252 793 l 252 -64 z "},"®":{"ha":1074,"x_min":56,"x_max":1018,"o":"m 1018 463 q 877 122 1018 264 q 538 -20 736 -20 q 198 122 340 -20 q 56 463 56 264 q 198 804 56 662 q 540 945 339 945 q 878 804 737 945 q 1018 463 1018 662 m 932 463 q 816 749 932 629 q 539 868 701 868 q 258 749 374 868 q 142 463 142 630 q 259 176 142 295 q 538 58 375 58 q 815 176 699 58 q 932 463 932 295 m 779 185 l 654 185 l 564 410 l 431 410 l 431 185 l 313 185 l 313 741 l 570 741 q 728 694 676 741 q 780 576 780 648 q 677 429 780 472 l 779 185 m 431 498 l 553 498 q 657 577 657 498 q 562 653 657 653 l 431 653 l 431 498 z "},"©":{"ha":1074,"x_min":56,"x_max":1018,"o":"m 1018 463 q 877 122 1018 264 q 538 -20 736 -20 q 198 122 340 -20 q 56 463 56 264 q 198 804 56 662 q 540 945 339 945 q 878 804 737 945 q 1018 463 1018 662 m 932 463 q 816 749 932 629 q 539 868 701 868 q 258 749 374 868 q 142 463 142 630 q 259 176 142 295 q 538 58 375 58 q 815 176 699 58 q 932 463 932 295 m 648 385 l 760 373 q 689 230 749 283 q 534 177 629 177 q 361 254 427 177 q 296 463 296 330 q 361 671 296 592 q 537 749 426 749 q 760 547 724 749 l 649 536 q 645 551 649 536 q 538 661 617 661 q 456 615 489 661 q 422 465 422 569 q 455 319 422 369 q 541 269 488 269 q 614 301 583 269 q 648 385 644 334 z "},"™":{"ha":1079,"x_min":2,"x_max":1025,"o":"m 272 398 l 150 398 l 150 836 l 2 836 l 2 926 l 420 926 l 420 836 l 272 836 l 272 398 m 1025 398 l 909 398 l 909 812 l 768 398 l 704 398 l 562 812 l 562 398 l 466 398 l 466 926 l 635 926 l 746 609 l 854 926 l 1025 926 l 1025 398 z "},"´":{"ha":694,"x_min":235,"x_max":546,"o":"m 501 1008 l 546 907 l 263 787 l 235 860 l 501 1008 z "},"¨":{"ha":694,"x_min":157,"x_max":537,"o":"m 233 806 q 179 827 200 806 q 157 878 157 848 q 178 931 157 908 q 233 954 199 954 q 287 933 264 954 q 310 879 310 913 q 287 825 310 845 q 233 806 264 806 m 460 806 q 405 827 427 806 q 384 878 384 849 q 405 931 384 908 q 460 954 427 954 q 514 933 490 954 q 537 879 537 913 q 514 825 537 845 q 460 806 492 806 z "},"≠":{"ha":814,"x_min":106,"x_max":709,"o":"m 428 642 l 504 793 l 605 743 l 554 642 l 708 642 l 708 500 l 490 500 l 439 397 l 709 397 l 709 256 l 374 256 l 304 116 l 203 165 l 248 256 l 106 256 l 106 397 l 313 397 l 364 500 l 106 500 l 106 642 l 428 642 z "},"Æ":{"ha":1175,"x_min":-23,"x_max":1133,"o":"m 1133 144 l 1133 0 l 544 0 l 544 262 l 267 262 l 136 0 l -23 0 l 470 926 l 1122 926 l 1122 791 l 711 791 l 711 536 l 1037 536 l 1037 404 l 711 404 l 711 144 l 1133 144 m 544 391 l 544 812 l 334 391 l 544 391 z "},"Ø":{"ha":894,"x_min":39,"x_max":854,"o":"m 742 797 q 840 464 840 661 q 732 118 840 250 q 444 -14 623 -14 q 230 51 315 -14 l 168 -38 l 39 -38 l 153 126 q 54 465 54 273 q 163 805 54 670 q 447 940 273 940 q 665 876 566 940 l 724 964 l 854 964 l 742 797 m 260 277 l 576 756 q 451 806 530 806 q 285 714 336 806 q 234 466 234 622 q 260 277 234 353 m 637 652 l 319 172 q 446 120 371 120 q 598 195 536 120 q 660 465 660 269 q 637 652 660 558 z "},"∞":{"ha":990,"x_min":103,"x_max":887,"o":"m 466 564 q 593 693 545 665 q 692 722 640 722 q 827 668 766 722 q 887 504 887 615 q 824 327 887 377 q 692 276 761 276 q 591 305 639 276 q 466 434 544 334 q 271 317 374 317 q 149 374 195 317 q 103 498 103 430 q 149 624 103 568 q 271 680 195 680 q 466 564 374 680 m 513 500 q 590 400 545 448 q 690 352 635 352 q 774 386 736 352 q 812 497 812 420 q 777 606 812 568 q 688 645 741 645 q 614 618 650 645 q 513 500 579 591 m 419 498 q 270 606 336 606 q 203 576 229 606 q 178 501 178 547 q 205 424 178 453 q 271 395 232 395 q 419 498 339 395 z "},"±":{"ha":814,"x_min":64,"x_max":751,"o":"m 751 532 l 751 403 l 472 403 l 472 115 l 343 115 l 343 403 l 64 403 l 64 532 l 343 532 l 343 821 l 472 821 l 472 532 l 751 532 m 751 69 l 751 -60 l 64 -60 l 64 69 l 751 69 z "},"≤":{"ha":814,"x_min":93,"x_max":694,"o":"m 694 904 l 694 757 l 260 553 l 694 351 l 694 203 l 93 488 l 93 620 l 694 904 m 694 163 l 694 22 l 93 22 l 93 163 l 694 163 z "},"≥":{"ha":814,"x_min":120,"x_max":722,"o":"m 120 203 l 120 351 l 555 554 l 121 757 l 120 904 l 722 620 l 722 487 l 120 203 m 120 22 l 120 163 l 722 163 l 722 22 l 120 22 z "},"¥":{"ha":815,"x_min":40,"x_max":774,"o":"m 73 588 l 224 588 l 40 926 l 233 926 l 432 544 l 622 926 l 774 926 l 600 588 l 742 588 l 742 505 l 557 505 l 498 391 l 498 368 l 742 368 l 742 284 l 498 284 l 498 0 l 331 0 l 331 284 l 73 284 l 73 368 l 331 368 l 331 391 l 269 505 l 73 505 l 73 588 z "},"µ":{"ha":814,"x_min":117,"x_max":697,"o":"m 117 -231 l 117 685 l 272 685 l 272 319 q 283 205 272 243 q 328 140 294 168 q 405 113 361 113 q 505 157 468 113 q 543 319 543 201 l 543 685 l 697 685 l 697 0 l 566 0 l 566 105 q 410 -14 515 -14 q 322 15 361 -14 q 272 83 283 43 l 272 -231 l 117 -231 z "},"∂":{"ha":686,"x_min":38,"x_max":660,"o":"m 289 772 l 197 812 q 308 963 241 914 q 441 1011 376 1011 q 601 917 542 1011 q 660 628 660 822 q 537 156 660 332 q 245 -19 414 -19 q 96 43 154 -19 q 38 217 38 106 q 172 507 38 392 q 582 627 305 623 q 543 860 581 796 q 443 924 506 924 q 289 772 346 924 m 579 540 q 334 492 412 532 q 208 370 255 453 q 160 205 160 287 q 196 111 160 146 q 275 76 233 76 q 465 191 373 76 q 579 540 556 306 z "},"∑":{"ha":990,"x_min":83,"x_max":940,"o":"m 94 1042 l 933 1042 l 933 930 l 263 930 l 675 391 l 237 -180 l 940 -180 l 940 -289 l 83 -289 l 83 -162 l 503 386 l 94 922 l 94 1042 z "},"∏":{"ha":1143,"x_min":110,"x_max":1034,"o":"m 110 1042 l 1034 1042 l 1034 -289 l 904 -289 l 904 924 l 241 924 l 241 -289 l 110 -289 l 110 1042 z "},"∫":{"ha":380,"x_min":0,"x_max":380,"o":"m 295 1263 q 356 1240 332 1263 q 380 1191 380 1217 q 362 1141 380 1161 q 317 1120 345 1120 q 266 1145 294 1120 q 239 1158 250 1158 q 212 1115 212 1158 q 218 1017 212 1086 q 243 566 243 739 q 235 247 243 520 q 182 -88 227 -26 q 80 -149 138 -149 q 23 -127 47 -149 q 0 -67 0 -105 q 17 -19 0 -38 q 61 0 33 0 q 109 -22 88 0 q 141 -43 127 -43 q 168 -2 168 -43 q 161 79 168 26 q 136 643 136 294 q 174 1153 136 1042 q 295 1263 212 1263 z "},"ª":{"ha":495,"x_min":37,"x_max":446,"o":"m 446 523 l 338 523 q 326 574 328 545 l 325 582 q 292 547 309 561 q 185 515 254 515 q 78 551 119 515 q 37 643 37 587 q 322 787 37 787 l 322 812 q 239 871 322 871 q 146 807 156 871 l 50 821 q 250 945 73 945 q 367 925 328 945 q 419 876 406 905 q 431 791 431 848 l 431 609 q 446 523 431 570 m 322 728 q 151 649 151 728 q 218 593 151 593 q 297 624 271 593 q 322 696 322 656 l 322 728 z "},"º":{"ha":485,"x_min":37,"x_max":448,"o":"m 238 515 q 91 578 144 515 q 37 731 37 641 q 94 884 37 823 q 245 945 151 945 q 392 884 336 945 q 448 731 448 823 q 389 574 448 633 q 238 515 330 515 m 241 599 q 332 732 332 599 q 245 861 332 861 q 153 729 153 861 q 241 599 153 599 z "},"Ω":{"ha":1067,"x_min":76,"x_max":990,"o":"m 326 109 q 92 550 92 245 q 212 885 92 751 q 538 1019 332 1019 q 858 884 740 1019 q 977 545 977 748 q 743 109 977 262 l 990 113 l 990 0 l 600 0 l 600 121 q 774 284 712 172 q 836 527 836 397 q 760 797 836 684 q 536 909 684 909 q 314 802 393 909 q 235 532 235 694 q 298 274 235 381 q 467 121 361 166 l 467 0 l 76 0 l 76 113 l 326 109 z "},"æ":{"ha":1192,"x_min":50,"x_max":1143,"o":"m 1143 320 l 660 320 q 703 165 661 222 q 830 107 745 107 q 987 216 945 107 l 1130 193 q 1019 45 1106 104 q 819 -14 932 -14 q 657 24 730 -14 q 551 128 585 63 q 298 -14 458 -14 q 114 45 178 -14 q 50 197 50 105 q 156 370 50 312 q 451 427 262 427 q 512 424 476 427 q 504 520 511 495 q 464 566 496 546 q 368 585 431 585 q 218 490 243 585 l 80 507 q 389 699 129 699 q 505 683 460 699 q 611 621 550 667 q 825 699 703 699 q 1061 604 979 699 q 1143 361 1143 508 l 1143 320 m 983 424 q 933 549 979 508 q 824 590 888 590 q 665 424 686 590 l 983 424 m 511 341 q 282 303 345 336 q 218 202 218 271 q 251 127 218 153 q 333 100 283 100 q 438 134 391 100 q 498 214 485 168 q 511 341 511 260 z "},"ø":{"ha":734,"x_min":49,"x_max":686,"o":"m 599 599 q 668 476 651 532 q 686 345 686 420 q 594 84 686 182 q 358 -14 502 -14 q 199 30 269 -14 l 145 -45 l 49 -45 l 138 83 q 50 346 50 193 q 137 598 50 497 q 374 699 225 699 q 540 652 466 699 l 589 718 l 686 718 l 599 599 m 231 210 l 458 542 q 364 572 427 572 q 253 512 294 572 q 213 349 213 451 q 231 210 213 275 m 502 471 l 282 141 q 367 113 321 113 q 522 351 522 113 q 502 471 522 426 z "},"¿":{"ha":696,"x_min":44,"x_max":673,"o":"m 262 526 l 262 694 l 422 694 l 422 526 l 262 526 m 290 429 l 422 429 l 422 337 q 403 264 422 291 q 321 189 385 238 q 225 33 225 115 q 263 -66 225 -29 q 361 -103 300 -103 q 526 90 500 -103 l 673 64 q 567 -164 660 -82 q 344 -245 473 -245 q 127 -168 211 -245 q 44 24 44 -91 q 68 131 44 80 q 121 211 92 182 q 247 309 151 239 q 282 348 275 330 q 290 429 289 366 z "},"¡":{"ha":382,"x_min":85,"x_max":290,"o":"m 106 525 l 106 694 l 276 694 l 276 525 l 106 525 m 85 -231 l 154 414 l 224 414 l 290 -231 l 85 -231 z "},"¬":{"ha":814,"x_min":106,"x_max":708,"o":"m 551 0 l 551 229 l 106 229 l 106 370 l 708 370 l 708 0 l 551 0 z "},"√":{"ha":762,"x_min":55,"x_max":760,"o":"m 710 1267 l 760 1267 l 549 -53 l 212 640 l 78 578 l 55 621 l 259 724 l 534 165 l 710 1267 z "},"ƒ":{"ha":814,"x_min":56,"x_max":739,"o":"m 656 646 l 512 646 l 421 139 q 388 -14 401 32 q 337 -102 374 -59 q 255 -165 300 -146 q 123 -185 209 -185 q 56 -179 81 -185 l 80 -55 l 117 -56 q 201 -42 176 -56 q 236 -3 225 -28 q 261 96 248 22 l 361 646 l 261 646 l 280 770 l 383 770 q 480 986 405 936 q 658 1036 555 1036 q 739 1029 686 1036 l 715 899 q 677 901 685 901 q 566 869 589 901 q 534 770 542 837 l 680 770 l 656 646 z "},"≈":{"ha":814,"x_min":71,"x_max":744,"o":"m 158 474 l 71 531 q 163 676 115 638 q 275 715 210 715 q 422 675 323 715 q 546 640 513 640 q 654 717 612 640 l 744 665 q 528 488 667 488 q 361 536 489 488 q 264 562 292 562 q 158 474 200 562 m 158 206 l 71 263 q 163 410 116 372 q 275 447 211 447 q 422 408 323 447 q 547 372 513 372 q 654 450 612 372 l 744 397 q 527 220 667 220 q 361 269 489 220 q 264 295 292 295 q 158 206 200 295 z "},"∆":{"ha":850,"x_min":18,"x_max":831,"o":"m 831 0 l 18 0 l 444 941 l 831 0 m 671 56 l 401 711 l 102 56 l 671 56 z "},"«":{"ha":457,"x_min":51,"x_max":397,"o":"m 397 542 l 335 345 l 397 150 l 335 150 l 223 345 l 335 542 l 397 542 m 223 542 l 157 345 l 223 150 l 157 150 l 51 345 l 157 542 l 223 542 z "},"»":{"ha":456,"x_min":60,"x_max":406,"o":"m 60 541 l 124 541 l 233 342 l 124 151 l 60 151 l 124 342 l 60 541 m 233 541 l 296 541 l 406 342 l 296 151 l 233 151 l 296 342 l 233 541 z "},"…":{"ha":1029,"x_min":88,"x_max":942,"o":"m 256 178 l 256 0 l 88 0 l 88 178 l 256 178 m 598 178 l 598 0 l 432 0 l 432 178 l 598 178 m 942 178 l 942 0 l 774 0 l 774 178 l 942 178 z "}," ":{"ha":347,"x_min":0,"x_max":0,"o":""},"À":{"ha":838,"x_min":5,"x_max":828,"o":"m 828 0 l 650 0 l 576 220 l 220 220 l 147 0 l 5 0 l 312 926 l 517 926 l 828 0 m 531 354 l 396 767 l 261 354 l 531 354 m 237 1221 l 503 1072 l 475 1000 l 192 1119 l 237 1221 z "},"Ã":{"ha":838,"x_min":5,"x_max":828,"o":"m 828 0 l 650 0 l 576 220 l 220 220 l 147 0 l 5 0 l 312 926 l 517 926 l 828 0 m 531 354 l 396 767 l 261 354 l 531 354 m 594 1177 l 642 1107 q 582 1050 625 1073 q 505 1027 538 1027 q 401 1059 463 1027 q 332 1084 355 1084 q 247 1031 300 1084 l 200 1101 q 336 1179 263 1179 q 428 1152 372 1179 q 519 1124 489 1124 q 594 1177 560 1124 z "},"Õ":{"ha":894,"x_min":53,"x_max":840,"o":"m 443 -14 q 156 124 258 -14 q 53 466 53 262 q 162 804 53 668 q 450 940 271 940 q 735 804 631 940 q 840 464 840 668 q 731 118 840 250 q 443 -14 623 -14 m 444 120 q 597 195 534 120 q 659 465 659 269 q 608 715 659 625 q 448 806 556 806 q 233 460 233 806 q 288 207 233 293 q 444 120 342 120 m 633 1177 l 681 1107 q 621 1050 665 1073 q 544 1027 578 1027 q 441 1059 503 1027 q 372 1084 394 1084 q 286 1031 340 1084 l 239 1101 q 376 1179 302 1179 q 467 1152 411 1179 q 558 1124 528 1124 q 633 1177 600 1124 z "},"Œ":{"ha":1305,"x_min":54,"x_max":1264,"o":"m 646 926 l 1264 926 l 1264 791 l 813 791 l 813 538 l 1171 538 l 1171 406 l 813 406 l 813 144 l 1264 144 l 1264 0 l 646 0 l 646 47 q 442 -14 560 -14 q 160 122 267 -14 q 54 468 54 258 q 158 809 54 677 q 434 941 262 941 q 646 885 555 941 l 646 926 m 646 623 q 587 756 646 707 q 454 806 528 806 q 302 736 370 806 q 234 476 234 667 q 293 208 234 289 q 448 127 352 127 q 581 168 516 127 q 646 297 646 209 l 646 623 z "},"œ":{"ha":1172,"x_min":49,"x_max":1125,"o":"m 1123 325 l 656 325 q 701 166 656 219 q 821 113 745 113 q 972 218 936 113 l 1114 197 q 1021 57 1097 129 q 814 -14 945 -14 q 586 89 654 -14 q 364 -14 505 -14 q 128 93 207 -14 q 49 342 49 199 q 135 597 49 494 q 367 699 220 699 q 586 596 515 699 q 817 699 661 699 q 1042 605 959 699 q 1123 325 1125 510 m 966 420 q 923 538 965 492 q 812 585 880 585 q 706 544 750 585 q 657 420 663 503 l 966 420 m 360 113 q 473 172 431 113 q 515 352 515 231 q 469 527 515 481 q 362 572 422 572 q 247 508 286 572 q 209 338 209 444 q 247 174 209 234 q 360 113 286 113 z "},"–":{"ha":814,"x_min":126,"x_max":688,"o":"m 688 415 l 688 287 l 126 287 l 126 415 l 688 415 z "},"—":{"ha":926,"x_min":-48,"x_max":974,"o":"m 974 416 l 974 291 l -48 291 l -48 416 l 974 416 z "},"“":{"ha":522,"x_min":88,"x_max":433,"o":"m 88 591 l 88 743 l 190 926 l 248 926 l 170 743 l 235 743 l 235 591 l 88 591 m 283 591 l 283 743 l 385 926 l 433 926 l 362 743 l 433 743 l 433 591 l 283 591 z "},"”":{"ha":522,"x_min":88,"x_max":433,"o":"m 433 926 l 433 772 l 332 591 l 275 591 l 352 772 l 288 772 l 288 926 l 433 926 m 238 926 l 238 772 l 138 591 l 88 591 l 160 772 l 88 772 l 88 926 l 238 926 z "},"‘":{"ha":334,"x_min":90,"x_max":244,"o":"m 90 591 l 90 745 l 193 926 l 244 926 l 170 745 l 244 745 l 244 591 l 90 591 z "},"’":{"ha":334,"x_min":90,"x_max":244,"o":"m 244 926 l 244 773 l 140 591 l 90 591 l 165 773 l 90 773 l 90 926 l 244 926 z "},"÷":{"ha":814,"x_min":64,"x_max":751,"o":"m 490 703 q 465 644 490 668 q 407 619 441 619 q 348 643 372 619 q 323 703 323 667 q 348 761 323 736 q 407 785 372 785 q 465 761 441 785 q 490 703 490 736 m 751 532 l 751 403 l 64 403 l 64 532 l 751 532 m 490 231 q 465 172 490 197 q 407 148 441 148 q 348 172 372 148 q 323 231 323 197 q 348 290 323 265 q 407 314 372 314 q 465 290 441 314 q 490 231 490 265 z "},"◊":{"ha":686,"x_min":32,"x_max":656,"o":"m 372 964 l 656 481 l 372 0 l 297 0 l 32 481 l 297 964 l 372 964 m 336 899 l 105 481 l 336 64 l 579 481 l 336 899 z "},"ÿ":{"ha":614,"x_min":9,"x_max":604,"o":"m 604 685 l 338 -95 q 271 -207 313 -167 q 151 -246 229 -246 q 62 -241 121 -246 l 62 -119 l 136 -120 q 209 -104 185 -120 q 245 -47 232 -88 q 259 0 259 -7 q 245 42 259 4 l 9 685 l 172 685 l 338 233 l 481 685 l 604 685 m 206 806 q 152 827 174 806 q 131 878 131 848 q 152 931 131 908 q 206 954 173 954 q 260 933 237 954 q 283 879 283 913 q 261 825 283 845 q 206 806 238 806 m 433 806 q 379 827 400 806 q 357 878 357 849 q 379 931 357 908 q 433 954 400 954 q 487 933 464 954 q 511 879 511 913 q 488 825 511 845 q 433 806 465 806 z "},"Ÿ":{"ha":755,"x_min":-18,"x_max":774,"o":"m 474 0 l 297 0 l 297 391 l -18 926 l 184 926 l 404 544 l 614 926 l 774 926 l 474 391 l 474 0 m 273 1025 q 219 1047 240 1025 q 197 1098 197 1068 q 218 1151 197 1128 q 273 1173 239 1173 q 327 1153 304 1173 q 350 1099 350 1133 q 327 1045 350 1065 q 273 1025 304 1025 m 500 1025 q 445 1047 467 1025 q 424 1098 424 1069 q 445 1151 424 1128 q 500 1173 467 1173 q 554 1153 530 1173 q 577 1099 577 1133 q 554 1045 577 1065 q 500 1025 532 1025 z "},"∕":{"ha":148,"x_min":-257,"x_max":405,"o":"m -257 0 l 315 926 l 405 926 l -167 0 l -257 0 z "},"€":{"ha":814,"x_min":9,"x_max":779,"o":"m 779 285 q 668 61 758 135 q 441 -14 578 -14 q 196 87 284 -14 q 86 340 109 188 l 9 340 l 9 424 l 78 424 q 77 463 77 437 q 78 507 77 494 l 9 507 l 9 590 l 85 590 q 215 851 109 762 q 439 940 321 940 q 667 865 576 940 q 779 653 757 791 l 624 636 q 440 812 591 812 q 322 758 376 812 q 253 590 268 704 l 463 590 l 463 507 l 245 507 l 244 465 l 245 424 l 463 424 l 463 340 l 253 340 q 329 172 271 225 q 454 119 388 119 q 568 171 519 119 q 624 301 616 222 l 779 285 z "},"‹":{"ha":283,"x_min":51,"x_max":223,"o":"m 223 555 l 159 356 l 223 165 l 159 165 l 51 356 l 159 555 l 223 555 z "},"›":{"ha":283,"x_min":60,"x_max":233,"o":"m 60 555 l 124 555 l 233 356 l 124 165 l 60 165 l 124 356 l 60 555 z "},"ﬁ":{"ha":749,"x_min":14,"x_max":657,"o":"m 276 0 l 116 0 l 116 565 l 14 565 l 14 685 l 116 685 q 143 838 117 788 q 219 913 170 887 q 332 940 269 940 q 427 933 367 940 l 427 810 q 406 811 412 811 q 313 799 336 811 q 283 764 290 786 q 276 685 276 743 l 427 685 l 427 565 l 276 565 l 276 0 m 657 926 l 657 763 l 498 763 l 498 926 l 657 926 m 657 685 l 657 0 l 498 0 l 498 685 l 657 685 z "},"ﬂ":{"ha":750,"x_min":14,"x_max":658,"o":"m 277 0 l 117 0 l 117 565 l 14 565 l 14 685 l 117 685 q 137 824 119 774 q 207 907 155 875 q 336 940 258 940 q 427 933 374 940 l 427 810 q 387 811 391 811 q 306 792 336 811 q 277 714 277 773 l 277 685 l 427 685 l 427 565 l 277 565 l 277 0 m 658 926 l 658 0 l 498 0 l 498 926 l 658 926 z "},"‡":{"ha":814,"x_min":85,"x_max":729,"o":"m 85 543 l 85 671 l 333 671 l 333 926 l 481 926 l 481 671 l 729 671 l 729 543 l 481 543 l 481 165 l 729 165 l 729 37 l 481 37 l 481 -231 l 333 -231 l 333 37 l 85 37 l 85 165 l 333 165 l 333 543 l 85 543 z "},"∙":{"ha":168,"x_min":0,"x_max":168,"o":"m 168 441 l 168 264 l 0 264 l 0 441 l 168 441 z "},"‚":{"ha":334,"x_min":90,"x_max":244,"o":"m 244 153 l 244 0 l 140 -182 l 90 -182 l 165 0 l 90 0 l 90 153 l 244 153 z "},"„":{"ha":522,"x_min":88,"x_max":433,"o":"m 433 154 l 433 0 l 332 -182 l 275 -182 l 352 0 l 288 0 l 288 154 l 433 154 m 238 154 l 238 0 l 138 -182 l 88 -182 l 160 0 l 88 0 l 88 154 l 238 154 z "},"‰":{"ha":1562,"x_min":44,"x_max":1518,"o":"m 259 418 q 103 495 161 418 q 44 681 44 571 q 103 862 44 789 q 261 935 162 935 q 425 858 372 935 q 478 683 478 781 q 414 490 478 561 q 259 418 351 418 m 260 519 q 353 682 353 519 q 263 836 353 836 q 172 682 172 836 q 260 519 172 519 m 874 926 l 301 0 l 199 0 l 774 926 l 874 926 m 806 -8 q 655 63 715 -8 q 595 241 595 134 q 662 437 595 366 q 815 509 728 509 q 962 442 897 509 q 1027 241 1027 376 q 965 60 1027 129 q 806 -8 902 -8 m 812 90 q 882 137 860 90 q 904 243 904 183 q 883 369 904 331 q 817 406 861 406 q 721 248 721 406 q 812 90 721 90 m 1297 -8 q 1146 63 1206 -8 q 1086 241 1086 134 q 1152 437 1086 366 q 1306 509 1219 509 q 1453 442 1388 509 q 1518 241 1518 376 q 1455 60 1518 129 q 1297 -8 1392 -8 m 1302 90 q 1373 136 1350 90 q 1395 243 1395 182 q 1372 373 1395 339 q 1308 406 1348 406 q 1211 248 1211 406 q 1302 90 1211 90 z "},"Â":{"ha":838,"x_min":5,"x_max":828,"o":"m 828 0 l 650 0 l 576 220 l 220 220 l 147 0 l 5 0 l 312 926 l 517 926 l 828 0 m 531 354 l 396 767 l 261 354 l 531 354 m 417 1214 l 652 1019 l 530 1004 l 417 1094 l 304 1004 l 181 1019 l 417 1214 z "},"Ê":{"ha":745,"x_min":102,"x_max":703,"o":"m 703 0 l 102 0 l 102 926 l 697 926 l 697 788 l 269 788 l 269 537 l 613 537 l 613 403 l 269 403 l 269 144 l 703 144 l 703 0 m 408 1214 l 643 1019 l 521 1004 l 408 1094 l 294 1004 l 172 1019 l 408 1214 z "},"Á":{"ha":838,"x_min":5,"x_max":828,"o":"m 828 0 l 650 0 l 576 220 l 220 220 l 147 0 l 5 0 l 312 926 l 517 926 l 828 0 m 531 354 l 396 767 l 261 354 l 531 354 m 592 1221 l 637 1119 l 354 1000 l 326 1072 l 592 1221 z "},"Ë":{"ha":745,"x_min":102,"x_max":703,"o":"m 703 0 l 102 0 l 102 926 l 697 926 l 697 788 l 269 788 l 269 537 l 613 537 l 613 403 l 269 403 l 269 144 l 703 144 l 703 0 m 288 1025 q 234 1047 256 1025 q 213 1098 213 1068 q 234 1151 213 1128 q 288 1173 255 1173 q 342 1153 319 1173 q 366 1099 366 1133 q 343 1045 366 1065 q 288 1025 320 1025 m 515 1025 q 461 1047 482 1025 q 439 1098 439 1069 q 461 1151 439 1128 q 515 1173 482 1173 q 569 1153 546 1173 q 593 1099 593 1133 q 570 1045 593 1065 q 515 1025 547 1025 z "},"È":{"ha":745,"x_min":102,"x_max":703,"o":"m 703 0 l 102 0 l 102 926 l 697 926 l 697 788 l 269 788 l 269 537 l 613 537 l 613 403 l 269 403 l 269 144 l 703 144 l 703 0 m 245 1221 l 512 1072 l 484 1000 l 201 1119 l 245 1221 z "},"Í":{"ha":370,"x_min":100,"x_max":411,"o":"m 269 0 l 102 0 l 102 926 l 269 926 l 269 0 m 366 1221 l 411 1119 l 128 1000 l 100 1072 l 366 1221 z "},"Î":{"ha":370,"x_min":-52,"x_max":420,"o":"m 269 0 l 102 0 l 102 926 l 269 926 l 269 0 m 184 1214 l 420 1019 l 298 1004 l 184 1094 l 71 1004 l -52 1019 l 184 1214 z "},"Ï":{"ha":370,"x_min":5,"x_max":385,"o":"m 269 0 l 102 0 l 102 926 l 269 926 l 269 0 m 80 1025 q 26 1047 47 1025 q 5 1098 5 1068 q 26 1151 5 1128 q 80 1173 47 1173 q 134 1153 111 1173 q 157 1099 157 1133 q 135 1045 157 1065 q 80 1025 112 1025 m 307 1025 q 253 1047 274 1025 q 231 1098 231 1069 q 253 1151 231 1128 q 307 1173 274 1173 q 361 1153 338 1173 q 385 1099 385 1133 q 362 1045 385 1065 q 307 1025 339 1025 z "},"Ì":{"ha":370,"x_min":-20,"x_max":291,"o":"m 269 0 l 102 0 l 102 926 l 269 926 l 269 0 m 24 1221 l 291 1072 l 262 1000 l -20 1119 l 24 1221 z "},"Ó":{"ha":894,"x_min":53,"x_max":840,"o":"m 443 -14 q 156 124 258 -14 q 53 466 53 262 q 162 804 53 668 q 450 940 271 940 q 735 804 631 940 q 840 464 840 668 q 731 118 840 250 q 443 -14 623 -14 m 444 120 q 597 195 534 120 q 659 465 659 269 q 608 715 659 625 q 448 806 556 806 q 233 460 233 806 q 288 207 233 293 q 444 120 342 120 m 617 1221 l 662 1119 l 379 1000 l 351 1072 l 617 1221 z "},"Ô":{"ha":894,"x_min":53,"x_max":840,"o":"m 443 -14 q 156 124 258 -14 q 53 466 53 262 q 162 804 53 668 q 450 940 271 940 q 735 804 631 940 q 840 464 840 668 q 731 118 840 250 q 443 -14 623 -14 m 444 120 q 597 195 534 120 q 659 465 659 269 q 608 715 659 625 q 448 806 556 806 q 233 460 233 806 q 288 207 233 293 q 444 120 342 120 m 452 1214 l 687 1019 l 565 1004 l 452 1094 l 338 1004 l 216 1019 l 452 1214 z "},"Ò":{"ha":894,"x_min":53,"x_max":840,"o":"m 443 -14 q 156 124 258 -14 q 53 466 53 262 q 162 804 53 668 q 450 940 271 940 q 735 804 631 940 q 840 464 840 668 q 731 118 840 250 q 443 -14 623 -14 m 444 120 q 597 195 534 120 q 659 465 659 269 q 608 715 659 625 q 448 806 556 806 q 233 460 233 806 q 288 207 233 293 q 444 120 342 120 m 289 1221 l 555 1072 l 527 1000 l 244 1119 l 289 1221 z "},"Ú":{"ha":826,"x_min":93,"x_max":737,"o":"m 737 926 l 737 331 q 710 145 737 210 q 605 33 683 80 q 416 -14 528 -14 q 230 26 302 -14 q 125 138 157 67 q 93 319 93 209 l 93 926 l 263 926 l 263 331 q 314 171 263 209 q 433 132 366 132 q 558 173 511 132 q 605 331 605 214 l 605 926 l 737 926 m 589 1221 l 633 1119 l 351 1000 l 322 1072 l 589 1221 z "},"Û":{"ha":826,"x_min":93,"x_max":737,"o":"m 737 926 l 737 331 q 710 145 737 210 q 605 33 683 80 q 416 -14 528 -14 q 230 26 302 -14 q 125 138 157 67 q 93 319 93 209 l 93 926 l 263 926 l 263 331 q 314 171 263 209 q 433 132 366 132 q 558 173 511 132 q 605 331 605 214 l 605 926 l 737 926 m 420 1214 l 655 1019 l 533 1004 l 420 1094 l 307 1004 l 184 1019 l 420 1214 z "},"Ù":{"ha":826,"x_min":93,"x_max":737,"o":"m 737 926 l 737 331 q 710 145 737 210 q 605 33 683 80 q 416 -14 528 -14 q 230 26 302 -14 q 125 138 157 67 q 93 319 93 209 l 93 926 l 263 926 l 263 331 q 314 171 263 209 q 433 132 366 132 q 558 173 511 132 q 605 331 605 214 l 605 926 l 737 926 m 251 1221 l 517 1072 l 489 1000 l 206 1119 l 251 1221 z "},"ı":{"ha":340,"x_min":92,"x_max":247,"o":"m 247 0 l 92 0 l 92 685 l 247 685 l 247 0 z "},"ˆ":{"ha":694,"x_min":111,"x_max":583,"o":"m 347 1001 l 583 806 l 460 791 l 347 881 l 234 791 l 111 806 l 347 1001 z "},"˜":{"ha":694,"x_min":127,"x_max":568,"o":"m 521 964 l 568 894 q 509 837 552 860 q 431 814 465 814 q 328 846 390 814 q 259 871 281 871 q 174 818 227 871 l 127 888 q 263 966 190 966 q 355 939 298 966 q 446 911 416 911 q 521 964 487 911 z "},"ˉ":{"ha":694,"x_min":143,"x_max":551,"o":"m 551 917 l 551 829 l 143 829 l 143 917 l 551 917 z "},"˘":{"ha":694,"x_min":141,"x_max":553,"o":"m 141 987 l 230 987 q 349 897 242 897 q 464 987 452 897 l 553 987 q 493 855 549 909 q 345 801 437 801 q 201 852 258 801 q 141 987 144 903 z "},"˙":{"ha":694,"x_min":271,"x_max":423,"o":"m 346 806 q 292 827 313 806 q 271 878 271 848 q 292 931 271 908 q 346 954 313 954 q 400 933 377 954 q 423 879 423 913 q 400 825 423 845 q 346 806 378 806 z "},"˚":{"ha":694,"x_min":221,"x_max":473,"o":"m 347 768 q 258 805 294 768 q 221 894 221 842 q 258 983 221 946 q 347 1021 295 1021 q 433 987 393 1021 q 473 892 473 954 q 436 806 473 843 q 347 768 400 768 m 347 839 q 389 856 376 839 q 403 892 403 873 q 388 934 403 918 q 350 950 374 950 q 309 936 327 950 q 292 895 292 922 q 306 856 292 872 q 347 839 320 839 z "},"¸":{"ha":694,"x_min":206,"x_max":475,"o":"m 348 0 l 330 -63 q 437 -94 399 -63 q 475 -171 475 -125 q 439 -249 475 -215 q 344 -282 402 -282 q 206 -242 293 -282 l 228 -189 q 333 -221 287 -221 q 372 -208 357 -221 q 388 -175 388 -194 q 285 -117 388 -117 q 254 -118 274 -117 l 293 0 l 348 0 z "},"˝":{"ha":694,"x_min":208,"x_max":710,"o":"m 415 1008 l 478 930 l 256 787 l 208 846 l 415 1008 m 646 1008 l 710 930 l 488 787 l 447 846 l 646 1008 z "},"˛":{"ha":694,"x_min":413,"x_max":656,"o":"m 606 0 q 509 -110 509 -52 q 528 -155 509 -138 q 582 -172 548 -172 q 642 -160 610 -172 l 656 -210 q 548 -233 604 -233 q 450 -204 488 -233 q 413 -130 413 -175 q 531 0 413 -49 l 606 0 z "},"ˇ":{"ha":694,"x_min":111,"x_max":583,"o":"m 347 783 l 111 978 l 234 991 l 347 903 l 460 991 l 583 978 l 347 783 z "},"Ł":{"ha":692,"x_min":9,"x_max":671,"o":"m 671 151 l 671 0 l 102 0 l 102 308 l 9 214 l 9 373 l 102 467 l 102 926 l 278 926 l 278 587 l 467 777 l 467 618 l 278 428 l 278 151 l 671 151 z "},"ł":{"ha":349,"x_min":9,"x_max":340,"o":"m 252 0 l 98 0 l 98 391 l 9 298 l 9 412 l 98 505 l 98 926 l 252 926 l 252 614 l 340 707 l 340 593 l 252 500 l 252 0 z "},"Š":{"ha":793,"x_min":5,"x_max":752,"o":"m 5 223 l 167 258 q 391 120 196 120 q 527 155 479 120 q 575 243 575 191 q 553 313 575 281 q 460 363 532 345 l 283 410 q 149 464 193 433 q 80 549 106 494 q 54 666 54 604 q 146 865 54 790 q 382 940 238 940 q 595 888 501 940 q 715 740 689 836 l 556 701 q 385 806 519 806 q 266 773 307 806 q 225 690 225 741 q 354 579 225 611 l 511 540 q 703 434 654 504 q 752 279 752 363 q 649 64 752 142 q 383 -14 547 -14 q 142 43 245 -14 q 5 223 39 101 m 393 996 l 157 1191 l 279 1204 l 393 1116 l 506 1204 l 628 1191 l 393 996 z "},"š":{"ha":631,"x_min":9,"x_max":598,"o":"m 9 157 l 155 185 q 301 102 188 102 q 445 186 445 102 q 422 231 445 214 q 370 255 400 249 l 245 279 q 37 481 37 319 q 103 636 37 572 q 299 699 169 699 q 564 540 516 699 l 427 512 q 303 589 405 589 q 180 512 180 589 q 279 438 180 458 l 427 408 q 598 211 598 372 q 510 42 598 98 q 300 -14 422 -14 q 115 28 195 -14 q 9 157 34 71 m 313 783 l 77 978 l 200 991 l 313 903 l 427 991 l 549 978 l 313 783 z "},"Ž":{"ha":740,"x_min":28,"x_max":712,"o":"m 712 144 l 712 0 l 28 0 l 28 132 l 502 793 l 61 793 l 61 926 l 699 926 l 699 793 l 230 144 l 712 144 m 385 996 l 149 1191 l 271 1204 l 385 1116 l 498 1204 l 620 1191 l 385 996 z "},"ž":{"ha":581,"x_min":33,"x_max":549,"o":"m 549 120 l 549 0 l 33 0 l 33 120 l 363 565 l 64 565 l 64 685 l 549 685 l 549 576 l 211 120 l 549 120 m 309 783 l 73 978 l 196 991 l 309 903 l 422 991 l 545 978 l 309 783 z "},"¦":{"ha":694,"x_min":269,"x_max":426,"o":"m 269 926 l 426 926 l 426 450 l 269 450 l 269 926 m 269 213 l 426 213 l 426 -231 l 269 -231 l 269 213 z "},"Ð":{"ha":909,"x_min":5,"x_max":857,"o":"m 5 408 l 5 537 l 98 537 l 98 926 l 439 926 q 742 792 628 926 q 857 461 857 659 q 739 133 857 265 q 401 0 621 0 l 98 0 l 98 408 l 5 408 m 269 408 l 269 136 l 408 136 q 598 221 520 136 q 676 471 676 305 q 608 700 676 606 q 428 794 539 794 l 269 794 l 269 537 l 497 537 l 497 408 l 269 408 z "},"ð":{"ha":734,"x_min":49,"x_max":686,"o":"m 220 793 l 336 854 q 210 918 299 879 l 239 972 q 422 898 327 953 l 555 963 l 604 910 l 484 849 q 686 356 686 642 q 594 86 686 186 q 364 -13 503 -13 q 131 93 213 -13 q 49 343 49 199 q 135 585 49 483 q 338 686 222 686 q 497 606 432 686 q 393 802 469 715 l 261 736 l 220 793 m 370 557 q 245 486 281 557 q 209 343 209 415 q 245 181 209 250 q 364 112 281 112 q 479 171 439 112 q 519 334 519 231 q 477 500 519 443 q 370 557 434 557 z "},"Ý":{"ha":755,"x_min":-18,"x_max":774,"o":"m 474 0 l 297 0 l 297 391 l -18 926 l 184 926 l 404 544 l 614 926 l 774 926 l 474 391 l 474 0 m 562 1221 l 607 1119 l 324 1000 l 296 1072 l 562 1221 z "},"ý":{"ha":614,"x_min":9,"x_max":604,"o":"m 604 685 l 338 -95 q 271 -207 313 -167 q 151 -246 229 -246 q 62 -241 121 -246 l 62 -119 l 136 -120 q 209 -104 185 -120 q 245 -47 232 -88 q 259 0 259 -7 q 245 42 259 4 l 9 685 l 172 685 l 338 233 l 481 685 l 604 685 m 488 1008 l 532 907 l 250 787 l 221 860 l 488 1008 z "},"Þ":{"ha":842,"x_min":102,"x_max":800,"o":"m 269 0 l 102 0 l 102 926 l 269 926 l 269 796 l 481 796 q 721 714 643 796 q 800 522 800 633 q 714 315 800 394 q 500 237 629 237 l 269 237 l 269 0 m 269 380 l 466 380 q 584 418 543 380 q 625 520 625 456 q 590 614 625 570 q 451 657 555 657 l 269 657 l 269 380 z "},"þ":{"ha":745,"x_min":93,"x_max":696,"o":"m 248 -231 l 93 -231 l 93 926 l 248 926 l 248 580 q 448 699 313 699 q 633 594 570 699 q 696 347 696 489 q 632 94 696 201 q 439 -14 568 -14 q 248 96 307 -14 l 248 -231 m 248 281 q 291 157 248 205 q 391 108 335 108 q 499 173 465 108 q 533 337 533 237 q 497 509 533 446 q 395 572 461 572 q 291 519 334 572 q 248 378 248 465 l 248 281 z "},"−":{"ha":814,"x_min":64,"x_max":751,"o":"m 751 532 l 751 403 l 64 403 l 64 532 l 751 532 z "},"×":{"ha":814,"x_min":113,"x_max":704,"o":"m 612 764 l 704 671 l 500 467 l 703 264 l 612 173 l 408 376 l 204 172 l 113 264 l 317 468 l 113 672 l 203 764 l 408 559 l 612 764 z "},"¹":{"ha":537,"x_min":83,"x_max":504,"o":"m 504 370 l 85 370 l 85 460 l 243 460 l 243 791 q 83 695 160 724 l 83 804 q 281 937 222 848 l 358 937 l 358 460 l 504 460 l 504 370 z "},"²":{"ha":537,"x_min":43,"x_max":485,"o":"m 484 465 l 484 370 l 43 370 l 43 473 l 210 576 q 314 654 283 623 q 354 707 345 686 q 363 748 363 728 q 336 813 363 787 q 264 840 309 840 q 153 724 168 840 l 43 749 q 113 881 54 827 q 268 935 172 935 q 426 881 368 935 q 485 747 485 828 q 430 617 485 673 q 193 465 376 561 l 484 465 z "},"³":{"ha":537,"x_min":28,"x_max":489,"o":"m 191 612 l 191 699 l 250 699 q 326 718 295 699 q 357 774 357 736 q 264 846 357 846 q 150 767 180 846 l 45 785 q 122 893 61 852 q 267 935 182 935 q 411 893 351 935 q 471 784 471 852 q 383 660 471 694 q 489 528 489 623 q 427 409 489 456 q 263 362 366 362 q 107 408 169 362 q 28 516 45 453 l 136 541 q 261 448 165 448 q 342 472 313 448 q 372 528 372 495 q 346 587 372 562 q 267 612 320 612 l 191 612 z "},"½":{"ha":1222,"x_min":49,"x_max":1187,"o":"m 469 370 l 51 370 l 51 460 l 208 460 l 208 791 q 49 695 125 724 l 49 804 q 246 937 188 848 l 323 937 l 323 460 l 469 460 l 469 370 m 300 0 l 872 926 l 962 926 l 391 0 l 300 0 m 1185 94 l 1185 0 l 745 0 l 745 103 l 911 206 q 1016 284 985 252 q 1056 336 1046 315 q 1065 378 1065 357 q 1038 443 1065 417 q 966 469 1010 469 q 855 353 869 469 l 745 379 q 815 510 756 456 q 970 564 874 564 q 1128 511 1069 564 q 1187 377 1187 458 q 1132 247 1187 303 q 895 94 1078 191 l 1185 94 z "},"¼":{"ha":1222,"x_min":44,"x_max":1197,"o":"m 465 370 l 46 370 l 46 460 l 203 460 l 203 791 q 44 695 121 724 l 44 804 q 241 937 183 848 l 319 937 l 319 460 l 465 460 l 465 370 m 296 0 l 867 926 l 958 926 l 386 0 l 296 0 m 1109 0 l 993 0 l 993 124 l 734 124 l 734 202 l 996 567 l 1109 567 l 1109 218 l 1197 218 l 1197 124 l 1109 124 l 1109 0 m 1006 451 l 843 210 l 1000 210 l 1000 336 q 1006 451 1000 378 z "},"¾":{"ha":1222,"x_min":20,"x_max":1183,"o":"m 184 612 l 184 699 l 242 699 q 319 718 288 699 q 350 774 350 736 q 257 846 350 846 q 142 767 172 846 l 37 785 q 114 893 54 852 q 260 935 175 935 q 404 893 344 935 q 463 784 463 852 q 376 660 463 694 q 481 528 481 623 q 420 409 481 456 q 256 362 358 362 q 99 408 161 362 q 20 516 37 453 l 129 541 q 254 448 158 448 q 335 472 305 448 q 364 528 364 495 q 338 587 364 562 q 260 612 313 612 l 184 612 m 313 0 l 884 926 l 975 926 l 403 0 l 313 0 m 1095 0 l 979 0 l 979 124 l 720 124 l 720 202 l 981 567 l 1095 567 l 1095 218 l 1183 218 l 1183 124 l 1095 124 l 1095 0 m 992 451 l 829 210 l 986 210 l 986 336 q 992 451 986 378 z "},"₣":{"ha":705,"x_min":20,"x_max":688,"o":"m 102 138 l 20 138 l 20 268 l 102 268 l 102 926 l 688 926 l 688 783 l 273 783 l 273 530 l 600 530 l 600 391 l 273 391 l 273 268 l 439 268 l 439 138 l 273 138 l 273 0 l 102 0 l 102 138 z "},"Ğ":{"ha":892,"x_min":54,"x_max":804,"o":"m 804 473 l 804 0 l 730 0 l 680 125 q 429 -14 599 -14 q 147 130 240 -14 q 54 463 54 273 q 158 801 54 663 q 449 940 262 940 q 679 859 589 940 q 793 657 769 778 l 648 631 q 453 801 607 801 q 293 721 355 801 q 231 475 231 641 q 450 124 231 124 q 592 183 536 124 q 648 339 648 242 l 456 339 l 456 473 l 804 473 m 251 1198 l 340 1198 q 458 1108 352 1108 q 574 1198 562 1108 l 663 1198 q 603 1066 659 1120 q 455 1012 547 1012 q 311 1063 368 1012 q 251 1198 254 1114 z "},"ğ":{"ha":720,"x_min":31,"x_max":718,"o":"m 718 816 l 718 697 l 670 697 q 615 690 639 697 q 570 642 592 682 q 651 494 651 575 q 575 343 651 403 q 373 283 498 283 q 246 301 319 283 q 199 234 199 279 q 222 188 199 209 q 292 167 245 167 l 495 167 q 659 113 600 167 q 718 -21 718 59 q 628 -182 718 -118 q 362 -245 538 -245 q 31 -60 31 -245 q 130 79 31 31 q 66 192 66 133 q 176 334 66 281 q 81 493 81 392 q 151 639 81 578 q 363 699 220 699 q 495 685 428 699 q 660 816 526 816 l 718 816 m 366 375 q 492 494 492 375 q 461 570 492 539 q 369 602 429 602 q 274 569 308 602 q 241 488 241 536 q 274 406 241 437 q 366 375 307 375 m 197 37 q 163 -22 163 7 q 219 -104 163 -68 q 396 -140 275 -140 q 574 -48 574 -140 q 543 3 574 -14 q 472 20 512 20 l 308 20 q 197 37 261 20 m 155 1021 l 243 1021 q 362 931 256 931 q 477 1021 465 931 l 566 1021 q 507 889 563 943 q 359 835 450 835 q 214 886 271 835 q 155 1021 157 937 z "},"İ":{"ha":370,"x_min":102,"x_max":269,"o":"m 269 0 l 102 0 l 102 926 l 269 926 l 269 0 m 184 1025 q 130 1047 151 1025 q 109 1098 109 1068 q 130 1151 109 1128 q 184 1173 151 1173 q 238 1153 215 1173 q 261 1099 261 1133 q 238 1045 261 1065 q 184 1025 216 1025 z "},"Ş":{"ha":793,"x_min":5,"x_max":752,"o":"m 372 -14 l 355 -68 q 511 -177 511 -68 q 473 -259 511 -225 q 371 -293 435 -293 q 218 -252 307 -293 l 241 -196 q 353 -231 319 -231 q 416 -181 416 -231 q 313 -121 416 -121 q 275 -123 302 -121 l 311 -10 q 5 223 59 24 l 167 258 q 391 120 196 120 q 527 155 479 120 q 575 243 575 191 q 553 313 575 281 q 460 363 532 345 l 283 410 q 149 464 193 433 q 80 549 106 494 q 54 666 54 604 q 146 865 54 790 q 382 940 238 940 q 595 888 501 940 q 715 740 689 836 l 556 701 q 385 806 519 806 q 266 773 307 806 q 225 690 225 741 q 354 579 225 611 l 511 540 q 703 434 654 504 q 752 279 752 363 q 652 66 752 146 q 372 -14 551 -14 z "},"ş":{"ha":631,"x_min":9,"x_max":598,"o":"m 298 -14 l 284 -63 q 391 -94 353 -63 q 429 -171 429 -125 q 393 -249 429 -215 q 298 -282 356 -282 q 161 -242 248 -282 l 182 -189 q 287 -221 241 -221 q 326 -208 311 -221 q 342 -175 342 -194 q 239 -117 342 -117 q 208 -118 228 -117 l 243 -11 q 9 157 49 14 l 155 185 q 301 102 188 102 q 445 186 445 102 q 422 231 445 214 q 370 255 400 249 l 245 279 q 37 481 37 319 q 103 636 37 572 q 299 699 169 699 q 564 540 516 699 l 427 512 q 303 589 405 589 q 180 512 180 589 q 279 438 180 458 l 427 408 q 598 211 598 372 q 512 42 598 99 q 298 -14 425 -14 z "},"Ć":{"ha":804,"x_min":53,"x_max":774,"o":"m 619 321 l 774 304 q 666 76 759 165 q 423 -14 574 -14 q 217 50 296 -14 q 96 222 138 113 q 53 463 53 332 q 153 807 53 675 q 429 940 254 940 q 659 855 567 940 q 774 612 750 770 l 619 596 q 431 806 576 806 q 285 719 337 806 q 233 466 233 631 q 289 212 233 298 q 436 126 345 126 q 561 184 509 126 q 619 321 612 241 m 605 1221 l 650 1119 l 367 1000 l 338 1072 l 605 1221 z "},"ć":{"ha":647,"x_min":49,"x_max":621,"o":"m 488 252 l 621 238 q 522 47 595 109 q 343 -14 448 -14 q 125 89 201 -14 q 49 342 49 193 q 132 598 49 497 q 355 699 216 699 q 621 463 578 699 l 488 445 q 363 572 471 572 q 249 504 284 572 q 213 337 213 435 q 250 177 213 233 q 353 121 287 121 q 488 252 455 121 m 525 1008 l 570 907 l 287 787 l 258 860 l 525 1008 z "},"Č":{"ha":804,"x_min":53,"x_max":774,"o":"m 619 321 l 774 304 q 666 76 759 165 q 423 -14 574 -14 q 217 50 296 -14 q 96 222 138 113 q 53 463 53 332 q 153 807 53 675 q 429 940 254 940 q 659 855 567 940 q 774 612 750 770 l 619 596 q 431 806 576 806 q 285 719 337 806 q 233 466 233 631 q 289 212 233 298 q 436 126 345 126 q 561 184 509 126 q 619 321 612 241 m 437 996 l 201 1191 l 323 1204 l 437 1116 l 550 1204 l 672 1191 l 437 996 z "},"č":{"ha":647,"x_min":49,"x_max":621,"o":"m 488 252 l 621 238 q 522 47 595 109 q 343 -14 448 -14 q 125 89 201 -14 q 49 342 49 193 q 132 598 49 497 q 355 699 216 699 q 621 463 578 699 l 488 445 q 363 572 471 572 q 249 504 284 572 q 213 337 213 435 q 250 177 213 233 q 353 121 287 121 q 488 252 455 121 m 363 783 l 127 978 l 250 991 l 363 903 l 476 991 l 598 978 l 363 783 z "},"đ":{"ha":748,"x_min":49,"x_max":749,"o":"m 501 926 l 656 926 l 656 847 l 749 847 l 749 764 l 656 764 l 656 0 l 511 0 l 511 138 q 309 -14 452 -14 q 116 91 183 -14 q 49 352 49 196 q 119 605 49 497 q 317 713 189 713 q 501 592 450 713 l 501 764 l 316 764 l 316 847 l 501 847 l 501 926 m 501 404 q 458 538 501 496 q 359 581 414 581 q 252 521 290 581 q 213 342 213 461 q 356 113 213 113 q 457 162 414 113 q 501 288 501 212 l 501 404 z "},"­":{"ha":334,"x_min":-3,"x_max":337,"o":"m 337 416 l 337 289 l -3 289 l -3 416 l 337 416 z "},"¯":{"ha":694,"x_min":0,"x_max":694,"o":"m 0 1228 l 694 1228 l 694 1086 l 0 1086 l 0 1228 z "},"·":{"ha":168,"x_min":0,"x_max":168,"o":"m 168 441 l 168 264 l 0 264 l 0 441 l 168 441 z "},"Ā":{"ha":838,"x_min":5,"x_max":828,"o":"m 828 0 l 650 0 l 576 220 l 220 220 l 147 0 l 5 0 l 312 926 l 517 926 l 828 0 m 531 354 l 396 767 l 261 354 l 531 354 m 621 1139 l 621 1051 l 212 1051 l 212 1139 l 621 1139 z "},"ā":{"ha":751,"x_min":50,"x_max":679,"o":"m 679 0 l 532 0 q 508 138 512 62 q 276 -14 446 -14 q 112 46 174 -14 q 50 197 50 106 q 464 433 50 433 q 508 432 480 433 l 508 484 q 363 590 508 590 q 203 484 222 590 l 71 503 q 159 644 82 589 q 383 699 237 699 q 513 686 463 699 q 597 641 563 673 q 645 573 632 610 q 659 448 659 536 l 659 138 q 679 0 659 71 m 508 349 q 208 205 208 349 q 238 133 208 163 q 330 102 269 102 q 463 158 418 102 q 508 286 508 214 l 508 349 m 587 917 l 587 829 l 179 829 l 179 917 l 587 917 z "},"Ă":{"ha":838,"x_min":5,"x_max":828,"o":"m 828 0 l 650 0 l 576 220 l 220 220 l 147 0 l 5 0 l 312 926 l 517 926 l 828 0 m 531 354 l 396 767 l 261 354 l 531 354 m 210 1198 l 299 1198 q 418 1108 311 1108 q 533 1198 521 1108 l 622 1198 q 562 1066 618 1120 q 414 1012 506 1012 q 270 1063 327 1012 q 210 1198 213 1114 z "},"ă":{"ha":751,"x_min":50,"x_max":679,"o":"m 679 0 l 532 0 q 508 138 512 62 q 276 -14 446 -14 q 112 46 174 -14 q 50 197 50 106 q 464 433 50 433 q 508 432 480 433 l 508 484 q 363 590 508 590 q 203 484 222 590 l 71 503 q 159 644 82 589 q 383 699 237 699 q 513 686 463 699 q 597 641 563 673 q 645 573 632 610 q 659 448 659 536 l 659 138 q 679 0 659 71 m 508 349 q 208 205 208 349 q 238 133 208 163 q 330 102 269 102 q 463 158 418 102 q 508 286 508 214 l 508 349 m 177 987 l 266 987 q 385 897 278 897 q 500 987 488 897 l 589 987 q 529 855 585 909 q 381 801 473 801 q 237 852 294 801 q 177 987 180 903 z "},"Ą":{"ha":838,"x_min":5,"x_max":888,"o":"m 576 220 l 220 220 l 147 0 l 5 0 l 312 926 l 517 926 l 828 0 q 727 -111 727 -52 q 811 -177 727 -177 q 873 -164 842 -177 l 888 -219 q 775 -243 833 -243 q 669 -215 708 -243 q 630 -134 630 -186 q 749 0 630 -45 l 650 0 l 576 220 m 531 354 l 396 767 l 261 354 l 531 354 z "},"ą":{"ha":751,"x_min":50,"x_max":729,"o":"m 532 0 q 508 138 512 62 q 276 -14 446 -14 q 112 46 174 -14 q 50 197 50 106 q 464 433 50 433 q 508 432 480 433 l 508 484 q 363 590 508 590 q 203 484 222 590 l 71 503 q 159 644 82 589 q 383 699 237 699 q 513 686 463 699 q 597 641 563 673 q 645 573 632 610 q 659 448 659 536 l 659 138 q 679 0 659 71 q 582 -110 582 -52 q 601 -155 582 -138 q 655 -172 621 -172 q 715 -160 682 -172 l 729 -210 q 621 -233 677 -233 q 523 -204 559 -233 q 486 -130 486 -175 q 604 0 486 -49 l 532 0 m 508 349 q 208 205 208 349 q 238 133 208 163 q 330 102 269 102 q 463 158 418 102 q 508 286 508 214 l 508 349 z "},"Ĉ":{"ha":804,"x_min":53,"x_max":774,"o":"m 619 321 l 774 304 q 666 76 759 165 q 423 -14 574 -14 q 217 50 296 -14 q 96 222 138 113 q 53 463 53 332 q 153 807 53 675 q 429 940 254 940 q 659 855 567 940 q 774 612 750 770 l 619 596 q 431 806 576 806 q 285 719 337 806 q 233 466 233 631 q 289 212 233 298 q 436 126 345 126 q 561 184 509 126 q 619 321 612 241 m 437 1214 l 672 1019 l 550 1004 l 437 1094 l 323 1004 l 201 1019 l 437 1214 z "},"ĉ":{"ha":647,"x_min":49,"x_max":621,"o":"m 488 252 l 621 238 q 522 47 595 109 q 343 -14 448 -14 q 125 89 201 -14 q 49 342 49 193 q 132 598 49 497 q 355 699 216 699 q 621 463 578 699 l 488 445 q 363 572 471 572 q 249 504 284 572 q 213 337 213 435 q 250 177 213 233 q 353 121 287 121 q 488 252 455 121 m 359 1001 l 594 806 l 472 791 l 359 881 l 245 791 l 123 806 l 359 1001 z "},"Ċ":{"ha":804,"x_min":53,"x_max":774,"o":"m 619 321 l 774 304 q 666 76 759 165 q 423 -14 574 -14 q 217 50 296 -14 q 96 222 138 113 q 53 463 53 332 q 153 807 53 675 q 429 940 254 940 q 659 855 567 940 q 774 612 750 770 l 619 596 q 431 806 576 806 q 285 719 337 806 q 233 466 233 631 q 289 212 233 298 q 436 126 345 126 q 561 184 509 126 q 619 321 612 241 m 435 1025 q 381 1047 403 1025 q 360 1098 360 1068 q 381 1151 360 1128 q 435 1173 402 1173 q 490 1153 467 1173 q 513 1099 513 1133 q 490 1045 513 1065 q 435 1025 467 1025 z "},"ċ":{"ha":647,"x_min":49,"x_max":621,"o":"m 488 252 l 621 238 q 522 47 595 109 q 343 -14 448 -14 q 125 89 201 -14 q 49 342 49 193 q 132 598 49 497 q 355 699 216 699 q 621 463 578 699 l 488 445 q 363 572 471 572 q 249 504 284 572 q 213 337 213 435 q 250 177 213 233 q 353 121 287 121 q 488 252 455 121 m 362 806 q 308 827 330 806 q 287 878 287 848 q 308 931 287 908 q 362 954 329 954 q 416 933 393 954 q 439 879 439 913 q 417 825 439 845 q 362 806 394 806 z "},"Ď":{"ha":909,"x_min":97,"x_max":857,"o":"m 97 0 l 97 926 l 438 926 q 742 792 627 926 q 857 461 857 658 q 739 132 857 264 q 401 0 621 0 l 97 0 m 269 136 l 408 136 q 597 220 519 136 q 675 471 675 304 q 607 700 675 606 q 427 794 539 794 l 269 794 l 269 136 m 410 996 l 174 1191 l 297 1204 l 410 1116 l 524 1204 l 646 1191 l 410 996 z "},"ď":{"ha":897,"x_min":49,"x_max":897,"o":"m 656 0 l 511 0 l 511 138 q 309 -14 452 -14 q 116 91 183 -14 q 49 352 49 196 q 119 605 49 497 q 317 713 189 713 q 501 592 450 713 l 501 926 l 656 926 l 656 0 m 501 404 q 461 534 501 488 q 359 581 422 581 q 252 521 290 581 q 213 342 213 461 q 357 113 213 113 q 457 162 414 113 q 501 288 501 212 l 501 404 m 897 926 l 778 656 l 716 656 l 758 926 l 897 926 z "},"Đ":{"ha":909,"x_min":5,"x_max":857,"o":"m 5 408 l 5 537 l 98 537 l 98 926 l 439 926 q 742 792 628 926 q 857 461 857 659 q 739 133 857 265 q 401 0 621 0 l 98 0 l 98 408 l 5 408 m 269 408 l 269 136 l 408 136 q 598 221 520 136 q 676 471 676 305 q 608 700 676 606 q 428 794 539 794 l 269 794 l 269 537 l 497 537 l 497 408 l 269 408 z "},"Ē":{"ha":745,"x_min":102,"x_max":703,"o":"m 703 0 l 102 0 l 102 926 l 697 926 l 697 788 l 269 788 l 269 537 l 613 537 l 613 403 l 269 403 l 269 144 l 703 144 l 703 0 m 611 1139 l 611 1051 l 203 1051 l 203 1139 l 611 1139 z "},"ē":{"ha":728,"x_min":49,"x_max":680,"o":"m 528 218 l 668 199 q 562 46 641 106 q 365 -14 484 -14 q 136 81 222 -14 q 49 340 49 177 q 136 597 49 496 q 374 699 224 699 q 600 599 520 699 q 680 341 680 498 l 680 323 l 210 323 q 223 212 210 254 q 275 138 236 170 q 374 107 315 107 q 528 218 488 107 m 519 423 q 474 544 518 497 q 366 591 431 591 q 260 547 302 591 q 210 423 217 503 l 519 423 m 587 917 l 587 829 l 179 829 l 179 917 l 587 917 z "},"Ĕ":{"ha":745,"x_min":102,"x_max":703,"o":"m 703 0 l 102 0 l 102 926 l 697 926 l 697 788 l 269 788 l 269 537 l 613 537 l 613 403 l 269 403 l 269 144 l 703 144 l 703 0 m 201 1198 l 290 1198 q 409 1108 302 1108 q 524 1198 512 1108 l 613 1198 q 553 1066 610 1120 q 406 1012 497 1012 q 261 1063 318 1012 q 201 1198 204 1114 z "},"ĕ":{"ha":728,"x_min":49,"x_max":680,"o":"m 528 218 l 668 199 q 562 46 641 106 q 365 -14 484 -14 q 136 81 222 -14 q 49 340 49 177 q 136 597 49 496 q 374 699 224 699 q 600 599 520 699 q 680 341 680 498 l 680 323 l 210 323 q 223 212 210 254 q 275 138 236 170 q 374 107 315 107 q 528 218 488 107 m 519 423 q 474 544 518 497 q 366 591 431 591 q 260 547 302 591 q 210 423 217 503 l 519 423 m 177 987 l 266 987 q 385 897 278 897 q 500 987 488 897 l 589 987 q 529 855 585 909 q 381 801 473 801 q 237 852 294 801 q 177 987 180 903 z "},"Ė":{"ha":745,"x_min":102,"x_max":703,"o":"m 703 0 l 102 0 l 102 926 l 697 926 l 697 788 l 269 788 l 269 537 l 613 537 l 613 403 l 269 403 l 269 144 l 703 144 l 703 0 m 406 1025 q 352 1047 374 1025 q 331 1098 331 1068 q 352 1151 331 1128 q 406 1173 373 1173 q 460 1153 437 1173 q 484 1099 484 1133 q 461 1045 484 1065 q 406 1025 438 1025 z "},"ė":{"ha":728,"x_min":49,"x_max":680,"o":"m 528 218 l 668 199 q 562 46 641 106 q 365 -14 484 -14 q 136 81 222 -14 q 49 340 49 177 q 136 597 49 496 q 374 699 224 699 q 600 599 520 699 q 680 341 680 498 l 680 323 l 210 323 q 223 212 210 254 q 275 138 236 170 q 374 107 315 107 q 528 218 488 107 m 519 423 q 474 544 518 497 q 366 591 431 591 q 260 547 302 591 q 210 423 217 503 l 519 423 m 382 806 q 328 827 349 806 q 307 878 307 848 q 328 931 307 908 q 382 954 349 954 q 436 933 413 954 q 459 879 459 913 q 436 825 459 845 q 382 806 414 806 z "},"Ę":{"ha":745,"x_min":102,"x_max":763,"o":"m 102 0 l 102 926 l 697 926 l 697 788 l 269 788 l 269 537 l 613 537 l 613 403 l 269 403 l 269 144 l 703 144 l 703 0 q 603 -111 603 -52 q 686 -177 603 -177 q 749 -164 717 -177 l 763 -219 q 651 -243 709 -243 q 546 -215 586 -243 q 505 -134 505 -186 q 625 0 505 -45 l 102 0 z "},"ę":{"ha":728,"x_min":49,"x_max":680,"o":"m 578 -155 l 593 -205 q 484 -229 542 -229 q 387 -200 424 -229 q 349 -125 349 -171 q 443 -7 349 -55 q 363 -14 397 -14 q 132 85 216 -14 q 49 340 49 184 q 136 597 49 496 q 374 699 224 699 q 600 599 520 699 q 680 341 680 498 l 680 323 l 210 323 q 223 212 210 254 q 275 138 236 170 q 374 107 315 107 q 528 218 488 107 l 668 199 q 534 22 644 111 q 445 -107 445 -50 q 464 -150 445 -132 q 518 -168 484 -168 q 578 -155 545 -168 m 519 423 q 474 544 518 497 q 366 591 431 591 q 260 547 302 591 q 210 423 217 503 l 519 423 z "},"Ě":{"ha":745,"x_min":102,"x_max":703,"o":"m 703 0 l 102 0 l 102 926 l 697 926 l 697 788 l 269 788 l 269 537 l 613 537 l 613 403 l 269 403 l 269 144 l 703 144 l 703 0 m 408 996 l 172 1191 l 294 1204 l 408 1116 l 521 1204 l 643 1191 l 408 996 z "},"ě":{"ha":728,"x_min":49,"x_max":680,"o":"m 528 218 l 668 199 q 562 46 641 106 q 365 -14 484 -14 q 136 81 222 -14 q 49 340 49 177 q 136 597 49 496 q 374 699 224 699 q 600 599 520 699 q 680 341 680 498 l 680 323 l 210 323 q 223 212 210 254 q 275 138 236 170 q 374 107 315 107 q 528 218 488 107 m 519 423 q 474 544 518 497 q 366 591 431 591 q 260 547 302 591 q 210 423 217 503 l 519 423 m 383 783 l 147 978 l 270 991 l 383 903 l 496 991 l 618 978 l 383 783 z "},"Ĝ":{"ha":892,"x_min":54,"x_max":804,"o":"m 804 473 l 804 0 l 730 0 l 680 125 q 429 -14 599 -14 q 147 130 240 -14 q 54 463 54 273 q 158 801 54 663 q 449 940 262 940 q 679 859 589 940 q 793 657 769 778 l 648 631 q 453 801 607 801 q 293 721 355 801 q 231 475 231 641 q 450 124 231 124 q 592 183 536 124 q 648 339 648 242 l 456 339 l 456 473 l 804 473 m 462 1214 l 697 1019 l 575 1004 l 462 1094 l 349 1004 l 226 1019 l 462 1214 z "},"ĝ":{"ha":720,"x_min":31,"x_max":718,"o":"m 718 816 l 718 697 l 670 697 q 615 690 639 697 q 570 642 592 682 q 651 494 651 575 q 575 343 651 403 q 373 283 498 283 q 246 301 319 283 q 199 234 199 279 q 222 188 199 209 q 292 167 245 167 l 495 167 q 659 113 600 167 q 718 -21 718 59 q 628 -182 718 -118 q 362 -245 538 -245 q 31 -60 31 -245 q 130 79 31 31 q 66 192 66 133 q 176 334 66 281 q 81 493 81 392 q 151 639 81 578 q 363 699 220 699 q 495 685 428 699 q 660 816 526 816 l 718 816 m 366 375 q 492 494 492 375 q 461 570 492 539 q 369 602 429 602 q 274 569 308 602 q 241 488 241 536 q 274 406 241 437 q 366 375 307 375 m 197 37 q 163 -22 163 7 q 219 -104 163 -68 q 396 -140 275 -140 q 574 -48 574 -140 q 543 3 574 -14 q 472 20 512 20 l 308 20 q 197 37 261 20 m 388 1061 l 623 865 l 501 851 l 388 941 l 275 851 l 152 865 l 388 1061 z "},"Ġ":{"ha":892,"x_min":54,"x_max":804,"o":"m 804 473 l 804 0 l 730 0 l 680 125 q 429 -14 599 -14 q 147 130 240 -14 q 54 463 54 273 q 158 801 54 663 q 449 940 262 940 q 679 859 589 940 q 793 657 769 778 l 648 631 q 453 801 607 801 q 293 721 355 801 q 231 475 231 641 q 450 124 231 124 q 592 183 536 124 q 648 339 648 242 l 456 339 l 456 473 l 804 473 m 458 1025 q 404 1047 425 1025 q 382 1098 382 1068 q 404 1151 382 1128 q 458 1173 425 1173 q 512 1153 489 1173 q 535 1099 535 1133 q 512 1045 535 1065 q 458 1025 490 1025 z "},"ġ":{"ha":720,"x_min":31,"x_max":718,"o":"m 718 816 l 718 697 l 670 697 q 615 690 639 697 q 570 642 592 682 q 651 494 651 575 q 575 343 651 403 q 373 283 498 283 q 246 301 319 283 q 199 234 199 279 q 222 188 199 209 q 292 167 245 167 l 495 167 q 659 113 600 167 q 718 -21 718 59 q 628 -182 718 -118 q 362 -245 538 -245 q 31 -60 31 -245 q 130 79 31 31 q 66 192 66 133 q 176 334 66 281 q 81 493 81 392 q 151 639 81 578 q 363 699 220 699 q 495 685 428 699 q 660 816 526 816 l 718 816 m 366 375 q 492 494 492 375 q 461 570 492 539 q 369 602 429 602 q 274 569 308 602 q 241 488 241 536 q 274 406 241 437 q 366 375 307 375 m 197 37 q 163 -22 163 7 q 219 -104 163 -68 q 396 -140 275 -140 q 574 -48 574 -140 q 543 3 574 -14 q 472 20 512 20 l 308 20 q 197 37 261 20 m 359 806 q 305 827 326 806 q 283 878 283 848 q 304 931 283 908 q 359 954 326 954 q 413 933 390 954 q 436 879 436 913 q 413 825 436 845 q 359 806 391 806 z "},"Ģ":{"ha":892,"x_min":54,"x_max":804,"o":"m 804 473 l 804 0 l 730 0 l 680 125 q 429 -14 599 -14 q 147 130 240 -14 q 54 463 54 273 q 158 801 54 663 q 449 940 262 940 q 679 859 589 940 q 793 657 769 778 l 648 631 q 453 801 607 801 q 293 721 355 801 q 231 475 231 641 q 450 124 231 124 q 592 183 536 124 q 648 339 648 242 l 456 339 l 456 473 l 804 473 m 526 -74 l 407 -325 l 345 -325 l 387 -74 l 526 -74 z "},"ģ":{"ha":720,"x_min":31,"x_max":718,"o":"m 718 816 l 718 697 l 670 697 q 615 690 639 697 q 570 642 592 682 q 651 494 651 575 q 575 343 651 403 q 373 283 498 283 q 246 301 319 283 q 199 234 199 279 q 222 188 199 209 q 292 167 245 167 l 495 167 q 659 113 600 167 q 718 -21 718 59 q 628 -182 718 -118 q 362 -245 538 -245 q 31 -60 31 -245 q 130 79 31 31 q 66 192 66 133 q 176 334 66 281 q 81 493 81 392 q 151 639 81 578 q 363 699 220 699 q 495 685 428 699 q 660 816 526 816 l 718 816 m 366 375 q 492 494 492 375 q 461 570 492 539 q 369 602 429 602 q 274 569 308 602 q 241 488 241 536 q 274 406 241 437 q 366 375 307 375 m 197 37 q 163 -22 163 7 q 219 -104 163 -68 q 396 -140 275 -140 q 574 -48 574 -140 q 543 3 574 -14 q 472 20 512 20 l 308 20 q 197 37 261 20 m 276 805 l 395 1074 l 457 1074 l 415 805 l 276 805 z "},"Ĥ":{"ha":890,"x_min":102,"x_max":789,"o":"m 789 0 l 622 0 l 622 402 l 269 402 l 269 0 l 102 0 l 102 926 l 269 926 l 269 545 l 622 545 l 622 926 l 789 926 l 789 0 m 446 1214 l 681 1019 l 559 1004 l 446 1094 l 332 1004 l 210 1019 l 446 1214 z "},"ĥ":{"ha":753,"x_min":-59,"x_max":660,"o":"m 660 0 l 505 0 l 505 448 q 474 550 505 521 q 402 580 444 580 q 292 528 336 580 q 247 355 247 475 l 247 0 l 92 0 l 92 926 l 247 926 l 247 565 q 449 713 304 713 q 660 471 660 713 l 660 0 m 177 1214 l 412 1019 l 290 1004 l 177 1094 l 64 1004 l -59 1019 l 177 1214 z "},"Ħ":{"ha":890,"x_min":9,"x_max":882,"o":"m 9 669 l 9 800 l 102 800 l 102 926 l 269 926 l 269 800 l 623 800 l 623 926 l 789 926 l 789 800 l 882 800 l 882 669 l 789 669 l 789 0 l 623 0 l 623 402 l 269 402 l 269 0 l 102 0 l 102 669 l 9 669 m 269 669 l 269 545 l 623 545 l 623 669 l 269 669 z "},"ħ":{"ha":753,"x_min":0,"x_max":660,"o":"m 0 764 l 0 847 l 93 847 l 93 926 l 248 926 l 248 847 l 441 847 l 441 764 l 248 764 l 248 565 q 449 713 304 713 q 660 471 660 713 l 660 0 l 505 0 l 505 448 q 474 550 505 521 q 402 580 444 580 q 292 528 336 580 q 248 355 248 475 l 248 0 l 93 0 l 93 764 l 0 764 z "},"Ĩ":{"ha":370,"x_min":-45,"x_max":397,"o":"m 269 0 l 102 0 l 102 926 l 269 926 l 269 0 m 349 1177 l 397 1107 q 337 1050 380 1073 q 260 1027 294 1027 q 157 1059 218 1027 q 87 1084 110 1084 q 2 1031 56 1084 l -45 1101 q 92 1179 18 1179 q 183 1152 127 1179 q 274 1124 244 1124 q 349 1177 315 1124 z "},"ĩ":{"ha":340,"x_min":-51,"x_max":391,"o":"m 247 0 l 92 0 l 92 685 l 247 685 l 247 0 m 343 964 l 391 894 q 331 837 374 860 q 254 814 288 814 q 151 846 212 814 q 81 871 104 871 q -4 818 50 871 l -51 888 q 85 966 12 966 q 177 939 121 966 q 268 911 238 911 q 343 964 309 911 z "},"Ī":{"ha":370,"x_min":18,"x_max":427,"o":"m 269 0 l 102 0 l 102 926 l 269 926 l 269 0 m 427 1139 l 427 1051 l 18 1051 l 18 1139 l 427 1139 z "},"ī":{"ha":340,"x_min":7,"x_max":416,"o":"m 247 0 l 92 0 l 92 685 l 247 685 l 247 0 m 416 917 l 416 829 l 7 829 l 7 917 l 416 917 z "},"Ĭ":{"ha":370,"x_min":-9,"x_max":403,"o":"m 269 0 l 102 0 l 102 926 l 269 926 l 269 0 m -9 1209 l 80 1209 q 199 1120 92 1120 q 314 1209 302 1120 l 403 1209 q 343 1077 399 1131 q 195 1023 287 1023 q 51 1074 108 1023 q -9 1209 -6 1125 z "},"ĭ":{"ha":340,"x_min":-13,"x_max":399,"o":"m 247 0 l 92 0 l 92 685 l 247 685 l 247 0 m -13 987 l 76 987 q 195 897 88 897 q 310 987 298 897 l 399 987 q 339 855 395 909 q 191 801 283 801 q 47 852 104 801 q -13 987 -10 903 z "},"Į":{"ha":370,"x_min":85,"x_max":319,"o":"m 269 0 q 182 -111 182 -56 q 202 -158 182 -140 q 254 -176 222 -176 q 305 -164 273 -176 l 319 -219 q 224 -243 266 -243 q 124 -214 163 -243 q 85 -134 85 -184 q 190 0 85 -53 l 102 0 l 102 926 l 269 926 l 269 0 z "},"į":{"ha":340,"x_min":73,"x_max":288,"o":"m 247 765 l 92 765 l 92 926 l 247 926 l 247 765 m 247 0 q 168 -110 168 -59 q 182 -151 168 -132 q 225 -170 197 -170 q 274 -160 245 -170 l 288 -210 q 195 -233 236 -233 q 110 -204 146 -233 q 73 -130 73 -175 q 177 0 73 -58 l 92 0 l 92 685 l 247 685 l 247 0 z "},"Ĳ":{"ha":877,"x_min":102,"x_max":784,"o":"m 269 0 l 102 0 l 102 926 l 269 926 l 269 0 m 784 926 l 784 287 q 713 55 784 123 q 500 -14 642 -14 q 361 0 408 -14 l 361 134 q 467 128 441 128 q 585 162 556 128 q 613 287 613 195 l 613 926 l 784 926 z "},"ĳ":{"ha":675,"x_min":92,"x_max":582,"o":"m 247 765 l 92 765 l 92 926 l 247 926 l 247 765 m 582 765 l 427 765 l 427 926 l 582 926 l 582 765 m 247 0 l 92 0 l 92 685 l 247 685 l 247 0 m 582 685 l 582 11 q 347 -245 582 -245 q 267 -237 311 -245 l 267 -106 q 317 -110 297 -110 q 400 -91 373 -110 q 427 11 427 -73 l 427 685 l 582 685 z "},"Ĵ":{"ha":516,"x_min":0,"x_max":572,"o":"m 423 926 l 423 287 q 354 57 423 127 q 135 -14 286 -14 q 0 0 48 -14 l 0 134 q 107 129 76 129 q 221 160 191 129 q 252 287 252 191 l 252 926 l 423 926 m 337 1214 l 572 1019 l 450 1004 l 337 1094 l 224 1004 l 101 1019 l 337 1214 z "},"ĵ":{"ha":340,"x_min":-68,"x_max":409,"o":"m 173 1001 l 409 806 l 286 791 l 173 881 l 60 791 l -63 806 l 173 1001 m 247 685 l 247 11 q 12 -245 247 -245 q -68 -237 -24 -245 l -68 -106 q -18 -110 -39 -110 q 69 -85 46 -110 q 92 11 92 -61 l 92 685 l 247 685 z "},"Ķ":{"ha":852,"x_min":102,"x_max":829,"o":"m 829 0 l 643 0 l 448 471 l 269 234 l 269 0 l 102 0 l 102 926 l 269 926 l 269 439 q 315 508 300 489 l 622 926 l 791 926 l 571 621 l 829 0 m 519 -74 l 399 -325 l 338 -325 l 379 -74 l 519 -74 z "},"ķ":{"ha":739,"x_min":93,"x_max":730,"o":"m 730 0 l 568 0 l 393 351 l 241 181 l 241 0 l 93 0 l 93 926 l 241 926 l 241 351 q 272 390 260 377 l 543 685 l 709 685 l 503 458 l 730 0 m 475 -74 l 355 -325 l 294 -325 l 335 -74 l 475 -74 z "},"ĸ":{"ha":739,"x_min":93,"x_max":730,"o":"m 730 0 l 568 0 l 393 351 l 241 181 l 241 0 l 93 0 l 93 685 l 241 685 l 241 351 q 272 390 260 377 l 543 685 l 709 685 l 503 458 l 730 0 z "},"Ĺ":{"ha":692,"x_min":98,"x_max":671,"o":"m 671 0 l 102 0 l 102 926 l 277 926 l 277 151 l 671 151 l 671 0 m 364 1221 l 409 1119 l 126 1000 l 98 1072 l 364 1221 z "},"ĺ":{"ha":340,"x_min":69,"x_max":380,"o":"m 247 0 l 92 0 l 92 926 l 247 926 l 247 0 m 336 1221 l 380 1119 l 98 1000 l 69 1072 l 336 1221 z "},"Ļ":{"ha":692,"x_min":102,"x_max":671,"o":"m 671 0 l 102 0 l 102 926 l 277 926 l 277 151 l 671 151 l 671 0 m 473 -74 l 353 -325 l 292 -325 l 333 -74 l 473 -74 z "},"ļ":{"ha":340,"x_min":65,"x_max":247,"o":"m 247 0 l 92 0 l 92 926 l 247 926 l 247 0 m 246 -74 l 127 -325 l 65 -325 l 106 -74 l 246 -74 z "},"Ľ":{"ha":692,"x_min":102,"x_max":671,"o":"m 671 0 l 102 0 l 102 926 l 277 926 l 277 151 l 671 151 l 671 0 m 561 958 l 561 806 l 457 624 l 407 624 l 481 806 l 407 806 l 407 958 l 561 958 z "},"ľ":{"ha":488,"x_min":92,"x_max":488,"o":"m 247 0 l 92 0 l 92 926 l 247 926 l 247 0 m 488 926 l 369 656 l 307 656 l 349 926 l 488 926 z "},"Ŀ":{"ha":692,"x_min":102,"x_max":671,"o":"m 671 0 l 102 0 l 102 926 l 277 926 l 277 151 l 671 151 l 671 0 m 619 564 l 619 386 l 452 386 l 452 564 l 619 564 z "},"ŀ":{"ha":499,"x_min":92,"x_max":504,"o":"m 247 0 l 92 0 l 92 926 l 247 926 l 247 0 m 504 564 l 504 386 l 336 386 l 336 564 l 504 564 z "},"Ń":{"ha":903,"x_min":102,"x_max":801,"o":"m 801 0 l 639 0 l 288 591 q 261 635 279 605 q 236 678 253 649 l 236 0 l 102 0 l 102 926 l 286 926 l 610 380 q 669 281 614 374 l 669 926 l 801 926 l 801 0 m 629 1221 l 673 1119 l 391 1000 l 362 1072 l 629 1221 z "},"ń":{"ha":752,"x_min":93,"x_max":660,"o":"m 660 0 l 505 0 l 505 428 q 474 530 505 496 q 399 564 443 564 q 293 511 338 564 q 248 352 248 458 l 248 0 l 93 0 l 93 685 l 234 685 l 234 526 q 441 699 308 699 q 596 642 532 699 q 660 442 660 585 l 660 0 m 534 1008 l 579 907 l 296 787 l 268 860 l 534 1008 z "},"Ņ":{"ha":903,"x_min":102,"x_max":801,"o":"m 801 0 l 639 0 l 288 591 q 261 635 279 605 q 236 678 253 649 l 236 0 l 102 0 l 102 926 l 286 926 l 610 380 q 669 281 614 374 l 669 926 l 801 926 l 801 0 m 524 -74 l 404 -325 l 342 -325 l 384 -74 l 524 -74 z "},"ņ":{"ha":752,"x_min":93,"x_max":660,"o":"m 660 0 l 505 0 l 505 428 q 474 530 505 496 q 399 564 443 564 q 293 511 338 564 q 248 352 248 458 l 248 0 l 93 0 l 93 685 l 234 685 l 234 526 q 441 699 308 699 q 596 642 532 699 q 660 442 660 585 l 660 0 m 458 -74 l 338 -325 l 277 -325 l 318 -74 l 458 -74 z "},"Ň":{"ha":903,"x_min":102,"x_max":801,"o":"m 801 0 l 639 0 l 288 591 q 261 635 279 605 q 236 678 253 649 l 236 0 l 102 0 l 102 926 l 286 926 l 610 380 q 669 281 614 374 l 669 926 l 801 926 l 801 0 m 452 996 l 216 1191 l 338 1204 l 452 1116 l 565 1204 l 687 1191 l 452 996 z "},"ň":{"ha":752,"x_min":93,"x_max":660,"o":"m 660 0 l 505 0 l 505 428 q 474 530 505 496 q 399 564 443 564 q 293 511 338 564 q 248 352 248 458 l 248 0 l 93 0 l 93 685 l 234 685 l 234 526 q 441 699 308 699 q 596 642 532 699 q 660 442 660 585 l 660 0 m 380 783 l 144 978 l 267 991 l 380 903 l 494 991 l 616 978 l 380 783 z "},"ŉ":{"ha":961,"x_min":88,"x_max":869,"o":"m 869 0 l 714 0 l 714 428 q 683 530 714 496 q 608 564 652 564 q 502 511 547 564 q 456 352 456 458 l 456 0 l 302 0 l 302 685 l 443 685 l 443 526 q 650 699 517 699 q 805 642 741 699 q 869 442 869 585 l 869 0 m 242 926 l 242 773 l 138 591 l 88 591 l 163 773 l 88 773 l 88 926 l 242 926 z "},"Ŋ":{"ha":890,"x_min":102,"x_max":789,"o":"m 102 0 l 102 926 l 250 926 l 250 767 q 509 940 343 940 q 702 870 616 940 q 789 597 789 800 l 789 70 q 762 -115 789 -48 q 667 -227 736 -182 q 492 -271 597 -271 q 399 -258 442 -271 l 399 -132 q 471 -141 440 -141 q 589 -106 557 -141 q 622 33 622 -72 l 622 622 q 579 760 622 713 q 476 806 536 806 q 331 734 393 806 q 269 519 269 663 l 269 0 l 102 0 z "},"ŋ":{"ha":752,"x_min":93,"x_max":660,"o":"m 93 0 l 93 685 l 234 685 l 234 526 q 441 699 308 699 q 596 642 532 699 q 660 442 660 585 l 660 -18 q 424 -275 660 -275 q 345 -267 389 -275 l 345 -136 q 394 -139 374 -139 q 482 -115 458 -139 q 505 -18 505 -90 l 505 428 q 474 530 505 496 q 399 564 443 564 q 293 511 338 564 q 248 352 248 458 l 248 0 l 93 0 z "},"Ō":{"ha":894,"x_min":53,"x_max":840,"o":"m 443 -14 q 156 124 258 -14 q 53 466 53 262 q 162 804 53 668 q 450 940 271 940 q 735 804 631 940 q 840 464 840 668 q 731 118 840 250 q 443 -14 623 -14 m 444 120 q 597 195 534 120 q 659 465 659 269 q 608 715 659 625 q 448 806 556 806 q 233 460 233 806 q 288 207 233 293 q 444 120 342 120 m 650 1139 l 650 1051 l 242 1051 l 242 1139 l 650 1139 z "},"ō":{"ha":734,"x_min":49,"x_max":686,"o":"m 361 -14 q 129 95 209 -14 q 49 345 49 204 q 137 598 49 497 q 371 699 226 699 q 597 601 509 699 q 686 345 686 503 q 594 84 686 183 q 361 -14 502 -14 m 366 113 q 522 346 522 113 q 485 512 522 451 q 370 572 448 572 q 252 510 290 572 q 213 343 213 447 q 254 172 213 231 q 366 113 295 113 m 576 917 l 576 829 l 168 829 l 168 917 l 576 917 z "},"Ŏ":{"ha":894,"x_min":53,"x_max":840,"o":"m 443 -14 q 156 124 258 -14 q 53 466 53 262 q 162 804 53 668 q 450 940 271 940 q 735 804 631 940 q 840 464 840 668 q 731 118 840 250 q 443 -14 623 -14 m 444 120 q 597 195 534 120 q 659 465 659 269 q 608 715 659 625 q 448 806 556 806 q 233 460 233 806 q 288 207 233 293 q 444 120 342 120 m 240 1198 l 329 1198 q 448 1108 341 1108 q 563 1198 551 1108 l 652 1198 q 592 1066 648 1120 q 444 1012 536 1012 q 300 1063 357 1012 q 240 1198 243 1114 z "},"ŏ":{"ha":734,"x_min":49,"x_max":686,"o":"m 361 -14 q 129 95 209 -14 q 49 345 49 204 q 137 598 49 497 q 371 699 226 699 q 597 601 509 699 q 686 345 686 503 q 594 84 686 183 q 361 -14 502 -14 m 366 113 q 522 346 522 113 q 485 512 522 451 q 370 572 448 572 q 252 510 290 572 q 213 343 213 447 q 254 172 213 231 q 366 113 295 113 m 161 987 l 250 987 q 369 897 262 897 q 484 987 472 897 l 573 987 q 513 855 570 909 q 366 801 457 801 q 221 852 278 801 q 161 987 164 903 z "},"Ő":{"ha":894,"x_min":53,"x_max":840,"o":"m 443 -14 q 156 124 258 -14 q 53 466 53 262 q 162 804 53 668 q 450 940 271 940 q 735 804 631 940 q 840 464 840 668 q 731 118 840 250 q 443 -14 623 -14 m 444 120 q 597 195 534 120 q 659 465 659 269 q 608 715 659 625 q 448 806 556 806 q 233 460 233 806 q 288 207 233 293 q 444 120 342 120 m 463 1221 l 526 1142 l 304 1000 l 256 1059 l 463 1221 m 694 1221 l 758 1142 l 536 1000 l 495 1059 l 694 1221 z "},"ő":{"ha":734,"x_min":49,"x_max":702,"o":"m 361 -14 q 129 95 209 -14 q 49 345 49 204 q 137 598 49 497 q 371 699 226 699 q 597 601 509 699 q 686 345 686 503 q 594 84 686 183 q 361 -14 502 -14 m 366 113 q 522 346 522 113 q 485 512 522 451 q 370 572 448 572 q 252 510 290 572 q 213 343 213 447 q 254 172 213 231 q 366 113 295 113 m 407 1008 l 470 930 l 248 787 l 199 846 l 407 1008 m 638 1008 l 702 930 l 479 787 l 439 846 l 638 1008 z "},"Ŕ":{"ha":892,"x_min":102,"x_max":828,"o":"m 823 0 l 647 0 l 503 380 l 269 380 l 269 0 l 102 0 l 102 926 l 503 926 q 749 850 671 926 q 828 654 828 774 q 661 409 828 476 l 823 0 m 269 514 l 476 514 q 610 552 566 514 q 654 656 654 590 q 611 755 654 718 q 490 793 568 793 l 269 793 l 269 514 m 588 1221 l 633 1120 l 350 1000 l 321 1073 l 588 1221 z "},"ŕ":{"ha":460,"x_min":93,"x_max":488,"o":"m 248 0 l 93 0 l 93 685 l 233 685 l 233 522 q 315 661 262 617 q 422 705 367 705 q 442 705 429 705 l 442 538 q 286 463 324 538 q 248 317 248 388 l 248 0 m 443 1008 l 488 907 l 205 787 l 176 860 l 443 1008 z "},"Ŗ":{"ha":892,"x_min":102,"x_max":828,"o":"m 823 0 l 647 0 l 503 380 l 269 380 l 269 0 l 102 0 l 102 926 l 503 926 q 749 850 671 926 q 828 654 828 774 q 661 409 828 476 l 823 0 m 269 514 l 476 514 q 610 552 566 514 q 654 656 654 590 q 611 755 654 718 q 490 793 568 793 l 269 793 l 269 514 m 523 -74 l 404 -325 l 342 -325 l 383 -74 l 523 -74 z "},"ŗ":{"ha":460,"x_min":66,"x_max":442,"o":"m 248 0 l 93 0 l 93 685 l 233 685 l 233 522 q 315 661 262 617 q 422 705 367 705 q 442 705 429 705 l 442 538 q 286 463 324 538 q 248 317 248 388 l 248 0 m 247 -74 l 127 -325 l 66 -325 l 107 -74 l 247 -74 z "},"Ř":{"ha":892,"x_min":102,"x_max":828,"o":"m 823 0 l 647 0 l 503 380 l 269 380 l 269 0 l 102 0 l 102 926 l 503 926 q 749 850 671 926 q 828 654 828 774 q 661 409 828 476 l 823 0 m 269 514 l 476 514 q 610 552 566 514 q 654 656 654 590 q 611 755 654 718 q 490 793 568 793 l 269 793 l 269 514 m 434 996 l 198 1191 l 321 1204 l 434 1116 l 547 1204 l 669 1191 l 434 996 z "},"ř":{"ha":460,"x_min":31,"x_max":503,"o":"m 248 0 l 93 0 l 93 685 l 233 685 l 233 522 q 315 661 262 617 q 422 705 367 705 q 442 705 429 705 l 442 538 q 286 463 324 538 q 248 317 248 388 l 248 0 m 267 783 l 31 978 l 154 991 l 267 903 l 380 991 l 503 978 l 267 783 z "},"Ś":{"ha":793,"x_min":5,"x_max":752,"o":"m 5 223 l 167 258 q 391 120 196 120 q 527 155 479 120 q 575 243 575 191 q 553 313 575 281 q 460 363 532 345 l 283 410 q 149 464 193 433 q 80 549 106 494 q 54 666 54 604 q 146 865 54 790 q 382 940 238 940 q 595 888 501 940 q 715 740 689 836 l 556 701 q 385 806 519 806 q 266 773 307 806 q 225 690 225 741 q 354 579 225 611 l 511 540 q 703 434 654 504 q 752 279 752 363 q 649 64 752 142 q 383 -14 547 -14 q 142 43 245 -14 q 5 223 39 101 m 558 1221 l 603 1119 l 320 1000 l 292 1072 l 558 1221 z "},"ś":{"ha":631,"x_min":9,"x_max":598,"o":"m 9 157 l 155 185 q 301 102 188 102 q 445 186 445 102 q 422 231 445 214 q 370 255 400 249 l 245 279 q 37 481 37 319 q 103 636 37 572 q 299 699 169 699 q 564 540 516 699 l 427 512 q 303 589 405 589 q 180 512 180 589 q 279 438 180 458 l 427 408 q 598 211 598 372 q 510 42 598 98 q 300 -14 422 -14 q 115 28 195 -14 q 9 157 34 71 m 479 1008 l 524 907 l 241 787 l 213 860 l 479 1008 z "},"Ŝ":{"ha":793,"x_min":5,"x_max":752,"o":"m 5 223 l 167 258 q 391 120 196 120 q 527 155 479 120 q 575 243 575 191 q 553 313 575 281 q 460 363 532 345 l 283 410 q 149 464 193 433 q 80 549 106 494 q 54 666 54 604 q 146 865 54 790 q 382 940 238 940 q 595 888 501 940 q 715 740 689 836 l 556 701 q 385 806 519 806 q 266 773 307 806 q 225 690 225 741 q 354 579 225 611 l 511 540 q 703 434 654 504 q 752 279 752 363 q 649 64 752 142 q 383 -14 547 -14 q 142 43 245 -14 q 5 223 39 101 m 393 1214 l 628 1019 l 506 1004 l 393 1094 l 279 1004 l 157 1019 l 393 1214 z "},"ŝ":{"ha":631,"x_min":9,"x_max":598,"o":"m 9 157 l 155 185 q 301 102 188 102 q 445 186 445 102 q 422 231 445 214 q 370 255 400 249 l 245 279 q 37 481 37 319 q 103 636 37 572 q 299 699 169 699 q 564 540 516 699 l 427 512 q 303 589 405 589 q 180 512 180 589 q 279 438 180 458 l 427 408 q 598 211 598 372 q 510 42 598 98 q 300 -14 422 -14 q 115 28 195 -14 q 9 157 34 71 m 313 1001 l 549 806 l 427 791 l 313 881 l 200 791 l 77 806 l 313 1001 z "},"Ț":{"ha":671,"x_min":0,"x_max":671,"o":"m 425 0 l 246 0 l 246 783 l 0 783 l 0 926 l 671 926 l 671 783 l 425 783 l 425 0 m 413 -74 l 294 -325 l 232 -325 l 273 -74 l 413 -74 z "},"ț":{"ha":448,"x_min":24,"x_max":410,"o":"m 410 121 l 410 0 q 303 -15 341 -15 q 196 10 241 -15 q 131 78 151 35 q 110 210 110 121 l 110 565 l 24 565 l 24 685 l 119 685 l 133 863 l 260 875 l 260 685 l 397 685 l 397 565 l 260 565 l 260 231 q 283 143 260 166 q 372 119 307 119 q 410 121 390 119 m 331 -74 l 212 -325 l 150 -325 l 191 -74 l 331 -74 z "},"Ť":{"ha":671,"x_min":0,"x_max":671,"o":"m 425 0 l 246 0 l 246 783 l 0 783 l 0 926 l 671 926 l 671 783 l 425 783 l 425 0 m 336 996 l 100 1191 l 223 1204 l 336 1116 l 450 1204 l 572 1191 l 336 996 z "},"ť":{"ha":487,"x_min":24,"x_max":515,"o":"m 515 1029 l 395 760 l 334 760 l 375 1029 l 515 1029 m 410 121 l 410 0 q 303 -15 341 -15 q 196 10 241 -15 q 131 78 151 35 q 110 210 110 121 l 110 565 l 24 565 l 24 685 l 119 685 l 133 863 l 260 875 l 260 685 l 397 685 l 397 565 l 260 565 l 260 231 q 283 143 260 166 q 372 119 307 119 q 410 121 390 119 z "},"Ŧ":{"ha":671,"x_min":0,"x_max":671,"o":"m 61 474 l 61 604 l 246 604 l 246 783 l 0 783 l 0 926 l 671 926 l 671 783 l 425 783 l 425 604 l 610 604 l 610 474 l 425 474 l 425 0 l 246 0 l 246 474 l 61 474 z "},"ŧ":{"ha":448,"x_min":24,"x_max":410,"o":"m 29 385 l 29 467 l 110 467 l 110 565 l 24 565 l 24 685 l 119 685 l 133 863 l 260 875 l 260 685 l 397 685 l 397 565 l 260 565 l 260 467 l 389 467 l 389 385 l 260 385 l 260 231 q 283 143 260 166 q 372 119 307 119 q 410 121 390 119 l 410 0 q 303 -15 341 -15 q 196 10 241 -15 q 131 78 151 35 q 110 210 110 121 l 110 385 l 29 385 z "},"Ũ":{"ha":826,"x_min":93,"x_max":737,"o":"m 737 926 l 737 331 q 710 145 737 210 q 605 33 683 80 q 416 -14 528 -14 q 230 26 302 -14 q 125 138 157 67 q 93 319 93 209 l 93 926 l 263 926 l 263 331 q 314 171 263 209 q 433 132 366 132 q 558 173 511 132 q 605 331 605 214 l 605 926 l 737 926 m 616 1177 l 663 1107 q 604 1050 647 1073 q 526 1027 560 1027 q 423 1059 485 1027 q 354 1084 376 1084 q 269 1031 322 1084 l 222 1101 q 358 1179 285 1179 q 450 1152 393 1179 q 541 1124 511 1124 q 616 1177 582 1124 z "},"ũ":{"ha":749,"x_min":93,"x_max":656,"o":"m 656 0 l 513 0 l 513 148 q 296 -14 454 -14 q 148 44 203 -14 q 93 205 93 102 l 93 685 l 251 685 l 251 239 q 283 142 251 165 q 347 119 316 119 q 450 164 397 119 q 502 356 502 209 l 502 685 l 656 685 l 656 0 m 553 964 l 600 894 q 541 837 584 860 q 463 814 497 814 q 360 846 422 814 q 291 871 313 871 q 205 818 259 871 l 159 888 q 295 966 222 966 q 387 939 330 966 q 477 911 448 911 q 553 964 519 911 z "},"Ū":{"ha":826,"x_min":93,"x_max":737,"o":"m 737 926 l 737 331 q 710 145 737 210 q 605 33 683 80 q 416 -14 528 -14 q 230 26 302 -14 q 125 138 157 67 q 93 319 93 209 l 93 926 l 263 926 l 263 331 q 314 171 263 209 q 433 132 366 132 q 558 173 511 132 q 605 331 605 214 l 605 926 l 737 926 m 623 1139 l 623 1051 l 215 1051 l 215 1139 l 623 1139 z "},"ū":{"ha":749,"x_min":93,"x_max":656,"o":"m 656 0 l 513 0 l 513 148 q 296 -14 454 -14 q 148 44 203 -14 q 93 205 93 102 l 93 685 l 251 685 l 251 239 q 283 142 251 165 q 347 119 316 119 q 450 164 397 119 q 502 356 502 209 l 502 685 l 656 685 l 656 0 m 579 917 l 579 829 l 171 829 l 171 917 l 579 917 z "},"Ŭ":{"ha":826,"x_min":93,"x_max":737,"o":"m 737 926 l 737 331 q 710 145 737 210 q 605 33 683 80 q 416 -14 528 -14 q 230 26 302 -14 q 125 138 157 67 q 93 319 93 209 l 93 926 l 263 926 l 263 331 q 314 171 263 209 q 433 132 366 132 q 558 173 511 132 q 605 331 605 214 l 605 926 l 737 926 m 227 1198 l 316 1198 q 435 1108 328 1108 q 550 1198 538 1108 l 639 1198 q 579 1066 635 1120 q 431 1012 523 1012 q 287 1063 344 1012 q 227 1198 230 1114 z "},"ŭ":{"ha":749,"x_min":93,"x_max":656,"o":"m 656 0 l 513 0 l 513 148 q 296 -14 454 -14 q 148 44 203 -14 q 93 205 93 102 l 93 685 l 251 685 l 251 239 q 283 142 251 165 q 347 119 316 119 q 450 164 397 119 q 502 356 502 209 l 502 685 l 656 685 l 656 0 m 169 987 l 258 987 q 376 897 270 897 q 492 987 479 897 l 581 987 q 521 855 577 909 q 373 801 465 801 q 229 852 286 801 q 169 987 172 903 z "},"Ů":{"ha":826,"x_min":93,"x_max":737,"o":"m 737 926 l 737 331 q 710 145 737 210 q 605 33 683 80 q 416 -14 528 -14 q 230 26 302 -14 q 125 138 157 67 q 93 319 93 209 l 93 926 l 263 926 l 263 331 q 314 171 263 209 q 433 132 366 132 q 558 173 511 132 q 605 331 605 214 l 605 926 l 737 926 m 419 986 q 330 1023 367 986 q 294 1112 294 1059 q 331 1201 294 1164 q 419 1238 368 1238 q 506 1205 466 1238 q 545 1109 545 1172 q 509 1023 545 1061 q 419 986 473 986 m 420 1057 q 462 1074 448 1057 q 475 1109 475 1091 q 461 1152 475 1135 q 422 1168 446 1168 q 382 1154 399 1168 q 364 1112 364 1139 q 378 1073 364 1090 q 420 1057 393 1057 z "},"ů":{"ha":749,"x_min":93,"x_max":656,"o":"m 656 0 l 513 0 l 513 148 q 296 -14 454 -14 q 148 44 203 -14 q 93 205 93 102 l 93 685 l 251 685 l 251 239 q 283 142 251 165 q 347 119 316 119 q 450 164 397 119 q 502 356 502 209 l 502 685 l 656 685 l 656 0 m 374 768 q 286 805 322 768 q 249 894 249 842 q 286 983 249 946 q 374 1021 323 1021 q 461 987 421 1021 q 500 892 500 954 q 464 806 500 843 q 374 768 428 768 m 375 839 q 417 856 404 839 q 431 892 431 873 q 416 934 431 918 q 378 950 401 950 q 337 936 355 950 q 319 895 319 922 q 334 856 319 872 q 375 839 348 839 z "},"Ű":{"ha":826,"x_min":93,"x_max":737,"o":"m 737 926 l 737 331 q 710 145 737 210 q 605 33 683 80 q 416 -14 528 -14 q 230 26 302 -14 q 125 138 157 67 q 93 319 93 209 l 93 926 l 263 926 l 263 331 q 314 171 263 209 q 433 132 366 132 q 558 173 511 132 q 605 331 605 214 l 605 926 l 737 926 m 434 1221 l 497 1142 l 275 1000 l 227 1059 l 434 1221 m 665 1221 l 729 1142 l 507 1000 l 466 1059 l 665 1221 z "},"ű":{"ha":749,"x_min":93,"x_max":701,"o":"m 656 0 l 513 0 l 513 148 q 296 -14 454 -14 q 148 44 203 -14 q 93 205 93 102 l 93 685 l 251 685 l 251 239 q 283 142 251 165 q 347 119 316 119 q 450 164 397 119 q 502 356 502 209 l 502 685 l 656 685 l 656 0 m 406 1008 l 469 930 l 247 787 l 199 846 l 406 1008 m 637 1008 l 701 930 l 479 787 l 438 846 l 637 1008 z "},"Ų":{"ha":826,"x_min":93,"x_max":737,"o":"m 654 -160 l 669 -214 q 555 -239 614 -239 q 451 -210 492 -239 q 411 -129 411 -182 q 508 -4 411 -54 q 412 -14 453 -14 q 183 59 274 -14 q 93 319 93 132 l 93 926 l 263 926 l 263 331 q 314 171 263 209 q 433 132 366 132 q 558 173 511 132 q 605 331 605 214 l 605 926 l 737 926 l 737 331 q 712 149 737 201 q 604 27 688 96 q 530 -46 551 -18 q 509 -106 509 -75 q 592 -172 509 -172 q 654 -160 623 -172 z "},"ų":{"ha":749,"x_min":93,"x_max":707,"o":"m 513 0 l 513 148 q 296 -14 454 -14 q 148 44 203 -14 q 93 205 93 102 l 93 685 l 251 685 l 251 239 q 283 142 251 165 q 347 119 316 119 q 450 164 397 119 q 502 356 502 209 l 502 685 l 656 685 l 656 0 q 559 -110 559 -52 q 579 -155 559 -138 q 633 -172 599 -172 q 693 -160 661 -172 l 707 -210 q 599 -233 655 -233 q 500 -204 537 -233 q 464 -130 464 -174 q 583 0 464 -49 l 513 0 z "},"Ŵ":{"ha":1227,"x_min":14,"x_max":1213,"o":"m 1213 926 l 966 0 l 791 0 l 606 681 l 439 0 l 267 0 l 14 926 l 191 926 l 370 251 l 537 926 l 706 926 l 890 251 l 1066 926 l 1213 926 m 618 1214 l 854 1019 l 732 1004 l 618 1094 l 505 1004 l 382 1019 l 618 1214 z "},"ŵ":{"ha":968,"x_min":14,"x_max":954,"o":"m 954 685 l 753 0 l 614 0 l 490 480 l 368 0 l 224 0 l 14 685 l 178 685 l 313 224 l 431 685 l 571 685 l 691 224 l 823 685 l 954 685 m 502 1001 l 737 806 l 615 791 l 502 881 l 389 791 l 266 806 l 502 1001 z "},"Ŷ":{"ha":755,"x_min":-18,"x_max":774,"o":"m 474 0 l 297 0 l 297 391 l -18 926 l 184 926 l 404 544 l 614 926 l 774 926 l 474 391 l 474 0 m 392 1214 l 627 1019 l 505 1004 l 392 1094 l 279 1004 l 156 1019 l 392 1214 z "},"ŷ":{"ha":614,"x_min":9,"x_max":604,"o":"m 604 685 l 338 -95 q 271 -207 313 -167 q 151 -246 229 -246 q 62 -241 121 -246 l 62 -119 l 136 -120 q 209 -104 185 -120 q 245 -47 232 -88 q 259 0 259 -7 q 245 42 259 4 l 9 685 l 172 685 l 338 233 l 481 685 l 604 685 m 321 1001 l 556 806 l 434 791 l 321 881 l 208 791 l 85 806 l 321 1001 z "},"Ź":{"ha":740,"x_min":28,"x_max":712,"o":"m 712 144 l 712 0 l 28 0 l 28 132 l 502 793 l 61 793 l 61 926 l 699 926 l 699 793 l 230 144 l 712 144 m 559 1221 l 604 1119 l 321 1000 l 293 1072 l 559 1221 z "},"ź":{"ha":581,"x_min":33,"x_max":549,"o":"m 549 120 l 549 0 l 33 0 l 33 120 l 363 565 l 64 565 l 64 685 l 549 685 l 549 576 l 211 120 l 549 120 m 480 1008 l 525 907 l 242 787 l 214 860 l 480 1008 z "},"Ż":{"ha":740,"x_min":28,"x_max":712,"o":"m 712 144 l 712 0 l 28 0 l 28 132 l 502 793 l 61 793 l 61 926 l 699 926 l 699 793 l 230 144 l 712 144 m 382 1025 q 329 1047 350 1025 q 307 1098 307 1068 q 328 1151 307 1128 q 382 1173 349 1173 q 437 1153 414 1173 q 460 1099 460 1133 q 437 1045 460 1065 q 382 1025 414 1025 z "},"ż":{"ha":581,"x_min":33,"x_max":549,"o":"m 549 120 l 549 0 l 33 0 l 33 120 l 363 565 l 64 565 l 64 685 l 549 685 l 549 576 l 211 120 l 549 120 m 309 806 q 255 827 276 806 q 233 878 233 848 q 254 931 233 908 q 309 954 275 954 q 363 933 340 954 q 386 879 386 913 q 363 825 386 845 q 309 806 340 806 z "},"ſ":{"ha":814,"x_min":304,"x_max":606,"o":"m 454 0 l 304 0 l 304 685 q 321 828 304 779 q 388 909 338 878 q 551 941 438 941 q 606 940 572 941 l 606 819 q 565 821 576 821 q 486 805 509 821 q 458 769 463 790 q 454 685 454 749 l 454 0 z "},"Ǻ":{"ha":838,"x_min":5,"x_max":828,"o":"m 521 1322 l 562 1219 l 270 1120 l 243 1194 l 521 1322 m 315 926 q 290 1000 290 959 q 327 1090 290 1053 q 416 1127 364 1127 q 503 1094 463 1127 q 543 1003 543 1060 q 517 925 543 960 l 828 0 l 650 0 l 576 220 l 220 220 l 147 0 l 5 0 l 312 926 l 315 926 m 417 945 q 458 963 445 945 q 472 998 472 981 q 419 1057 472 1057 q 378 1043 396 1057 q 361 1001 361 1029 q 376 962 361 978 q 417 945 391 945 m 531 354 l 396 767 l 261 354 l 531 354 z "},"ǻ":{"ha":751,"x_min":50,"x_max":679,"o":"m 679 0 l 532 0 q 508 138 512 62 q 276 -14 446 -14 q 112 46 174 -14 q 50 197 50 106 q 464 433 50 433 q 508 432 480 433 l 508 484 q 363 590 508 590 q 203 484 222 590 l 71 503 q 159 644 82 589 q 383 699 237 699 q 513 686 463 699 q 597 641 563 673 q 645 573 632 610 q 659 448 659 536 l 659 138 q 679 0 659 71 m 508 349 q 208 205 208 349 q 238 133 208 163 q 330 102 269 102 q 463 158 418 102 q 508 286 508 214 l 508 349 m 376 750 q 287 787 323 750 q 250 876 250 823 q 287 965 250 928 q 376 1002 324 1002 q 462 969 422 1002 q 502 873 502 936 q 466 787 502 825 q 376 750 429 750 m 376 821 q 418 838 405 821 q 432 873 432 855 q 417 916 432 899 q 379 932 403 932 q 338 918 356 932 q 321 876 321 903 q 335 837 321 854 q 376 821 349 821 m 501 1226 l 546 1124 l 263 1005 l 235 1078 l 501 1226 z "},"Ǽ":{"ha":1175,"x_min":-23,"x_max":1133,"o":"m 1133 144 l 1133 0 l 544 0 l 544 262 l 267 262 l 136 0 l -23 0 l 470 926 l 1122 926 l 1122 791 l 711 791 l 711 536 l 1037 536 l 1037 404 l 711 404 l 711 144 l 1133 144 m 544 391 l 544 812 l 334 391 l 544 391 m 930 1221 l 975 1119 l 692 1000 l 663 1072 l 930 1221 z "},"ǽ":{"ha":1192,"x_min":50,"x_max":1143,"o":"m 1143 320 l 660 320 q 703 165 661 222 q 830 107 745 107 q 987 216 945 107 l 1130 193 q 1019 45 1106 104 q 819 -14 932 -14 q 657 24 730 -14 q 551 128 585 63 q 298 -14 458 -14 q 114 45 178 -14 q 50 197 50 105 q 156 370 50 312 q 451 427 262 427 q 512 424 476 427 q 504 520 511 495 q 464 566 496 546 q 368 585 431 585 q 218 490 243 585 l 80 507 q 389 699 129 699 q 505 683 460 699 q 611 621 550 667 q 825 699 703 699 q 1061 604 979 699 q 1143 361 1143 508 l 1143 320 m 983 424 q 933 549 979 508 q 824 590 888 590 q 665 424 686 590 l 983 424 m 511 341 q 282 303 345 336 q 218 202 218 271 q 251 127 218 153 q 333 100 283 100 q 438 134 391 100 q 498 214 485 168 q 511 341 511 260 m 779 1008 l 824 907 l 541 787 l 513 860 l 779 1008 z "},"Ǿ":{"ha":894,"x_min":39,"x_max":854,"o":"m 742 797 q 840 464 840 661 q 732 118 840 250 q 444 -14 623 -14 q 230 51 315 -14 l 168 -38 l 39 -38 l 153 126 q 54 465 54 273 q 163 805 54 670 q 447 940 273 940 q 665 876 566 940 l 724 964 l 854 964 l 742 797 m 260 277 l 576 756 q 451 806 530 806 q 285 714 336 806 q 234 466 234 622 q 260 277 234 353 m 637 652 l 319 172 q 446 120 371 120 q 598 195 536 120 q 660 465 660 269 q 637 652 660 558 m 571 1221 l 616 1119 l 333 1000 l 304 1072 l 571 1221 z "},"ǿ":{"ha":734,"x_min":49,"x_max":686,"o":"m 599 599 q 668 476 651 532 q 686 345 686 420 q 594 84 686 182 q 358 -14 502 -14 q 199 30 269 -14 l 145 -45 l 49 -45 l 138 83 q 50 346 50 193 q 137 598 50 497 q 374 699 225 699 q 540 652 466 699 l 589 718 l 686 718 l 599 599 m 231 210 l 458 542 q 364 572 427 572 q 253 512 294 572 q 213 349 213 451 q 231 210 213 275 m 502 471 l 282 141 q 367 113 321 113 q 522 351 522 113 q 502 471 522 426 m 484 1008 l 529 907 l 246 787 l 218 860 l 484 1008 z "},"΄":{"ha":694,"x_min":-88,"x_max":177,"o":"m 73 1000 l 177 926 l -26 701 l -88 747 l 73 1000 z "},"΅":{"ha":694,"x_min":157,"x_max":537,"o":"m 454 1194 l 523 1105 l 322 975 l 281 1036 l 454 1194 m 233 806 q 179 827 200 806 q 157 878 157 848 q 178 931 157 908 q 233 954 199 954 q 287 933 264 954 q 310 879 310 913 q 287 825 310 845 q 233 806 264 806 m 460 806 q 405 827 427 806 q 384 878 384 849 q 405 931 384 908 q 460 954 427 954 q 514 933 490 954 q 537 879 537 913 q 514 825 537 845 q 460 806 492 806 z "},"Ά":{"ha":838,"x_min":-19,"x_max":828,"o":"m 828 0 l 650 0 l 576 220 l 220 220 l 147 0 l 5 0 l 312 926 l 517 926 l 828 0 m 531 354 l 396 767 l 261 354 l 531 354 m 142 1000 l 246 926 l 43 701 l -19 747 l 142 1000 z "},"·":{"ha":168,"x_min":0,"x_max":168,"o":"m 168 441 l 168 264 l 0 264 l 0 441 l 168 441 z "},"Έ":{"ha":745,"x_min":-214,"x_max":703,"o":"m 703 0 l 102 0 l 102 926 l 697 926 l 697 788 l 269 788 l 269 537 l 613 537 l 613 403 l 269 403 l 269 144 l 703 144 l 703 0 m -53 1000 l 52 926 l -151 701 l -214 747 l -53 1000 z "},"Ή":{"ha":891,"x_min":-212,"x_max":789,"o":"m 789 0 l 622 0 l 622 402 l 269 402 l 269 0 l 102 0 l 102 926 l 269 926 l 269 545 l 622 545 l 622 926 l 789 926 l 789 0 m -52 1000 l 53 926 l -150 701 l -212 747 l -52 1000 z "},"Ί":{"ha":370,"x_min":-212,"x_max":269,"o":"m 269 0 l 102 0 l 102 926 l 269 926 l 269 0 m -52 1000 l 53 926 l -150 701 l -212 747 l -52 1000 z "},"Ό":{"ha":894,"x_min":-100,"x_max":840,"o":"m 443 -14 q 156 124 258 -14 q 53 466 53 262 q 162 804 53 668 q 450 940 271 940 q 735 804 631 940 q 840 464 840 668 q 731 118 840 250 q 443 -14 623 -14 m 444 120 q 597 195 534 120 q 659 465 659 269 q 608 715 659 625 q 448 806 556 806 q 233 460 233 806 q 288 207 233 293 q 444 120 342 120 m 61 1000 l 165 926 l -37 701 l -100 747 l 61 1000 z "},"Ύ":{"ha":755,"x_min":-299,"x_max":773,"o":"m 473 0 l 296 0 l 296 391 l -19 926 l 183 926 l 403 544 l 613 926 l 773 926 l 473 391 l 473 0 m -138 1000 l -34 926 l -237 701 l -299 747 l -138 1000 z "},"Ώ":{"ha":921,"x_min":-104,"x_max":882,"o":"m 39 0 l 39 144 l 262 144 q 54 517 54 245 q 171 828 54 715 q 460 940 288 940 q 750 827 634 940 q 867 519 867 715 q 659 144 867 246 l 882 144 l 882 0 l 518 0 l 518 144 q 686 498 686 246 q 626 725 686 644 q 460 806 565 806 q 297 728 359 806 q 235 498 235 650 q 403 144 235 246 l 403 0 l 39 0 m 56 1000 l 161 926 l -42 701 l -104 747 l 56 1000 z "},"ΐ":{"ha":340,"x_min":-20,"x_max":360,"o":"m 247 0 l 92 0 l 92 685 l 247 685 l 247 0 m 277 1194 l 346 1105 l 145 975 l 104 1036 l 277 1194 m 56 806 q 2 827 23 806 q -20 878 -20 848 q 1 931 -20 908 q 56 954 22 954 q 110 933 87 954 q 133 879 133 913 q 110 825 133 845 q 56 806 87 806 m 283 806 q 228 827 250 806 q 207 878 207 849 q 228 931 207 908 q 283 954 250 954 q 337 933 313 954 q 360 879 360 913 q 337 825 360 845 q 283 806 315 806 z "},"Α":{"ha":838,"x_min":5,"x_max":828,"o":"m 828 0 l 650 0 l 576 220 l 220 220 l 147 0 l 5 0 l 312 926 l 517 926 l 828 0 m 531 354 l 396 767 l 261 354 l 531 354 z "},"Β":{"ha":844,"x_min":102,"x_max":793,"o":"m 102 0 l 102 926 l 463 926 q 614 907 554 926 q 719 827 675 888 q 763 686 763 767 q 718 552 763 609 q 595 480 673 496 q 743 401 692 463 q 793 253 793 338 q 723 73 793 146 q 507 0 652 0 l 102 0 m 260 537 l 463 537 q 562 574 526 537 q 598 669 598 612 q 557 763 598 733 q 460 793 515 793 l 260 793 l 260 537 m 260 139 l 475 139 q 584 175 544 139 q 623 272 623 211 q 583 368 623 330 q 476 405 543 405 l 260 405 l 260 139 z "},"Γ":{"ha":632,"x_min":102,"x_max":632,"o":"m 102 0 l 102 926 l 632 926 l 632 783 l 269 783 l 269 0 l 102 0 z "},"Δ":{"ha":804,"x_min":-23,"x_max":819,"o":"m -23 0 l 286 926 l 500 926 l 819 0 l -23 0 m 170 144 l 583 144 l 385 787 l 366 787 l 170 144 z "},"Ε":{"ha":745,"x_min":102,"x_max":703,"o":"m 703 0 l 102 0 l 102 926 l 697 926 l 697 788 l 269 788 l 269 537 l 613 537 l 613 403 l 269 403 l 269 144 l 703 144 l 703 0 z "},"Ζ":{"ha":740,"x_min":28,"x_max":712,"o":"m 712 144 l 712 0 l 28 0 l 28 132 l 502 793 l 61 793 l 61 926 l 699 926 l 699 793 l 230 144 l 712 144 z "},"Η":{"ha":890,"x_min":102,"x_max":789,"o":"m 789 0 l 622 0 l 622 402 l 269 402 l 269 0 l 102 0 l 102 926 l 269 926 l 269 545 l 622 545 l 622 926 l 789 926 l 789 0 z "},"Θ":{"ha":924,"x_min":53,"x_max":871,"o":"m 463 940 q 762 804 653 940 q 871 465 871 669 q 759 121 871 256 q 460 -14 648 -14 q 166 115 279 -14 q 53 467 53 245 q 160 795 53 650 q 463 940 267 940 m 462 806 q 291 710 355 806 q 227 465 227 614 q 294 206 227 292 q 463 120 361 120 q 632 213 568 120 q 696 465 696 307 q 632 712 696 618 q 462 806 568 806 m 588 538 l 588 408 l 337 408 l 337 538 l 588 538 z "},"Ι":{"ha":370,"x_min":102,"x_max":269,"o":"m 269 0 l 102 0 l 102 926 l 269 926 l 269 0 z "},"Κ":{"ha":852,"x_min":102,"x_max":829,"o":"m 829 0 l 643 0 l 448 471 l 269 234 l 269 0 l 102 0 l 102 926 l 269 926 l 269 439 q 315 508 300 489 l 622 926 l 791 926 l 571 621 l 829 0 z "},"Λ":{"ha":758,"x_min":-21,"x_max":777,"o":"m 124 0 l -21 0 l 273 926 l 484 926 l 777 0 l 597 0 l 363 770 l 354 770 l 124 0 z "},"Μ":{"ha":1112,"x_min":102,"x_max":1010,"o":"m 1010 0 l 840 0 l 840 810 l 583 0 l 496 0 l 238 810 l 238 0 l 102 0 l 102 926 l 363 926 l 557 330 l 747 926 l 1010 926 l 1010 0 z "},"Ν":{"ha":903,"x_min":102,"x_max":801,"o":"m 801 0 l 639 0 l 288 591 q 261 635 279 605 q 236 678 253 649 l 236 0 l 102 0 l 102 926 l 286 926 l 610 380 q 669 281 614 374 l 669 926 l 801 926 l 801 0 z "},"Ξ":{"ha":741,"x_min":52,"x_max":689,"o":"m 52 783 l 52 926 l 689 926 l 689 783 l 52 783 m 154 407 l 154 542 l 587 542 l 587 407 l 154 407 m 52 0 l 52 144 l 689 144 l 689 0 l 52 0 z "},"Ο":{"ha":894,"x_min":53,"x_max":840,"o":"m 443 -14 q 156 124 258 -14 q 53 466 53 262 q 162 804 53 668 q 450 940 271 940 q 735 804 631 940 q 840 464 840 668 q 731 118 840 250 q 443 -14 623 -14 m 444 120 q 597 195 534 120 q 659 465 659 269 q 608 715 659 625 q 448 806 556 806 q 233 460 233 806 q 288 207 233 293 q 444 120 342 120 z "},"Π":{"ha":859,"x_min":102,"x_max":757,"o":"m 102 0 l 102 926 l 757 926 l 757 0 l 591 0 l 591 783 l 269 783 l 269 0 l 102 0 z "},"Ρ":{"ha":832,"x_min":102,"x_max":800,"o":"m 269 0 l 102 0 l 102 926 l 481 926 q 721 844 643 926 q 800 651 800 762 q 715 446 800 524 q 500 367 630 367 l 269 367 l 269 0 m 269 510 l 466 510 q 584 548 543 510 q 625 649 625 586 q 587 747 625 706 q 451 787 549 787 l 269 787 l 269 510 z "},"Σ":{"ha":707,"x_min":48,"x_max":686,"o":"m 48 0 l 48 132 l 325 492 l 65 791 l 65 926 l 654 926 l 654 791 l 267 791 l 510 519 l 223 144 l 686 144 l 686 0 l 48 0 z "},"Τ":{"ha":671,"x_min":0,"x_max":671,"o":"m 425 0 l 246 0 l 246 783 l 0 783 l 0 926 l 671 926 l 671 783 l 425 783 l 425 0 z "},"Υ":{"ha":755,"x_min":-18,"x_max":774,"o":"m 474 0 l 297 0 l 297 391 l -18 926 l 184 926 l 404 544 l 614 926 l 774 926 l 474 391 l 474 0 z "},"Φ":{"ha":1031,"x_min":60,"x_max":970,"o":"m 443 86 q 153 207 245 104 q 60 463 60 309 q 156 722 60 621 q 443 840 252 823 l 443 954 l 588 954 l 588 840 q 877 721 783 823 q 970 463 970 619 q 879 208 970 310 q 588 86 787 105 l 588 -28 l 443 -28 l 443 86 m 443 720 q 281 641 336 703 q 227 456 227 580 q 443 206 227 241 l 443 720 m 588 206 q 750 286 694 224 q 805 471 805 347 q 588 720 805 685 l 588 206 z "},"Χ":{"ha":787,"x_min":7,"x_max":779,"o":"m 779 0 l 585 0 l 380 365 l 163 0 l 7 0 l 300 482 l 49 926 l 243 926 l 414 618 l 595 926 l 751 926 l 493 503 l 779 0 z "},"Ψ":{"ha":1122,"x_min":92,"x_max":1031,"o":"m 477 0 l 477 171 q 282 207 358 176 q 164 291 205 237 q 107 421 122 344 q 92 651 92 498 l 92 926 l 258 926 l 258 651 q 270 447 258 505 q 330 352 281 389 q 477 307 378 315 l 477 926 l 644 926 l 644 307 q 791 350 745 314 q 851 444 838 387 q 864 651 864 501 l 864 926 l 1031 926 l 1031 651 q 1017 422 1031 496 q 958 292 1003 349 q 837 205 913 235 q 644 171 761 176 l 644 0 l 477 0 z "},"Ω":{"ha":921,"x_min":39,"x_max":882,"o":"m 39 0 l 39 144 l 262 144 q 54 517 54 245 q 171 828 54 715 q 460 940 288 940 q 750 827 634 940 q 867 519 867 715 q 659 144 867 246 l 882 144 l 882 0 l 518 0 l 518 144 q 686 498 686 246 q 626 725 686 644 q 460 806 565 806 q 297 728 359 806 q 235 498 235 650 q 403 144 235 246 l 403 0 l 39 0 z "},"Ϊ":{"ha":370,"x_min":5,"x_max":385,"o":"m 269 0 l 102 0 l 102 926 l 269 926 l 269 0 m 80 1025 q 26 1047 47 1025 q 5 1098 5 1068 q 26 1151 5 1128 q 80 1173 47 1173 q 134 1153 111 1173 q 157 1099 157 1133 q 135 1045 157 1065 q 80 1025 112 1025 m 307 1025 q 253 1047 274 1025 q 231 1098 231 1069 q 253 1151 231 1128 q 307 1173 274 1173 q 361 1153 338 1173 q 385 1099 385 1133 q 362 1045 385 1065 q 307 1025 339 1025 z "},"Ϋ":{"ha":755,"x_min":-18,"x_max":774,"o":"m 474 0 l 297 0 l 297 391 l -18 926 l 184 926 l 404 544 l 614 926 l 774 926 l 474 391 l 474 0 m 273 1025 q 219 1047 240 1025 q 197 1098 197 1068 q 218 1151 197 1128 q 273 1173 239 1173 q 327 1153 304 1173 q 350 1099 350 1133 q 327 1045 350 1065 q 273 1025 304 1025 m 500 1025 q 445 1047 467 1025 q 424 1098 424 1069 q 445 1151 424 1128 q 500 1173 467 1173 q 554 1153 530 1173 q 577 1099 577 1133 q 554 1045 577 1065 q 500 1025 532 1025 z "},"ά":{"ha":831,"x_min":49,"x_max":812,"o":"m 812 0 l 642 0 l 573 186 q 329 -14 488 -14 q 127 89 205 -14 q 49 341 49 193 q 132 602 49 505 q 348 699 216 699 q 573 532 496 699 l 628 685 l 789 685 l 665 360 l 812 0 m 532 352 q 437 538 473 504 q 358 572 401 572 q 256 511 299 572 q 213 339 213 450 q 256 177 213 242 q 358 113 300 113 q 462 183 422 113 q 532 352 501 254 m 426 1053 l 530 979 l 328 754 l 265 800 l 426 1053 z "},"έ":{"ha":649,"x_min":53,"x_max":632,"o":"m 406 406 l 406 300 q 295 295 328 299 q 240 267 262 290 q 217 205 217 243 q 251 128 217 155 q 340 101 286 101 q 490 220 456 101 l 632 195 q 537 47 612 108 q 341 -14 463 -14 q 117 50 182 -14 q 53 200 53 114 q 200 364 53 326 q 96 434 118 399 q 73 513 73 470 q 140 647 73 594 q 326 699 207 699 q 615 509 574 699 l 475 484 q 343 583 452 583 q 237 496 237 583 q 272 429 237 452 q 406 406 307 406 m 401 1053 l 506 979 l 303 754 l 241 800 l 401 1053 z "},"ή":{"ha":759,"x_min":93,"x_max":671,"o":"m 671 -231 l 517 -231 l 517 431 q 407 572 517 572 q 292 523 336 572 q 248 391 248 473 l 248 0 l 93 0 l 93 685 l 236 685 l 236 572 q 451 699 309 699 q 583 664 530 699 q 654 577 636 629 q 671 414 671 526 l 671 -231 m 441 1053 l 545 979 l 342 754 l 280 800 l 441 1053 z "},"ί":{"ha":340,"x_min":45,"x_max":310,"o":"m 247 0 l 92 0 l 92 685 l 247 685 l 247 0 m 205 1053 l 310 979 l 107 754 l 45 800 l 205 1053 z "},"ΰ":{"ha":736,"x_min":86,"x_max":650,"o":"m 241 685 l 241 287 q 249 178 241 208 q 286 131 256 148 q 368 113 315 113 q 448 129 418 113 q 487 174 478 145 q 496 287 496 203 l 496 685 l 650 685 l 650 287 q 622 107 650 169 q 531 15 594 45 q 374 -14 467 -14 q 160 44 234 -14 q 86 287 86 103 l 86 685 l 241 685 m 475 1194 l 544 1105 l 343 975 l 302 1036 l 475 1194 m 254 806 q 200 827 221 806 q 178 878 178 848 q 199 931 178 908 q 254 954 220 954 q 308 933 285 954 q 331 879 331 913 q 308 825 331 845 q 254 806 286 806 m 481 806 q 426 827 448 806 q 405 878 405 849 q 426 931 405 908 q 481 954 448 954 q 535 933 511 954 q 558 879 558 913 q 535 825 558 845 q 481 806 513 806 z "},"α":{"ha":831,"x_min":49,"x_max":812,"o":"m 812 0 l 642 0 l 573 186 q 329 -14 488 -14 q 127 89 205 -14 q 49 341 49 193 q 132 602 49 505 q 348 699 216 699 q 573 532 496 699 l 628 685 l 789 685 l 665 360 l 812 0 m 532 352 q 437 538 473 504 q 358 572 401 572 q 256 511 299 572 q 213 339 213 450 q 256 177 213 242 q 358 113 300 113 q 462 183 422 113 q 532 352 501 254 z "},"β":{"ha":774,"x_min":97,"x_max":724,"o":"m 97 -231 l 97 612 q 122 800 97 735 q 209 902 147 865 q 380 940 271 940 q 588 882 507 940 q 669 718 669 825 q 509 524 669 576 q 724 271 724 472 q 643 67 724 149 q 434 -14 562 -14 q 252 73 314 -14 l 252 -231 l 97 -231 m 252 167 q 386 113 302 113 q 511 162 463 113 q 559 295 559 211 q 521 412 559 363 q 374 461 483 461 l 374 565 q 484 603 456 566 q 512 696 512 639 q 378 831 512 831 q 285 797 319 831 q 252 631 252 763 l 252 167 z "},"γ":{"ha":607,"x_min":-8,"x_max":618,"o":"m 226 -231 l 226 12 l -8 685 l 160 685 l 319 211 l 485 685 l 618 685 l 380 12 l 380 -231 l 226 -231 z "},"δ":{"ha":745,"x_min":54,"x_max":692,"o":"m 611 926 l 611 806 l 330 806 l 433 734 q 576 621 523 673 q 661 496 629 568 q 692 333 692 425 q 607 80 692 174 q 375 -14 522 -14 q 140 77 227 -14 q 54 325 54 168 q 134 553 54 467 q 357 639 214 639 l 130 814 l 130 926 l 611 926 m 376 552 q 218 333 218 552 q 374 113 218 113 q 529 334 529 113 q 376 552 529 552 z "},"ε":{"ha":649,"x_min":53,"x_max":632,"o":"m 406 406 l 406 300 q 295 295 328 299 q 240 267 262 290 q 217 205 217 243 q 251 128 217 155 q 340 101 286 101 q 490 220 456 101 l 632 195 q 537 47 612 108 q 341 -14 463 -14 q 117 50 182 -14 q 53 200 53 114 q 200 364 53 326 q 96 434 118 399 q 73 513 73 470 q 140 647 73 594 q 326 699 207 699 q 615 509 574 699 l 475 484 q 343 583 452 583 q 237 496 237 583 q 272 429 237 452 q 406 406 307 406 z "},"ζ":{"ha":537,"x_min":54,"x_max":522,"o":"m 87 806 l 87 926 l 509 926 l 509 824 q 305 598 391 741 q 218 302 218 456 q 253 178 218 212 q 374 140 287 145 q 463 121 436 136 q 506 73 490 106 q 522 -14 522 41 q 465 -231 522 -100 l 330 -214 q 378 -60 378 -119 q 358 -14 378 -26 q 284 2 338 -1 q 54 271 54 12 q 359 806 54 555 l 87 806 z "},"η":{"ha":759,"x_min":93,"x_max":671,"o":"m 671 -231 l 517 -231 l 517 431 q 407 572 517 572 q 292 523 336 572 q 248 391 248 473 l 248 0 l 93 0 l 93 685 l 236 685 l 236 572 q 451 699 309 699 q 583 664 530 699 q 654 577 636 629 q 671 414 671 526 l 671 -231 z "},"θ":{"ha":753,"x_min":58,"x_max":696,"o":"m 376 940 q 612 815 528 940 q 696 463 696 690 q 611 110 696 235 q 376 -14 527 -14 q 145 104 233 -14 q 58 463 58 222 q 144 820 58 699 q 376 940 231 940 m 216 533 l 536 533 q 485 758 531 689 q 376 827 439 827 q 268 758 314 827 q 216 533 222 688 m 216 428 q 376 99 221 99 q 536 428 532 99 l 216 428 z "},"ι":{"ha":340,"x_min":92,"x_max":247,"o":"m 247 0 l 92 0 l 92 685 l 247 685 l 247 0 z "},"κ":{"ha":706,"x_min":93,"x_max":700,"o":"m 456 457 l 700 0 l 530 0 l 352 332 l 248 227 l 248 0 l 93 0 l 93 685 l 248 685 l 248 501 l 248 444 q 245 385 248 427 q 307 457 269 416 l 519 685 l 672 685 l 456 457 z "},"λ":{"ha":602,"x_min":-7,"x_max":608,"o":"m -7 0 l 223 632 l 119 926 l 279 926 l 608 0 l 446 0 l 282 470 l 119 0 l -7 0 z "},"μ":{"ha":765,"x_min":93,"x_max":673,"o":"m 93 -231 l 93 685 l 248 685 l 248 319 q 259 205 248 243 q 303 140 270 168 q 380 113 336 113 q 481 157 444 113 q 518 319 518 201 l 518 685 l 673 685 l 673 0 l 542 0 l 542 105 q 385 -14 490 -14 q 297 15 336 -14 q 248 83 258 43 l 248 -231 l 93 -231 z "},"ν":{"ha":608,"x_min":0,"x_max":599,"o":"m 599 685 l 366 0 l 238 0 l 0 685 l 161 685 l 321 220 l 477 685 l 599 685 z "},"ξ":{"ha":601,"x_min":48,"x_max":595,"o":"m 414 -216 q 450 -69 450 -122 q 427 -20 450 -33 q 336 -1 404 -7 q 118 69 189 9 q 48 248 48 129 q 100 406 48 347 q 258 495 152 464 q 97 645 97 541 q 258 806 97 755 l 83 806 l 83 926 l 574 926 l 574 806 l 488 806 q 261 672 261 806 q 304 578 261 616 q 450 541 348 541 l 507 541 l 507 419 l 450 419 q 314 408 360 419 q 239 362 267 397 q 212 273 212 327 q 233 195 212 224 q 287 156 255 166 q 401 138 319 146 q 513 119 475 131 q 573 74 550 106 q 595 -23 595 41 q 550 -240 595 -101 l 414 -216 z "},"ο":{"ha":734,"x_min":49,"x_max":686,"o":"m 361 -14 q 129 95 209 -14 q 49 345 49 204 q 137 598 49 497 q 371 699 226 699 q 597 601 509 699 q 686 345 686 503 q 594 84 686 183 q 361 -14 502 -14 m 366 113 q 522 346 522 113 q 485 512 522 451 q 370 572 448 572 q 252 510 290 572 q 213 343 213 447 q 254 172 213 231 q 366 113 295 113 z "},"π":{"ha":772,"x_min":31,"x_max":741,"o":"m 113 0 l 113 565 l 31 565 l 31 685 l 741 685 l 741 565 l 658 565 l 658 0 l 503 0 l 503 565 l 268 565 l 268 0 l 113 0 z "},"ρ":{"ha":763,"x_min":79,"x_max":714,"o":"m 79 -231 l 79 266 q 102 510 79 429 q 203 645 126 591 q 390 699 279 699 q 626 601 538 699 q 714 334 714 503 q 633 80 714 175 q 429 -14 553 -14 q 233 94 300 -14 l 233 -231 l 79 -231 m 391 572 q 277 522 316 572 q 238 342 238 471 q 395 113 238 113 q 550 343 550 113 q 391 572 550 572 z "},"ς":{"ha":665,"x_min":49,"x_max":637,"o":"m 448 -212 q 482 -73 482 -145 q 464 -17 482 -31 q 397 1 446 -4 q 208 53 279 16 q 92 166 136 89 q 49 353 49 244 q 130 601 49 503 q 361 699 212 699 q 551 632 481 699 q 637 460 622 564 l 493 434 q 359 572 477 572 q 253 523 293 572 q 212 370 212 473 q 240 233 212 281 q 316 165 268 186 q 461 131 364 145 q 593 83 554 117 q 631 -40 631 49 q 588 -240 631 -116 l 448 -212 z "},"σ":{"ha":756,"x_min":54,"x_max":738,"o":"m 738 685 l 738 565 l 579 565 q 672 450 651 503 q 692 325 692 397 q 605 80 692 174 q 375 -14 517 -14 q 145 73 237 -14 q 54 345 54 160 q 138 603 54 507 q 376 699 223 699 q 473 685 429 699 l 738 685 m 373 572 q 218 344 218 572 q 374 113 218 113 q 528 344 528 113 q 373 572 528 572 z "},"τ":{"ha":536,"x_min":-5,"x_max":541,"o":"m 191 0 l 191 565 l -5 565 l -5 685 l 541 685 l 541 565 l 346 565 l 346 0 l 191 0 z "},"υ":{"ha":736,"x_min":86,"x_max":650,"o":"m 241 685 l 241 287 q 249 178 241 208 q 286 131 256 148 q 368 113 315 113 q 448 129 418 113 q 487 174 478 145 q 496 287 496 203 l 496 685 l 650 685 l 650 287 q 622 107 650 169 q 531 15 594 45 q 374 -14 467 -14 q 160 44 234 -14 q 86 287 86 103 l 86 685 l 241 685 z "},"φ":{"ha":933,"x_min":54,"x_max":879,"o":"m 394 -231 l 394 -18 q 142 93 230 -5 q 54 340 54 191 q 111 547 54 459 q 256 664 168 634 l 302 541 q 208 343 208 475 q 394 101 208 138 l 394 695 q 473 699 439 699 q 783 592 686 699 q 879 338 879 485 q 791 97 879 199 q 536 -18 703 -5 l 536 -231 l 394 -231 m 536 100 q 723 345 723 129 q 536 588 723 558 l 536 100 z "},"χ":{"ha":656,"x_min":-22,"x_max":662,"o":"m 238 265 l 18 685 l 185 685 l 349 370 l 505 685 l 645 685 l 415 241 l 662 -231 l 495 -231 l 311 144 l 123 -231 l -22 -231 l 238 265 z "},"ψ":{"ha":998,"x_min":89,"x_max":909,"o":"m 425 -231 l 425 -17 q 228 22 301 -13 q 121 122 154 56 q 89 320 89 187 l 89 685 l 243 685 l 243 320 q 279 151 243 192 q 425 107 315 109 l 425 685 l 573 685 l 573 107 q 718 149 681 109 q 755 320 755 189 l 755 685 l 909 685 l 909 320 q 880 128 909 195 q 775 24 850 61 q 573 -17 701 -13 l 573 -231 l 425 -231 z "},"ω":{"ha":984,"x_min":51,"x_max":933,"o":"m 565 532 l 565 304 q 586 148 565 182 q 647 113 608 113 q 735 160 700 113 q 770 319 770 208 q 659 642 770 493 l 769 706 q 933 325 933 541 q 856 68 933 150 q 667 -14 778 -14 q 571 9 613 -14 q 492 106 529 32 q 317 -14 436 -14 q 128 69 205 -14 q 51 317 51 152 q 215 706 51 541 l 326 642 q 215 318 215 492 q 250 161 215 209 q 338 113 284 113 q 397 145 375 113 q 419 304 419 178 l 419 532 l 565 532 z "},"ϊ":{"ha":340,"x_min":-20,"x_max":360,"o":"m 247 0 l 92 0 l 92 685 l 247 685 l 247 0 m 56 806 q 2 827 23 806 q -20 878 -20 848 q 1 931 -20 908 q 56 954 22 954 q 110 933 87 954 q 133 879 133 913 q 110 825 133 845 q 56 806 87 806 m 283 806 q 228 827 250 806 q 207 878 207 849 q 228 931 207 908 q 283 954 250 954 q 337 933 313 954 q 360 879 360 913 q 337 825 360 845 q 283 806 315 806 z "},"ϋ":{"ha":736,"x_min":86,"x_max":650,"o":"m 241 685 l 241 287 q 249 178 241 208 q 286 131 256 148 q 368 113 315 113 q 448 129 418 113 q 487 174 478 145 q 496 287 496 203 l 496 685 l 650 685 l 650 287 q 622 107 650 169 q 531 15 594 45 q 374 -14 467 -14 q 160 44 234 -14 q 86 287 86 103 l 86 685 l 241 685 m 254 806 q 200 827 221 806 q 178 878 178 848 q 199 931 178 908 q 254 954 220 954 q 308 933 285 954 q 331 879 331 913 q 308 825 331 845 q 254 806 286 806 m 481 806 q 426 827 448 806 q 405 878 405 849 q 426 931 405 908 q 481 954 448 954 q 535 933 511 954 q 558 879 558 913 q 535 825 558 845 q 481 806 513 806 z "},"ό":{"ha":734,"x_min":49,"x_max":686,"o":"m 361 -14 q 129 95 209 -14 q 49 345 49 204 q 137 598 49 497 q 371 699 226 699 q 597 601 509 699 q 686 345 686 503 q 594 84 686 183 q 361 -14 502 -14 m 366 113 q 522 346 522 113 q 485 512 522 451 q 370 572 448 572 q 252 510 290 572 q 213 343 213 447 q 254 172 213 231 q 366 113 295 113 m 408 1053 l 512 979 l 309 754 l 247 800 l 408 1053 z "},"ύ":{"ha":736,"x_min":86,"x_max":650,"o":"m 241 685 l 241 287 q 249 178 241 208 q 286 131 256 148 q 368 113 315 113 q 448 129 418 113 q 487 174 478 145 q 496 287 496 203 l 496 685 l 650 685 l 650 287 q 622 107 650 169 q 531 15 594 45 q 374 -14 467 -14 q 160 44 234 -14 q 86 287 86 103 l 86 685 l 241 685 m 409 1066 l 513 992 l 311 768 l 248 813 l 409 1066 z "},"ώ":{"ha":984,"x_min":51,"x_max":933,"o":"m 565 532 l 565 304 q 586 148 565 182 q 647 113 608 113 q 735 160 700 113 q 770 319 770 208 q 659 642 770 493 l 769 706 q 933 325 933 541 q 856 68 933 150 q 667 -14 778 -14 q 571 9 613 -14 q 492 106 529 32 q 317 -14 436 -14 q 128 69 205 -14 q 51 317 51 152 q 215 706 51 541 l 326 642 q 215 318 215 492 q 250 161 215 209 q 338 113 284 113 q 397 145 375 113 q 419 304 419 178 l 419 532 l 565 532 m 555 1053 l 660 979 l 457 754 l 395 800 l 555 1053 z "},"Ё":{"ha":745,"x_min":102,"x_max":703,"o":"m 703 0 l 102 0 l 102 926 l 697 926 l 697 788 l 269 788 l 269 537 l 613 537 l 613 403 l 269 403 l 269 144 l 703 144 l 703 0 m 292 1032 q 238 1054 260 1032 q 217 1105 217 1075 q 238 1157 217 1135 q 292 1180 259 1180 q 347 1160 323 1180 q 370 1105 370 1140 q 347 1052 370 1072 q 292 1032 324 1032 m 519 1032 q 465 1054 486 1032 q 444 1105 444 1076 q 465 1157 444 1135 q 519 1180 486 1180 q 573 1160 550 1180 q 597 1105 597 1140 q 574 1052 597 1072 q 519 1032 551 1032 z "},"Ђ":{"ha":867,"x_min":-8,"x_max":803,"o":"m 144 0 l 144 790 l -8 790 l -8 926 l 651 926 l 651 790 l 311 790 l 311 501 q 552 621 389 621 q 696 586 637 621 q 779 476 754 551 q 803 208 803 401 q 768 -96 803 -14 q 668 -208 734 -177 q 494 -242 603 -238 l 486 -117 q 607 -59 577 -117 q 637 192 637 -1 q 603 448 637 402 q 498 494 570 494 q 311 302 311 494 l 311 0 l 144 0 z "},"Ѓ":{"ha":604,"x_min":102,"x_max":604,"o":"m 102 0 l 102 926 l 604 926 l 604 783 l 269 783 l 269 0 l 102 0 m 509 1234 l 553 1132 l 271 1013 l 242 1085 l 509 1234 z "},"Є":{"ha":854,"x_min":54,"x_max":831,"o":"m 570 542 l 570 415 l 231 415 q 292 203 231 287 q 462 120 353 120 q 673 290 618 120 l 831 259 q 699 61 793 136 q 460 -14 606 -14 q 166 115 279 -14 q 54 469 54 245 q 158 808 54 675 q 454 940 262 940 q 811 692 719 940 l 656 653 q 454 806 601 806 q 293 730 349 806 q 231 542 237 655 l 570 542 z "},"Ѕ":{"ha":793,"x_min":5,"x_max":752,"o":"m 5 223 l 167 258 q 391 120 196 120 q 527 155 479 120 q 575 243 575 191 q 553 313 575 281 q 460 363 532 345 l 283 410 q 149 464 193 433 q 80 549 106 494 q 54 666 54 604 q 146 865 54 790 q 382 940 238 940 q 595 888 501 940 q 715 740 689 836 l 556 701 q 385 806 519 806 q 266 773 307 806 q 225 690 225 741 q 354 579 225 611 l 511 540 q 703 434 654 504 q 752 279 752 363 q 649 64 752 142 q 383 -14 547 -14 q 142 43 245 -14 q 5 223 39 101 z "},"І":{"ha":370,"x_min":102,"x_max":269,"o":"m 269 0 l 102 0 l 102 926 l 269 926 l 269 0 z "},"Ї":{"ha":370,"x_min":-5,"x_max":374,"o":"m 269 0 l 102 0 l 102 926 l 269 926 l 269 0 m 70 1032 q 16 1054 37 1032 q -5 1105 -5 1075 q 16 1157 -5 1135 q 70 1180 37 1180 q 124 1160 101 1180 q 147 1105 147 1140 q 124 1052 147 1072 q 70 1032 102 1032 m 297 1032 q 242 1054 264 1032 q 221 1105 221 1076 q 242 1157 221 1135 q 297 1180 264 1180 q 351 1160 328 1180 q 374 1105 374 1140 q 352 1052 374 1072 q 297 1032 329 1032 z "},"Ј":{"ha":516,"x_min":0,"x_max":423,"o":"m 423 926 l 423 287 q 354 57 423 127 q 135 -14 286 -14 q 0 0 48 -14 l 0 134 q 107 129 76 129 q 221 160 191 129 q 252 287 252 191 l 252 926 l 423 926 z "},"Љ":{"ha":1163,"x_min":-21,"x_max":1139,"o":"m 578 572 l 787 572 q 987 546 918 572 q 1097 451 1055 521 q 1139 290 1139 380 q 1062 82 1139 164 q 822 0 984 0 l 551 0 l 363 770 l 354 770 l 124 0 l -21 0 l 273 926 l 484 926 l 578 572 m 692 144 l 809 144 q 968 290 968 144 q 809 436 968 436 l 614 436 l 692 144 z "},"Њ":{"ha":1301,"x_min":102,"x_max":1276,"o":"m 762 557 l 932 557 q 1133 529 1065 557 q 1239 435 1201 501 q 1276 283 1276 368 q 1197 78 1276 157 q 968 0 1118 0 l 595 0 l 595 422 l 269 422 l 269 0 l 102 0 l 102 926 l 269 926 l 269 557 l 595 557 l 595 926 l 762 926 l 762 557 m 762 144 l 945 144 q 1106 286 1106 144 q 945 422 1106 422 l 762 422 l 762 144 z "},"Ћ":{"ha":880,"x_min":-8,"x_max":800,"o":"m 311 790 l 311 507 q 540 621 393 621 q 726 554 652 621 q 800 321 800 487 l 800 0 l 633 0 l 633 328 q 596 458 633 424 q 493 493 559 493 q 311 376 351 493 l 311 0 l 144 0 l 144 790 l -8 790 l -8 926 l 654 926 l 654 790 l 311 790 z "},"Ќ":{"ha":852,"x_min":102,"x_max":829,"o":"m 829 0 l 643 0 l 448 471 l 269 234 l 269 0 l 102 0 l 102 926 l 269 926 l 269 439 q 315 508 300 489 l 622 926 l 791 926 l 571 621 l 829 0 m 581 1234 l 626 1132 l 343 1013 l 315 1085 l 581 1234 z "},"Ў":{"ha":713,"x_min":-17,"x_max":735,"o":"m 312 270 l -17 926 l 163 926 l 391 457 l 578 926 l 735 926 l 446 229 q 332 47 391 95 q 163 0 274 0 l 101 0 l 101 144 l 163 144 q 252 166 225 144 q 298 237 278 188 l 312 270 m 172 1198 l 260 1198 q 379 1109 273 1109 q 494 1198 482 1109 l 583 1198 q 524 1066 580 1120 q 376 1013 467 1013 q 231 1063 288 1013 q 172 1198 174 1114 z "},"Џ":{"ha":866,"x_min":102,"x_max":764,"o":"m 269 144 l 597 144 l 597 926 l 764 926 l 764 0 l 502 0 l 492 -195 l 369 -195 l 359 0 l 102 0 l 102 926 l 269 926 l 269 144 z "},"А":{"ha":838,"x_min":5,"x_max":828,"o":"m 828 0 l 650 0 l 576 220 l 220 220 l 147 0 l 5 0 l 312 926 l 517 926 l 828 0 m 531 354 l 396 767 l 261 354 l 531 354 z "},"Б":{"ha":832,"x_min":102,"x_max":781,"o":"m 102 0 l 102 926 l 682 926 l 682 791 l 269 791 l 269 550 l 429 550 q 621 529 550 550 q 736 439 691 508 q 781 277 781 371 q 703 77 781 153 q 475 0 625 0 l 102 0 m 269 144 l 455 144 q 612 283 612 144 q 577 379 612 341 q 438 418 543 418 l 269 418 l 269 144 z "},"В":{"ha":844,"x_min":102,"x_max":793,"o":"m 102 0 l 102 926 l 463 926 q 614 907 554 926 q 719 827 675 888 q 763 686 763 767 q 718 552 763 609 q 595 480 673 496 q 743 401 692 463 q 793 253 793 338 q 723 73 793 146 q 507 0 652 0 l 102 0 m 260 537 l 463 537 q 562 574 526 537 q 598 669 598 612 q 557 763 598 733 q 460 793 515 793 l 260 793 l 260 537 m 260 139 l 475 139 q 584 175 544 139 q 623 272 623 211 q 583 368 623 330 q 476 405 543 405 l 260 405 l 260 139 z "},"Г":{"ha":604,"x_min":102,"x_max":604,"o":"m 102 0 l 102 926 l 604 926 l 604 783 l 269 783 l 269 0 l 102 0 z "},"Д":{"ha":837,"x_min":-5,"x_max":843,"o":"m 62 144 l 307 926 l 555 926 l 775 144 l 843 144 l 843 -195 l 727 -195 l 707 0 l 131 0 l 111 -195 l -5 -195 l -5 144 l 62 144 m 205 144 l 599 144 l 438 770 l 388 770 l 205 144 z "},"Е":{"ha":745,"x_min":102,"x_max":703,"o":"m 703 0 l 102 0 l 102 926 l 697 926 l 697 788 l 269 788 l 269 537 l 613 537 l 613 403 l 269 403 l 269 144 l 703 144 l 703 0 z "},"Ж":{"ha":1120,"x_min":-16,"x_max":1164,"o":"m 823 528 l 1164 0 l 978 0 l 696 435 l 642 418 l 642 0 l 484 0 l 484 418 l 429 435 l 148 0 l -16 0 l 304 482 l 8 926 l 191 926 l 449 538 l 484 528 l 484 926 l 642 926 l 642 528 l 677 538 l 935 926 l 1099 926 l 823 528 z "},"З":{"ha":787,"x_min":14,"x_max":741,"o":"m 14 270 l 168 296 q 378 120 201 120 q 517 164 474 120 q 560 273 560 208 q 400 418 560 418 l 319 418 l 319 540 l 393 540 q 502 576 461 540 q 542 674 542 612 q 496 770 542 735 q 378 806 451 806 q 186 654 212 806 l 38 676 q 385 940 85 940 q 625 870 536 940 q 713 694 713 800 q 546 492 713 543 q 741 274 741 451 q 648 70 741 154 q 383 -14 556 -14 q 122 63 216 -14 q 14 270 27 141 z "},"И":{"ha":914,"x_min":102,"x_max":812,"o":"m 269 84 l 269 0 l 102 0 l 102 926 l 269 926 l 269 406 q 264 267 269 343 q 373 451 309 361 l 646 832 l 646 926 l 812 926 l 812 0 l 646 0 l 646 479 q 650 649 646 604 q 540 465 601 551 l 269 84 z "},"Й":{"ha":914,"x_min":102,"x_max":812,"o":"m 269 84 l 269 0 l 102 0 l 102 926 l 269 926 l 269 406 q 264 267 269 343 q 373 451 309 361 l 646 832 l 646 926 l 812 926 l 812 0 l 646 0 l 646 479 q 650 649 646 604 q 540 465 601 551 l 269 84 m 258 1198 l 347 1198 q 465 1109 359 1109 q 581 1198 568 1109 l 669 1198 q 610 1066 666 1120 q 462 1013 553 1013 q 317 1063 374 1013 q 258 1198 260 1114 z "},"К":{"ha":852,"x_min":102,"x_max":829,"o":"m 829 0 l 643 0 l 448 471 l 269 234 l 269 0 l 102 0 l 102 926 l 269 926 l 269 439 q 315 508 300 489 l 622 926 l 791 926 l 571 621 l 829 0 z "},"Л":{"ha":758,"x_min":-21,"x_max":777,"o":"m 124 0 l -21 0 l 273 926 l 484 926 l 777 0 l 597 0 l 363 770 l 354 770 l 124 0 z "},"М":{"ha":1112,"x_min":102,"x_max":1010,"o":"m 1010 0 l 840 0 l 840 810 l 583 0 l 496 0 l 238 810 l 238 0 l 102 0 l 102 926 l 363 926 l 557 330 l 747 926 l 1010 926 l 1010 0 z "},"Н":{"ha":890,"x_min":102,"x_max":789,"o":"m 789 0 l 622 0 l 622 402 l 269 402 l 269 0 l 102 0 l 102 926 l 269 926 l 269 545 l 622 545 l 622 926 l 789 926 l 789 0 z "},"О":{"ha":894,"x_min":53,"x_max":840,"o":"m 443 -14 q 156 124 258 -14 q 53 466 53 262 q 162 804 53 668 q 450 940 271 940 q 735 804 631 940 q 840 464 840 668 q 731 118 840 250 q 443 -14 623 -14 m 444 120 q 597 195 534 120 q 659 465 659 269 q 608 715 659 625 q 448 806 556 806 q 233 460 233 806 q 288 207 233 293 q 444 120 342 120 z "},"П":{"ha":866,"x_min":102,"x_max":764,"o":"m 102 0 l 102 926 l 764 926 l 764 0 l 597 0 l 597 790 l 269 790 l 269 0 l 102 0 z "},"Р":{"ha":832,"x_min":102,"x_max":800,"o":"m 269 0 l 102 0 l 102 926 l 481 926 q 721 844 643 926 q 800 651 800 762 q 715 446 800 524 q 500 367 630 367 l 269 367 l 269 0 m 269 510 l 466 510 q 584 548 543 510 q 625 649 625 586 q 587 747 625 706 q 451 787 549 787 l 269 787 l 269 510 z "},"С":{"ha":804,"x_min":53,"x_max":774,"o":"m 619 321 l 774 304 q 666 76 759 165 q 423 -14 574 -14 q 217 50 296 -14 q 96 222 138 113 q 53 463 53 332 q 153 807 53 675 q 429 940 254 940 q 659 855 567 940 q 774 612 750 770 l 619 596 q 431 806 576 806 q 285 719 337 806 q 233 466 233 631 q 289 212 233 298 q 436 126 345 126 q 561 184 509 126 q 619 321 612 241 z "},"Т":{"ha":671,"x_min":0,"x_max":671,"o":"m 425 0 l 246 0 l 246 783 l 0 783 l 0 926 l 671 926 l 671 783 l 425 783 l 425 0 z "},"У":{"ha":713,"x_min":-17,"x_max":735,"o":"m 312 270 l -17 926 l 163 926 l 391 457 l 578 926 l 735 926 l 446 229 q 332 47 391 95 q 163 0 274 0 l 101 0 l 101 144 l 163 144 q 252 166 225 144 q 298 237 278 188 l 312 270 z "},"Ф":{"ha":1031,"x_min":60,"x_max":970,"o":"m 443 86 q 153 207 245 104 q 60 463 60 309 q 156 722 60 621 q 443 840 252 823 l 443 954 l 588 954 l 588 840 q 877 721 783 823 q 970 463 970 619 q 879 208 970 310 q 588 86 787 105 l 588 -28 l 443 -28 l 443 86 m 443 720 q 281 641 336 703 q 227 456 227 580 q 443 206 227 241 l 443 720 m 588 206 q 750 286 694 224 q 805 471 805 347 q 588 720 805 685 l 588 206 z "},"Х":{"ha":787,"x_min":7,"x_max":779,"o":"m 779 0 l 585 0 l 380 365 l 163 0 l 7 0 l 300 482 l 49 926 l 243 926 l 414 618 l 595 926 l 751 926 l 493 503 l 779 0 z "},"Ц":{"ha":890,"x_min":111,"x_max":890,"o":"m 111 0 l 111 926 l 278 926 l 278 144 l 608 144 l 608 926 l 774 926 l 774 144 l 890 144 l 890 -195 l 775 -195 l 755 0 l 111 0 z "},"Ч":{"ha":842,"x_min":75,"x_max":740,"o":"m 573 0 l 573 399 q 336 297 478 297 q 193 334 254 297 q 103 431 131 371 q 75 601 75 492 l 75 926 l 242 926 l 242 593 q 272 470 242 508 q 376 431 302 431 q 573 515 491 431 l 573 926 l 740 926 l 740 0 l 573 0 z "},"Ш":{"ha":1296,"x_min":111,"x_max":1185,"o":"m 111 0 l 111 926 l 278 926 l 278 144 l 565 144 l 565 926 l 732 926 l 732 144 l 1019 144 l 1019 926 l 1185 926 l 1185 0 l 111 0 z "},"Щ":{"ha":1305,"x_min":111,"x_max":1305,"o":"m 1185 144 l 1305 144 l 1305 -195 l 1190 -195 l 1170 0 l 111 0 l 111 926 l 278 926 l 278 144 l 565 144 l 565 926 l 732 926 l 732 144 l 1019 144 l 1019 926 l 1185 926 l 1185 144 z "},"Ъ":{"ha":897,"x_min":-32,"x_max":873,"o":"m 199 783 l -32 783 l -32 926 l 366 926 l 366 572 l 521 572 q 721 546 652 572 q 831 451 789 521 q 873 290 873 380 q 796 82 873 164 q 556 0 718 0 l 199 0 l 199 783 m 366 144 l 543 144 q 703 290 703 144 q 543 436 703 436 l 366 436 l 366 144 z "},"Ы":{"ha":1177,"x_min":111,"x_max":1067,"o":"m 900 0 l 900 926 l 1067 926 l 1067 0 l 900 0 m 111 0 l 111 926 l 278 926 l 278 572 l 433 572 q 632 547 564 572 q 744 452 701 522 q 786 290 786 381 q 708 82 786 164 q 469 0 631 0 l 111 0 m 278 144 l 456 144 q 615 290 615 144 q 456 436 615 436 l 278 436 l 278 144 z "},"Ь":{"ha":801,"x_min":102,"x_max":777,"o":"m 102 0 l 102 926 l 269 926 l 269 572 l 424 572 q 623 547 554 572 q 734 452 692 522 q 777 290 777 381 q 699 82 777 164 q 459 0 621 0 l 102 0 m 269 144 l 446 144 q 606 290 606 144 q 446 436 606 436 l 269 436 l 269 144 z "},"Э":{"ha":854,"x_min":23,"x_max":800,"o":"m 283 415 l 283 542 l 623 542 q 561 730 616 654 q 399 806 505 806 q 197 653 253 806 l 42 692 q 400 940 135 940 q 696 807 593 940 q 800 469 800 673 q 695 124 800 262 q 394 -14 589 -14 q 154 61 248 -14 q 23 259 61 136 l 180 290 q 392 120 236 120 q 563 204 502 120 q 623 415 623 288 l 283 415 z "},"Ю":{"ha":1280,"x_min":102,"x_max":1227,"o":"m 431 417 l 269 417 l 269 0 l 102 0 l 102 926 l 269 926 l 269 553 l 431 553 q 562 833 456 727 q 825 940 667 940 q 1114 812 1001 940 q 1227 469 1227 684 q 1120 127 1227 268 q 829 -14 1013 -14 q 541 114 645 -14 q 431 417 436 241 m 825 806 q 663 710 722 806 q 604 459 604 615 q 668 207 604 294 q 824 120 732 120 q 986 218 926 120 q 1046 471 1046 315 q 983 721 1046 637 q 825 806 921 806 z "},"Я":{"ha":876,"x_min":36,"x_max":773,"o":"m 606 385 l 373 385 l 203 0 l 36 0 l 231 415 q 62 652 62 479 q 145 853 62 780 q 368 926 229 926 l 773 926 l 773 0 l 606 0 l 606 385 m 606 791 l 395 791 q 276 755 317 791 q 235 659 235 720 q 277 557 235 600 q 408 515 319 515 l 606 515 l 606 791 z "},"а":{"ha":751,"x_min":50,"x_max":679,"o":"m 679 0 l 532 0 q 508 138 512 62 q 276 -14 446 -14 q 112 46 174 -14 q 50 197 50 106 q 464 433 50 433 q 508 432 480 433 l 508 484 q 363 590 508 590 q 203 484 222 590 l 71 503 q 159 644 82 589 q 383 699 237 699 q 513 686 463 699 q 597 641 563 673 q 645 573 632 610 q 659 448 659 536 l 659 138 q 679 0 659 71 m 508 349 q 208 205 208 349 q 238 133 208 163 q 330 102 269 102 q 463 158 418 102 q 508 286 508 214 l 508 349 z "},"б":{"ha":753,"x_min":58,"x_max":699,"o":"m 466 987 l 625 987 q 578 884 620 919 q 433 827 536 849 q 313 792 349 810 q 252 733 277 774 q 218 624 228 691 q 313 687 277 675 q 397 699 349 699 q 613 609 528 699 q 699 349 699 519 q 613 81 699 177 q 378 -14 526 -14 q 145 78 231 -14 q 58 376 58 171 q 80 602 58 498 q 150 775 101 705 q 247 873 199 846 q 373 918 294 901 q 445 943 427 930 q 466 987 463 956 m 377 580 q 215 345 215 580 q 377 113 215 113 q 535 345 535 113 q 377 580 535 580 z "},"в":{"ha":738,"x_min":93,"x_max":690,"o":"m 93 0 l 93 685 l 449 685 q 618 633 572 685 q 665 515 665 581 q 532 361 665 401 q 690 190 690 323 q 635 53 690 106 q 482 0 581 0 l 93 0 m 248 404 l 425 404 q 515 490 515 404 q 425 572 515 572 l 248 572 l 248 404 m 248 120 l 425 120 q 507 143 483 120 q 532 216 532 167 q 425 312 532 312 l 248 312 l 248 120 z "},"г":{"ha":517,"x_min":92,"x_max":517,"o":"m 92 0 l 92 685 l 517 685 l 517 565 l 247 565 l 247 0 l 92 0 z "},"д":{"ha":668,"x_min":-5,"x_max":673,"o":"m 57 120 l 218 685 l 469 685 l 611 120 l 673 120 l 673 -157 l 573 -157 l 555 0 l 113 0 l 95 -157 l -5 -157 l -5 120 l 57 120 m 181 120 l 456 120 l 354 565 l 298 565 l 181 120 z "},"е":{"ha":728,"x_min":49,"x_max":680,"o":"m 528 218 l 668 199 q 562 46 641 106 q 365 -14 484 -14 q 136 81 222 -14 q 49 340 49 177 q 136 597 49 496 q 374 699 224 699 q 600 599 520 699 q 680 341 680 498 l 680 323 l 210 323 q 223 212 210 254 q 275 138 236 170 q 374 107 315 107 q 528 218 488 107 m 519 423 q 474 544 518 497 q 366 591 431 591 q 260 547 302 591 q 210 423 217 503 l 519 423 z "},"ж":{"ha":901,"x_min":-17,"x_max":931,"o":"m 682 410 l 931 0 l 763 0 l 572 309 l 526 296 l 526 0 l 378 0 l 378 296 l 332 309 l 134 0 l -17 0 l 227 363 l 7 685 l 169 685 l 353 416 l 378 410 l 378 685 l 526 685 l 526 410 l 551 416 l 735 685 l 888 685 l 682 410 z "},"з":{"ha":642,"x_min":21,"x_max":593,"o":"m 241 300 l 241 406 q 380 434 352 406 q 409 498 409 461 q 382 561 409 536 q 305 585 355 585 q 178 484 199 585 l 37 509 q 317 699 83 699 q 508 646 443 699 q 573 513 573 593 q 446 364 573 410 q 593 199 593 325 q 523 47 593 108 q 319 -14 452 -14 q 21 195 75 -14 l 163 220 q 305 98 191 98 q 396 127 363 98 q 429 205 429 156 q 407 266 429 241 q 350 295 385 290 q 241 300 315 300 z "},"и":{"ha":765,"x_min":93,"x_max":672,"o":"m 248 69 l 248 0 l 93 0 l 93 685 l 248 685 l 248 387 q 244 244 248 320 q 342 378 278 299 l 517 597 l 517 685 l 672 685 l 672 0 l 517 0 l 517 281 q 522 429 517 366 q 433 304 490 376 l 248 69 z "},"й":{"ha":765,"x_min":93,"x_max":672,"o":"m 248 69 l 248 0 l 93 0 l 93 685 l 248 685 l 248 387 q 244 244 248 320 q 342 378 278 299 l 517 597 l 517 685 l 672 685 l 672 0 l 517 0 l 517 281 q 522 429 517 366 q 433 304 490 376 l 248 69 m 177 987 l 266 987 q 385 897 278 897 q 500 987 488 897 l 589 987 q 529 855 585 909 q 381 801 473 801 q 237 852 294 801 q 177 987 180 903 z "},"к":{"ha":697,"x_min":93,"x_max":715,"o":"m 477 448 l 715 0 l 549 0 l 370 331 l 248 202 l 248 0 l 93 0 l 93 685 l 248 685 l 248 481 q 243 364 248 416 q 307 441 277 409 l 537 685 l 689 685 l 477 448 z "},"л":{"ha":602,"x_min":-7,"x_max":608,"o":"m -7 0 l 212 685 l 395 685 l 608 0 l 446 0 l 292 565 l 119 0 l -7 0 z "},"м":{"ha":998,"x_min":92,"x_max":905,"o":"m 92 0 l 92 685 l 326 685 l 501 120 l 686 685 l 905 685 l 905 0 l 762 0 l 762 565 l 752 565 l 567 0 l 409 0 l 227 565 l 217 565 l 217 0 l 92 0 z "},"н":{"ha":762,"x_min":92,"x_max":669,"o":"m 92 0 l 92 685 l 247 685 l 247 421 l 515 421 l 515 685 l 669 685 l 669 0 l 515 0 l 515 301 l 247 301 l 247 0 l 92 0 z "},"о":{"ha":734,"x_min":49,"x_max":686,"o":"m 361 -14 q 129 95 209 -14 q 49 345 49 204 q 137 598 49 497 q 371 699 226 699 q 597 601 509 699 q 686 345 686 503 q 594 84 686 183 q 361 -14 502 -14 m 366 113 q 522 346 522 113 q 485 512 522 451 q 370 572 448 572 q 252 510 290 572 q 213 343 213 447 q 254 172 213 231 q 366 113 295 113 z "},"п":{"ha":732,"x_min":92,"x_max":640,"o":"m 92 0 l 92 685 l 640 685 l 640 0 l 485 0 l 485 573 l 247 573 l 247 0 l 92 0 z "},"р":{"ha":748,"x_min":93,"x_max":700,"o":"m 250 -231 l 93 -231 l 93 685 l 241 685 l 241 566 q 450 699 312 699 q 632 600 564 699 q 700 347 700 501 q 635 94 700 201 q 442 -14 570 -14 q 250 96 310 -14 l 250 -231 m 250 281 q 295 157 250 206 q 393 108 339 108 q 502 173 467 108 q 536 337 536 237 q 501 507 536 441 q 398 572 467 572 q 293 519 336 572 q 250 378 250 465 l 250 281 z "},"с":{"ha":647,"x_min":49,"x_max":621,"o":"m 488 252 l 621 238 q 522 47 595 109 q 343 -14 448 -14 q 125 89 201 -14 q 49 342 49 193 q 132 598 49 497 q 355 699 216 699 q 621 463 578 699 l 488 445 q 363 572 471 572 q 249 504 284 572 q 213 337 213 435 q 250 177 213 233 q 353 121 287 121 q 488 252 455 121 z "},"т":{"ha":517,"x_min":-7,"x_max":525,"o":"m 183 0 l 183 565 l -7 565 l -7 685 l 525 685 l 525 565 l 338 565 l 338 0 l 183 0 z "},"у":{"ha":614,"x_min":9,"x_max":604,"o":"m 604 685 l 338 -95 q 271 -207 313 -167 q 151 -246 229 -246 q 62 -241 121 -246 l 62 -119 l 136 -120 q 209 -104 185 -120 q 245 -47 232 -88 q 259 0 259 -7 q 245 42 259 4 l 9 685 l 172 685 l 338 233 l 481 685 l 604 685 z "},"ф":{"ha":918,"x_min":51,"x_max":867,"o":"m 393 -231 l 393 0 q 138 106 225 14 q 51 338 51 199 q 148 582 51 494 q 393 685 245 670 l 393 916 l 525 916 l 525 685 q 770 582 673 670 q 867 338 867 494 q 779 106 867 199 q 525 0 692 14 l 525 -231 l 393 -231 m 393 587 q 209 345 209 553 q 393 102 209 136 l 393 587 m 524 102 q 708 345 708 136 q 524 587 708 553 l 524 102 z "},"х":{"ha":613,"x_min":0,"x_max":613,"o":"m 613 0 l 437 0 l 292 250 l 133 0 l 0 0 l 228 353 l 31 685 l 208 685 l 320 484 l 448 685 l 578 685 l 385 388 l 613 0 z "},"ц":{"ha":751,"x_min":93,"x_max":751,"o":"m 93 0 l 93 685 l 248 685 l 248 120 l 495 120 l 495 685 l 650 685 l 650 120 l 751 120 l 751 -157 l 650 -157 l 631 0 l 93 0 z "},"ч":{"ha":699,"x_min":69,"x_max":606,"o":"m 452 0 l 452 269 q 274 210 376 210 q 123 260 178 210 q 69 405 69 311 l 69 685 l 224 685 l 224 427 q 326 336 224 336 q 452 364 397 336 l 452 685 l 606 685 l 606 0 l 452 0 z "},"ш":{"ha":1103,"x_min":100,"x_max":1004,"o":"m 100 0 l 100 685 l 254 685 l 254 120 l 475 120 l 475 685 l 629 685 l 629 120 l 850 120 l 850 685 l 1004 685 l 1004 0 l 100 0 z "},"щ":{"ha":1118,"x_min":102,"x_max":1118,"o":"m 102 0 l 102 685 l 256 685 l 256 120 l 477 120 l 477 685 l 631 685 l 631 120 l 852 120 l 852 685 l 1006 685 l 1006 120 l 1118 120 l 1118 -157 l 1016 -157 l 997 0 l 102 0 z "},"ъ":{"ha":740,"x_min":-31,"x_max":715,"o":"m 153 0 l 153 565 l -31 565 l -31 685 l 308 685 l 308 435 l 488 435 q 661 372 606 435 q 715 215 715 309 q 655 56 715 111 q 488 0 595 0 l 153 0 m 308 120 l 458 120 q 539 143 515 120 q 564 216 564 165 q 458 322 564 322 l 308 322 l 308 120 z "},"ы":{"ha":1005,"x_min":100,"x_max":906,"o":"m 100 0 l 100 685 l 254 685 l 254 435 l 435 435 q 607 372 552 435 q 663 215 663 309 q 603 56 663 112 q 435 0 543 0 l 100 0 m 254 120 l 404 120 q 486 143 461 120 q 511 216 511 165 q 404 322 511 322 l 254 322 l 254 120 m 751 0 l 751 685 l 906 685 l 906 0 l 751 0 z "},"ь":{"ha":680,"x_min":93,"x_max":656,"o":"m 93 0 l 93 685 l 248 685 l 248 435 l 428 435 q 601 372 545 435 q 656 215 656 309 q 596 56 656 112 q 428 0 536 0 l 93 0 m 248 120 l 397 120 q 479 143 454 120 q 504 216 504 165 q 397 322 504 322 l 248 322 l 248 120 z "},"э":{"ha":691,"x_min":20,"x_max":642,"o":"m 211 294 l 211 406 l 477 406 q 317 572 463 572 q 174 479 207 572 l 31 508 q 319 699 101 699 q 562 595 481 699 q 642 345 642 491 q 557 83 642 180 q 312 -14 473 -14 q 20 188 90 -14 l 161 215 q 314 113 199 113 q 432 159 387 113 q 477 294 477 205 l 211 294 z "},"ю":{"ha":1082,"x_min":93,"x_max":1034,"o":"m 248 299 l 248 0 l 93 0 l 93 685 l 248 685 l 248 420 l 382 420 q 490 622 401 544 q 708 699 578 699 q 945 601 855 699 q 1034 345 1034 503 q 942 85 1034 184 q 701 -14 849 -14 q 476 76 559 -14 q 382 299 392 167 l 248 299 m 705 581 q 536 347 536 581 q 706 113 536 113 q 870 345 870 113 q 705 581 870 581 z "},"я":{"ha":725,"x_min":21,"x_max":632,"o":"m 477 0 l 477 269 l 313 269 l 186 0 l 21 0 l 191 302 q 64 475 64 349 q 125 633 64 581 q 286 685 187 685 l 632 685 l 632 0 l 477 0 m 477 382 l 477 572 l 317 572 q 218 472 218 572 q 311 382 218 382 l 477 382 z "},"ё":{"ha":728,"x_min":49,"x_max":680,"o":"m 528 218 l 668 199 q 562 46 641 106 q 365 -14 484 -14 q 136 81 222 -14 q 49 340 49 177 q 136 597 49 496 q 374 699 224 699 q 600 599 520 699 q 680 341 680 498 l 680 323 l 210 323 q 223 212 210 254 q 275 138 236 170 q 374 107 315 107 q 528 218 488 107 m 519 423 q 474 544 518 497 q 366 591 431 591 q 260 547 302 591 q 210 423 217 503 l 519 423 m 259 806 q 205 827 227 806 q 184 878 184 848 q 205 931 184 908 q 259 954 226 954 q 313 933 290 954 q 336 879 336 913 q 314 825 336 845 q 259 806 291 806 m 486 806 q 432 827 453 806 q 410 878 410 849 q 432 931 410 908 q 486 954 453 954 q 540 933 517 954 q 564 879 564 913 q 541 825 564 845 q 486 806 518 806 z "},"ђ":{"ha":732,"x_min":-31,"x_max":666,"o":"m 92 0 l 92 761 l -31 761 l -31 864 l 92 864 l 92 940 l 246 940 l 246 864 l 519 864 l 519 761 l 246 761 l 246 554 q 318 640 262 602 q 446 677 374 677 q 584 631 532 677 q 651 502 636 586 q 666 206 666 417 q 644 -82 666 -5 q 561 -196 621 -160 q 405 -231 500 -231 l 392 -115 q 490 -57 463 -112 q 516 191 516 -1 q 509 412 516 334 q 469 517 501 490 q 397 545 437 545 q 293 494 339 545 q 246 352 246 443 l 246 0 l 92 0 z "},"ѓ":{"ha":517,"x_min":92,"x_max":517,"o":"m 92 0 l 92 685 l 517 685 l 517 565 l 247 565 l 247 0 l 92 0 m 426 1015 l 471 913 l 188 793 l 159 866 l 426 1015 z "},"є":{"ha":694,"x_min":49,"x_max":671,"o":"m 481 406 l 481 294 l 214 294 q 259 159 214 205 q 376 113 305 113 q 530 215 493 113 l 671 188 q 380 -14 602 -14 q 137 80 224 -14 q 49 345 49 174 q 132 599 49 498 q 372 699 216 699 q 661 508 590 699 l 517 479 q 375 572 485 572 q 214 406 228 572 l 481 406 z "},"ѕ":{"ha":631,"x_min":9,"x_max":598,"o":"m 9 157 l 155 185 q 301 102 188 102 q 445 186 445 102 q 422 231 445 214 q 370 255 400 249 l 245 279 q 37 481 37 319 q 103 636 37 572 q 299 699 169 699 q 564 540 516 699 l 427 512 q 303 589 405 589 q 180 512 180 589 q 279 438 180 458 l 427 408 q 598 211 598 372 q 510 42 598 98 q 300 -14 422 -14 q 115 28 195 -14 q 9 157 34 71 z "},"і":{"ha":340,"x_min":92,"x_max":247,"o":"m 247 765 l 92 765 l 92 926 l 247 926 l 247 765 m 247 0 l 92 0 l 92 685 l 247 685 l 247 0 z "},"ї":{"ha":340,"x_min":-20,"x_max":359,"o":"m 247 0 l 92 0 l 92 685 l 247 685 l 247 0 m 55 806 q 1 827 22 806 q -20 878 -20 848 q 1 931 -20 908 q 55 954 22 954 q 109 933 86 954 q 132 879 132 913 q 110 825 132 845 q 55 806 87 806 m 282 806 q 228 827 249 806 q 206 878 206 849 q 228 931 206 908 q 282 954 249 954 q 336 933 313 954 q 359 879 359 913 q 337 825 359 845 q 282 806 314 806 z "},"ј":{"ha":340,"x_min":-68,"x_max":247,"o":"m 247 765 l 92 765 l 92 926 l 247 926 l 247 765 m 247 685 l 247 11 q 12 -245 247 -245 q -68 -237 -24 -245 l -68 -106 q -18 -110 -39 -110 q 69 -85 46 -110 q 92 11 92 -61 l 92 685 l 247 685 z "},"љ":{"ha":925,"x_min":-7,"x_max":908,"o":"m 459 435 l 681 435 q 856 370 803 435 q 908 215 908 304 q 848 56 908 111 q 681 0 788 0 l 409 0 l 292 565 l 119 0 l -7 0 l 212 685 l 395 685 l 459 435 m 534 120 l 652 120 q 755 217 755 120 q 652 322 755 322 l 486 322 l 534 120 z "},"њ":{"ha":1086,"x_min":93,"x_max":1062,"o":"m 651 421 l 835 421 q 952 404 909 421 q 1028 336 995 387 q 1062 214 1062 286 q 1002 56 1062 112 q 835 0 943 0 l 496 0 l 496 301 l 248 301 l 248 0 l 93 0 l 93 685 l 248 685 l 248 421 l 496 421 l 496 685 l 651 685 l 651 421 m 651 120 l 807 120 q 909 216 909 120 q 807 312 909 312 l 651 312 l 651 120 z "},"ћ":{"ha":739,"x_min":-31,"x_max":669,"o":"m 92 864 l 92 940 l 246 940 l 246 864 l 514 864 l 514 761 l 246 761 l 246 554 q 449 677 317 677 q 555 654 509 677 q 627 594 602 631 q 661 524 652 557 q 669 404 669 491 l 669 0 l 514 0 l 514 389 q 507 475 514 447 q 471 524 500 503 q 407 545 443 545 q 295 493 344 545 q 246 352 246 442 l 246 0 l 92 0 l 92 761 l -31 761 l -31 864 l 92 864 z "},"ќ":{"ha":697,"x_min":93,"x_max":715,"o":"m 477 448 l 715 0 l 549 0 l 370 331 l 248 202 l 248 0 l 93 0 l 93 685 l 248 685 l 248 481 q 243 364 248 416 q 307 441 277 409 l 537 685 l 689 685 l 477 448 m 522 1013 l 567 911 l 284 791 l 256 864 l 522 1013 z "},"ў":{"ha":614,"x_min":9,"x_max":604,"o":"m 604 685 l 338 -95 q 271 -207 313 -167 q 151 -246 229 -246 q 62 -241 121 -246 l 62 -119 l 136 -120 q 209 -104 185 -120 q 245 -47 232 -88 q 259 0 259 -7 q 245 42 259 4 l 9 685 l 172 685 l 338 233 l 481 685 l 604 685 m 114 987 l 203 987 q 321 897 215 897 q 437 987 425 897 l 526 987 q 466 855 522 909 q 318 801 410 801 q 174 852 231 801 q 114 987 117 903 z "},"џ":{"ha":743,"x_min":92,"x_max":650,"o":"m 92 0 l 92 685 l 247 685 l 247 120 l 495 120 l 495 685 l 650 685 l 650 0 l 438 0 l 422 -157 l 321 -157 l 305 0 l 92 0 z "},"Ґ":{"ha":632,"x_min":102,"x_max":632,"o":"m 632 1096 l 632 783 l 269 783 l 269 0 l 102 0 l 102 926 l 496 926 l 496 1096 l 632 1096 z "},"ґ":{"ha":517,"x_min":92,"x_max":517,"o":"m 397 685 l 397 831 l 517 831 l 517 565 l 247 565 l 247 0 l 92 0 l 92 685 l 397 685 z "},"Ẁ":{"ha":1227,"x_min":14,"x_max":1213,"o":"m 1213 926 l 966 0 l 791 0 l 606 681 l 439 0 l 267 0 l 14 926 l 191 926 l 370 251 l 537 926 l 706 926 l 890 251 l 1066 926 l 1213 926 m 507 1221 l 773 1072 l 745 1000 l 462 1119 l 507 1221 z "},"ẁ":{"ha":968,"x_min":14,"x_max":954,"o":"m 954 685 l 753 0 l 614 0 l 490 480 l 368 0 l 224 0 l 14 685 l 178 685 l 313 224 l 431 685 l 571 685 l 691 224 l 823 685 l 954 685 m 391 1008 l 658 860 l 629 787 l 347 907 l 391 1008 z "},"Ẃ":{"ha":1227,"x_min":14,"x_max":1213,"o":"m 1213 926 l 966 0 l 791 0 l 606 681 l 439 0 l 267 0 l 14 926 l 191 926 l 370 251 l 537 926 l 706 926 l 890 251 l 1066 926 l 1213 926 m 738 1221 l 783 1119 l 500 1000 l 471 1072 l 738 1221 z "},"ẃ":{"ha":968,"x_min":14,"x_max":954,"o":"m 954 685 l 753 0 l 614 0 l 490 480 l 368 0 l 224 0 l 14 685 l 178 685 l 313 224 l 431 685 l 571 685 l 691 224 l 823 685 l 954 685 m 618 1008 l 663 907 l 380 787 l 352 860 l 618 1008 z "},"Ẅ":{"ha":1227,"x_min":14,"x_max":1213,"o":"m 1213 926 l 966 0 l 791 0 l 606 681 l 439 0 l 267 0 l 14 926 l 191 926 l 370 251 l 537 926 l 706 926 l 890 251 l 1066 926 l 1213 926 m 499 1025 q 445 1047 467 1025 q 424 1098 424 1068 q 445 1151 424 1128 q 499 1173 466 1173 q 553 1153 530 1173 q 576 1099 576 1133 q 554 1045 576 1065 q 499 1025 531 1025 m 726 1025 q 672 1047 693 1025 q 650 1098 650 1069 q 672 1151 650 1128 q 726 1173 693 1173 q 780 1153 757 1173 q 804 1099 804 1133 q 781 1045 804 1065 q 726 1025 758 1025 z "},"ẅ":{"ha":968,"x_min":14,"x_max":954,"o":"m 954 685 l 753 0 l 614 0 l 490 480 l 368 0 l 224 0 l 14 685 l 178 685 l 313 224 l 431 685 l 571 685 l 691 224 l 823 685 l 954 685 m 387 806 q 333 827 355 806 q 312 878 312 848 q 333 931 312 908 q 387 954 354 954 q 441 933 418 954 q 465 879 465 913 q 442 825 465 845 q 387 806 419 806 m 614 806 q 560 827 581 806 q 538 878 538 849 q 560 931 538 908 q 614 954 581 954 q 668 933 645 954 q 692 879 692 913 q 669 825 692 845 q 614 806 646 806 z "},"Ỳ":{"ha":755,"x_min":-18,"x_max":774,"o":"m 474 0 l 297 0 l 297 391 l -18 926 l 184 926 l 404 544 l 614 926 l 774 926 l 474 391 l 474 0 m 271 1221 l 538 1072 l 509 1000 l 227 1119 l 271 1221 z "},"ỳ":{"ha":614,"x_min":9,"x_max":604,"o":"m 604 685 l 338 -95 q 271 -207 313 -167 q 151 -246 229 -246 q 62 -241 121 -246 l 62 -119 l 136 -120 q 209 -104 185 -120 q 245 -47 232 -88 q 259 0 259 -7 q 245 42 259 4 l 9 685 l 172 685 l 338 233 l 481 685 l 604 685 m 215 1008 l 481 860 l 453 787 l 170 907 l 215 1008 z "},"―":{"ha":926,"x_min":-48,"x_max":974,"o":"m 974 416 l 974 291 l -48 291 l -48 416 l 974 416 z "},"‗":{"ha":694,"x_min":0,"x_max":694,"o":"m 0 -68 l 694 -68 l 694 -166 l 0 -166 l 0 -68 m 0 -231 l 694 -231 l 694 -329 l 0 -329 l 0 -231 z "},"‛":{"ha":334,"x_min":90,"x_max":244,"o":"m 90 926 l 244 926 l 244 773 l 170 773 l 244 591 l 193 591 l 90 773 l 90 926 z "},"′":{"ha":297,"x_min":37,"x_max":296,"o":"m 144 554 l 37 554 l 144 926 l 296 926 l 144 554 z "},"″":{"ha":526,"x_min":28,"x_max":562,"o":"m 135 554 l 28 554 l 136 926 l 288 926 l 135 554 m 410 554 l 303 554 l 410 926 l 562 926 l 410 554 z "},"‼":{"ha":694,"x_min":88,"x_max":606,"o":"m 260 926 l 260 679 l 217 275 l 134 275 l 91 677 l 91 926 l 260 926 m 603 926 l 603 679 l 559 275 l 477 275 l 434 677 l 434 926 l 603 926 m 263 188 l 263 0 l 88 0 l 88 188 l 263 188 m 606 188 l 606 0 l 431 0 l 431 188 l 606 188 z "},"‾":{"ha":770,"x_min":-28,"x_max":798,"o":"m -28 1267 l 798 1267 l 798 1217 l -28 1217 l -28 1267 z "},"⁄":{"ha":148,"x_min":-257,"x_max":405,"o":"m -257 0 l 315 926 l 405 926 l -167 0 l -257 0 z "},"ⁿ":{"ha":496,"x_min":64,"x_max":432,"o":"m 432 370 l 321 370 l 321 627 q 262 703 321 703 q 201 673 227 703 q 176 583 176 643 l 176 370 l 64 370 l 64 784 l 167 784 l 170 720 q 238 783 209 774 q 295 792 268 792 q 390 757 348 792 q 432 636 432 722 l 432 370 z "},"₤":{"ha":814,"x_min":-17,"x_max":817,"o":"m 95 302 l 95 405 l 204 405 l 195 488 l 95 488 l 95 590 l 182 590 q 176 659 176 633 q 254 860 176 779 q 456 940 332 940 q 722 771 640 940 l 591 710 q 463 814 559 814 q 374 776 405 814 q 344 677 344 738 q 353 590 344 652 l 534 590 l 534 488 l 364 488 q 367 405 367 454 l 534 405 l 534 302 l 355 302 q 262 154 338 220 l 439 154 q 621 188 577 154 q 671 285 665 221 l 817 212 q 745 88 789 136 q 648 20 701 41 q 500 0 594 0 l -17 0 l -17 154 q 102 167 63 155 q 171 218 140 179 q 209 302 202 258 l 95 302 z "},"₧":{"ha":1421,"x_min":102,"x_max":1394,"o":"m 269 0 l 102 0 l 102 926 l 435 926 q 591 900 523 926 q 706 807 659 875 q 753 651 753 739 q 668 446 753 524 q 454 367 583 367 l 269 367 l 269 0 m 269 510 l 420 510 q 538 548 497 510 q 578 649 578 586 q 543 744 578 700 q 405 787 508 787 l 269 787 l 269 510 m 970 81 l 970 1 q 895 -9 921 -9 q 800 23 833 -9 q 768 129 768 56 l 768 333 l 715 333 l 715 414 l 774 414 l 783 518 l 876 526 l 876 414 l 962 414 l 962 333 l 876 333 l 876 140 q 885 97 876 113 q 939 80 894 80 q 970 81 952 80 m 1011 101 l 1115 119 q 1202 69 1135 69 q 1283 115 1283 69 q 1243 151 1283 143 l 1165 164 q 1029 289 1029 189 q 1073 383 1029 345 q 1200 422 1116 422 q 1374 320 1341 422 l 1274 301 q 1202 347 1262 347 q 1133 309 1133 347 q 1188 268 1133 279 l 1280 250 q 1394 130 1394 228 q 1336 26 1394 60 q 1200 -8 1279 -8 q 1011 101 1049 -8 z "},"℅":{"ha":1272,"x_min":73,"x_max":1199,"o":"m 381 646 l 480 637 q 282 465 439 465 q 127 534 182 465 q 73 703 73 604 q 132 874 73 807 q 290 941 191 941 q 480 781 450 941 l 381 768 q 296 852 370 852 q 217 807 241 852 q 193 700 193 762 q 289 560 193 560 q 381 646 359 560 m 290 0 l 861 926 l 951 926 l 380 0 l 290 0 m 968 -16 q 804 58 860 -16 q 747 224 747 131 q 810 393 747 326 q 975 460 873 460 q 1136 394 1074 460 q 1199 224 1199 328 q 1134 50 1199 116 q 968 -16 1068 -16 m 972 74 q 1078 225 1078 74 q 975 372 1078 372 q 867 223 867 372 q 972 74 867 74 z "},"ℓ":{"ha":814,"x_min":191,"x_max":665,"o":"m 422 371 q 382 111 382 159 q 404 68 382 68 q 465 137 433 68 q 494 164 477 164 q 516 138 516 164 q 470 34 516 88 q 366 -20 423 -20 q 262 146 262 -20 q 268 258 262 191 q 216 217 225 217 q 198 227 206 217 q 191 248 191 236 q 213 288 191 265 q 278 360 242 317 q 391 772 321 603 q 563 941 461 941 q 637 906 610 941 q 665 816 665 872 q 422 371 665 615 m 441 486 q 551 650 510 563 q 591 804 591 736 q 564 861 591 861 q 441 486 507 861 z "},"№":{"ha":1389,"x_min":102,"x_max":1324,"o":"m 801 0 l 648 0 l 286 591 q 261 642 279 602 q 236 692 253 659 l 236 0 l 102 0 l 102 926 l 286 926 l 610 380 q 669 270 614 374 l 669 926 l 801 926 l 801 0 m 1103 252 q 948 319 1005 252 q 892 479 892 385 q 952 640 892 576 q 1111 704 1012 704 q 1266 640 1207 704 q 1324 479 1324 576 q 1262 315 1324 378 q 1103 252 1200 252 m 1107 347 q 1197 480 1197 347 q 1110 609 1197 609 q 1019 478 1019 609 q 1107 347 1019 347 m 1314 127 l 1314 0 l 911 0 l 911 127 l 1314 127 z "},"℮":{"ha":833,"x_min":61,"x_max":779,"o":"m 218 360 l 218 109 q 420 26 299 26 q 688 193 592 26 l 736 164 q 579 13 656 49 q 420 -23 503 -23 q 162 84 262 -23 q 61 360 61 192 q 162 637 61 531 q 420 743 264 743 q 668 647 565 743 q 779 360 771 551 l 218 360 m 622 410 l 622 612 q 418 694 538 694 q 218 611 300 694 l 218 410 l 622 410 z "},"⅛":{"ha":1222,"x_min":39,"x_max":1197,"o":"m 460 370 l 41 370 l 41 460 l 199 460 l 199 791 q 39 695 116 724 l 39 804 q 237 937 178 848 l 314 937 l 314 460 l 460 460 l 460 370 m 257 0 l 829 926 l 928 926 l 357 0 l 257 0 m 840 275 q 745 406 745 319 q 803 519 745 474 q 965 564 861 564 q 1117 524 1059 564 q 1175 418 1175 484 q 1078 299 1175 339 q 1197 156 1197 250 q 1133 39 1197 85 q 958 -8 1069 -8 q 786 34 847 -8 q 724 143 724 75 q 840 275 724 233 m 993 332 q 1070 414 1070 362 q 1038 468 1070 449 q 966 486 1005 486 q 892 470 924 486 q 861 420 861 453 q 897 368 861 385 q 993 332 934 350 m 924 237 q 835 149 835 204 q 868 96 835 118 q 963 73 902 73 q 1048 92 1017 73 q 1080 142 1080 111 q 1054 187 1080 168 q 924 237 1027 207 z "},"⅜":{"ha":1222,"x_min":20,"x_max":1197,"o":"m 184 612 l 184 699 l 242 699 q 319 718 288 699 q 350 774 350 736 q 257 846 350 846 q 142 767 172 846 l 37 785 q 114 893 54 852 q 260 935 175 935 q 404 893 344 935 q 463 784 463 852 q 376 660 463 694 q 481 528 481 623 q 420 409 481 456 q 256 362 358 362 q 99 408 161 362 q 20 516 37 453 l 129 541 q 254 448 158 448 q 335 472 305 448 q 364 528 364 495 q 338 587 364 562 q 260 612 313 612 l 184 612 m 275 0 l 847 926 l 947 926 l 375 0 l 275 0 m 841 275 q 745 406 745 319 q 803 519 745 474 q 965 564 861 564 q 1117 524 1059 564 q 1175 418 1175 484 q 1078 299 1175 339 q 1197 156 1197 250 q 1133 39 1197 85 q 958 -8 1069 -8 q 786 34 847 -8 q 725 143 725 75 q 841 275 725 233 m 994 332 q 1070 414 1070 362 q 1038 468 1070 450 q 966 486 1005 486 q 892 470 924 486 q 861 420 861 453 q 897 368 861 385 q 994 332 934 350 m 925 237 q 835 149 835 205 q 868 96 835 118 q 964 73 902 73 q 1048 92 1017 73 q 1080 142 1080 111 q 1054 187 1080 168 q 925 237 1027 207 z "},"⅝":{"ha":1222,"x_min":15,"x_max":1193,"o":"m 75 926 l 447 926 l 437 831 l 161 831 l 146 692 q 277 745 195 745 q 423 690 364 745 q 482 557 482 634 q 420 420 482 477 q 250 362 357 362 q 15 520 56 362 l 125 535 q 245 451 153 451 q 329 482 299 451 q 359 557 359 513 q 329 631 359 602 q 253 661 299 661 q 142 597 180 661 l 41 616 l 75 926 m 276 0 l 848 926 l 947 926 l 376 0 l 276 0 m 836 275 q 741 406 741 319 q 799 519 741 474 q 961 564 857 564 q 1113 524 1056 564 q 1171 418 1171 484 q 1074 299 1171 338 q 1193 156 1193 250 q 1129 39 1193 85 q 954 -8 1065 -8 q 782 34 843 -8 q 720 143 720 75 q 836 275 720 233 m 989 332 q 1066 414 1066 362 q 1034 468 1066 449 q 961 486 1001 486 q 888 470 920 486 q 857 420 857 453 q 893 368 857 385 q 989 332 930 350 m 920 237 q 831 149 831 204 q 864 96 831 118 q 959 73 898 73 q 1044 92 1013 73 q 1076 142 1076 111 q 1049 187 1076 168 q 920 237 1022 207 z "},"⅞":{"ha":1222,"x_min":35,"x_max":1179,"o":"m 45 926 l 468 926 l 468 849 q 325 623 360 720 q 282 370 290 526 l 153 370 q 363 831 167 637 l 35 831 l 45 926 m 211 0 l 782 926 l 882 926 l 311 0 l 211 0 m 822 275 q 726 406 726 319 q 784 519 726 474 q 946 564 842 564 q 1099 524 1042 564 q 1156 418 1156 484 q 1059 299 1156 339 q 1179 156 1179 250 q 1114 38 1179 85 q 940 -8 1050 -8 q 767 34 829 -8 q 706 143 706 75 q 822 275 706 233 m 975 332 q 1051 414 1051 362 q 1019 468 1051 449 q 947 486 987 486 q 873 470 905 486 q 842 420 842 453 q 879 368 842 385 q 975 332 916 350 m 906 237 q 816 149 816 204 q 849 96 816 118 q 945 73 883 73 q 1030 92 998 73 q 1062 141 1062 111 q 1035 187 1062 168 q 906 237 1008 207 z "},"←":{"ha":1389,"x_min":54,"x_max":1335,"o":"m 334 594 l 385 594 q 253 385 330 479 l 1335 385 l 1335 316 l 253 316 q 387 106 322 247 l 334 106 q 54 338 183 278 l 54 368 q 334 594 174 416 z "},"↑":{"ha":694,"x_min":104,"x_max":591,"o":"m 104 628 q 330 908 281 789 l 361 908 q 591 627 420 779 l 591 575 q 382 709 451 640 l 382 -291 l 313 -291 l 313 709 q 104 576 219 631 l 104 628 z "},"→":{"ha":1389,"x_min":54,"x_max":1335,"o":"m 1055 594 q 1335 368 1215 416 l 1335 338 q 1054 106 1205 278 l 1002 106 q 1135 316 1066 247 l 54 316 l 54 385 l 1135 385 q 1003 594 1058 479 l 1055 594 z "},"↓":{"ha":694,"x_min":104,"x_max":591,"o":"m 104 -11 l 104 41 q 313 -92 219 -14 l 313 908 l 382 908 l 382 -92 q 591 42 451 -22 l 591 -10 q 361 -291 420 -161 l 330 -291 q 104 -11 281 -172 z "},"↔":{"ha":1389,"x_min":54,"x_max":1335,"o":"m 1335 366 l 1335 336 q 1059 107 1212 282 l 1005 107 q 1137 318 1052 224 l 252 318 q 383 107 336 224 l 329 107 q 54 336 177 282 l 54 366 q 329 595 177 420 l 383 595 q 252 385 336 479 l 1137 385 q 1005 595 1052 479 l 1059 595 q 1335 366 1212 420 z "},"↕":{"ha":694,"x_min":103,"x_max":591,"o":"m 332 992 l 362 992 q 591 716 416 869 l 591 662 q 380 794 475 709 l 380 -92 q 591 40 475 -6 l 591 -14 q 362 -290 416 -166 l 332 -290 q 103 -14 278 -166 l 103 40 q 314 -92 219 -6 l 314 794 q 103 662 219 709 l 103 716 q 332 992 278 869 z "},"↨":{"ha":694,"x_min":103,"x_max":591,"o":"m 332 992 l 362 992 q 591 716 416 869 l 591 662 q 380 794 475 709 l 380 -92 q 591 40 475 -6 l 591 -14 q 362 -290 416 -166 l 332 -290 q 103 -14 278 -166 l 103 40 q 314 -92 219 -6 l 314 794 q 103 662 219 709 l 103 716 q 332 992 278 869 m 104 -354 l 591 -354 l 591 -420 l 104 -420 l 104 -354 z "},"∟":{"ha":1360,"x_min":245,"x_max":1114,"o":"m 245 867 l 313 867 l 313 68 l 1114 68 l 1114 0 l 245 0 l 245 867 z "},"∩":{"ha":998,"x_min":130,"x_max":869,"o":"m 205 0 l 130 0 l 130 321 q 139 574 130 500 q 191 716 148 647 q 318 832 233 785 q 499 880 403 880 q 681 832 597 880 q 807 719 766 785 q 859 578 849 652 q 869 321 869 505 l 869 0 l 795 0 l 795 326 q 787 551 795 483 q 746 675 779 620 q 645 769 713 730 q 499 808 576 808 q 353 768 422 808 q 253 675 284 729 q 213 552 221 622 q 205 326 205 483 l 205 0 z "},"≡":{"ha":814,"x_min":127,"x_max":728,"o":"m 127 754 l 728 754 l 728 613 l 127 613 l 127 754 m 127 538 l 728 538 l 728 396 l 127 396 l 127 538 m 127 321 l 728 321 l 728 180 l 127 180 l 127 321 z "},"⌂":{"ha":833,"x_min":104,"x_max":730,"o":"m 104 0 l 104 430 l 416 782 l 730 430 l 730 0 l 104 0 m 159 55 l 675 55 l 675 407 l 416 696 l 159 407 l 159 55 z "},"⌐":{"ha":814,"x_min":106,"x_max":708,"o":"m 264 0 l 264 229 l 708 229 l 708 370 l 106 370 l 106 0 l 264 0 z "},"⌠":{"ha":839,"x_min":370,"x_max":662,"o":"m 469 -349 l 370 -349 l 370 879 q 431 1103 370 1027 q 568 1178 492 1178 q 638 1156 614 1178 q 662 1104 662 1134 q 645 1059 662 1077 q 602 1042 627 1042 q 564 1052 582 1042 q 535 1083 551 1059 q 504 1108 519 1108 q 483 1100 492 1108 q 473 1082 476 1095 q 469 987 469 1059 l 469 -349 z "},"⌡":{"ha":839,"x_min":177,"x_max":469,"o":"m 370 1178 l 469 1178 l 469 -50 q 408 -274 469 -199 q 271 -349 347 -349 q 201 -327 225 -349 q 177 -275 177 -305 q 194 -231 177 -248 q 236 -213 212 -213 q 276 -224 257 -213 q 304 -255 288 -231 q 335 -279 319 -279 q 356 -272 347 -279 q 366 -252 363 -267 q 370 -159 370 -231 l 370 1178 z "},"─":{"ha":984,"x_min":-16,"x_max":999,"o":"m 999 362 l -16 362 l -16 481 l 999 481 l 999 362 z "},"│":{"ha":984,"x_min":433,"x_max":551,"o":"m 433 -421 l 433 1264 l 551 1264 l 551 -421 l 433 -421 z "},"┌":{"ha":984,"x_min":433,"x_max":1000,"o":"m 1000 481 l 1000 362 l 551 362 l 551 -421 l 433 -421 l 433 481 l 1000 481 z "},"┐":{"ha":984,"x_min":-16,"x_max":551,"o":"m 432 362 l -16 362 l -16 481 l 551 481 l 551 -421 l 432 -421 l 432 362 z "},"└":{"ha":984,"x_min":433,"x_max":1000,"o":"m 433 362 l 433 1264 l 551 1264 l 551 481 l 1000 481 l 1000 362 l 433 362 z "},"┘":{"ha":984,"x_min":-16,"x_max":551,"o":"m 551 362 l -16 362 l -16 481 l 432 481 l 432 1264 l 551 1264 l 551 362 z "},"├":{"ha":984,"x_min":433,"x_max":1000,"o":"m 433 -421 l 433 1264 l 551 1264 l 551 481 l 1000 481 l 1000 362 l 551 362 l 551 -421 l 433 -421 z "},"┤":{"ha":984,"x_min":-16,"x_max":551,"o":"m 432 -421 l 432 362 l -16 362 l -16 481 l 432 481 l 432 1264 l 551 1264 l 551 -421 l 432 -421 z "},"┬":{"ha":984,"x_min":-16,"x_max":999,"o":"m 432 362 l -16 362 l -16 481 l 999 481 l 999 362 l 551 362 l 551 -421 l 432 -421 l 432 362 z "},"┴":{"ha":984,"x_min":-16,"x_max":999,"o":"m 999 362 l -16 362 l -16 481 l 432 481 l 432 1264 l 551 1264 l 551 481 l 999 481 l 999 362 z "},"┼":{"ha":984,"x_min":-16,"x_max":999,"o":"m 432 362 l -16 362 l -16 481 l 432 481 l 432 1264 l 551 1264 l 551 481 l 999 481 l 999 362 l 551 362 l 551 -421 l 432 -421 l 432 362 z "},"═":{"ha":984,"x_min":-16,"x_max":999,"o":"m 999 491 l -16 491 l -16 610 l 999 610 l 999 491 m 999 233 l -16 233 l -16 352 l 999 352 l 999 233 z "},"║":{"ha":984,"x_min":304,"x_max":681,"o":"m 562 -421 l 562 1264 l 681 1264 l 681 -421 l 562 -421 m 304 -421 l 304 1264 l 422 1264 l 422 -421 l 304 -421 z "},"╒":{"ha":984,"x_min":433,"x_max":1000,"o":"m 433 -421 l 433 610 l 1000 610 l 1000 491 l 551 491 l 551 352 l 1000 352 l 1000 233 l 551 233 l 551 -421 l 433 -421 z "},"╓":{"ha":984,"x_min":304,"x_max":1000,"o":"m 304 -421 l 304 481 l 1000 481 l 1000 362 l 681 362 l 681 -421 l 562 -421 l 562 362 l 422 362 l 422 -421 l 304 -421 z "},"╔":{"ha":984,"x_min":304,"x_max":1000,"o":"m 422 -421 l 304 -421 l 304 610 l 1000 610 l 1000 491 l 422 491 l 422 -421 m 681 233 l 681 -421 l 562 -421 l 562 352 l 1000 352 l 1000 233 l 681 233 z "},"╕":{"ha":984,"x_min":-16,"x_max":551,"o":"m 432 233 l -16 233 l -16 352 l 432 352 l 432 491 l -16 491 l -16 610 l 551 610 l 551 -421 l 432 -421 l 432 233 z "},"╖":{"ha":984,"x_min":-16,"x_max":680,"o":"m 304 -421 l 304 362 l -16 362 l -16 481 l 680 481 l 680 -421 l 562 -421 l 562 362 l 422 362 l 422 -421 l 304 -421 z "},"╗":{"ha":984,"x_min":-16,"x_max":680,"o":"m 562 -421 l 562 491 l -16 491 l -16 610 l 680 610 l 680 -421 l 562 -421 m 303 233 l -16 233 l -16 352 l 422 352 l 422 -421 l 303 -421 l 303 233 z "},"╘":{"ha":984,"x_min":433,"x_max":1000,"o":"m 433 233 l 433 1264 l 551 1264 l 551 610 l 1000 610 l 1000 491 l 551 491 l 551 352 l 1000 352 l 1000 233 l 433 233 z "},"╙":{"ha":984,"x_min":304,"x_max":1000,"o":"m 1000 362 l 304 362 l 304 1264 l 422 1264 l 422 481 l 562 481 l 562 1264 l 681 1264 l 681 481 l 1000 481 l 1000 362 z "},"╚":{"ha":984,"x_min":304,"x_max":1000,"o":"m 422 1264 l 422 352 l 999 352 l 999 233 l 304 233 l 304 1264 l 422 1264 m 681 610 l 1000 610 l 1000 491 l 562 491 l 562 1264 l 681 1264 l 681 610 z "},"╛":{"ha":984,"x_min":-16,"x_max":551,"o":"m 551 233 l -16 233 l -16 352 l 432 352 l 432 491 l -16 491 l -16 610 l 432 610 l 432 1264 l 551 1264 l 551 233 z "},"╜":{"ha":984,"x_min":-16,"x_max":680,"o":"m 680 362 l -16 362 l -16 481 l 303 481 l 303 1264 l 422 1264 l 422 481 l 562 481 l 562 1264 l 680 1264 l 680 362 z "},"╝":{"ha":984,"x_min":-16,"x_max":680,"o":"m 562 1264 l 680 1264 l 680 233 l -16 233 l -16 352 l 562 352 l 562 1264 m 303 610 l 303 1264 l 422 1264 l 422 491 l -16 491 l -16 610 l 303 610 z "},"╞":{"ha":984,"x_min":433,"x_max":1000,"o":"m 433 -421 l 433 1264 l 551 1264 l 551 610 l 1000 610 l 1000 491 l 551 491 l 551 352 l 1000 352 l 1000 233 l 551 233 l 551 -421 l 433 -421 z "},"╟":{"ha":984,"x_min":304,"x_max":1000,"o":"m 562 -421 l 562 1264 l 681 1264 l 681 481 l 1000 481 l 1000 362 l 681 362 l 681 -421 l 562 -421 m 304 -421 l 304 1264 l 422 1264 l 422 -421 l 304 -421 z "},"╠":{"ha":984,"x_min":304,"x_max":1000,"o":"m 304 -421 l 304 1264 l 422 1264 l 422 -421 l 304 -421 m 562 491 l 562 1264 l 681 1264 l 681 610 l 1000 610 l 1000 491 l 562 491 m 562 -421 l 562 352 l 1000 352 l 1000 233 l 681 233 l 681 -421 l 562 -421 z "},"╡":{"ha":984,"x_min":-16,"x_max":551,"o":"m 432 233 l -16 233 l -16 352 l 432 352 l 432 491 l -16 491 l -16 610 l 432 610 l 432 1264 l 551 1264 l 551 -421 l 432 -421 l 432 233 z "},"╢":{"ha":984,"x_min":-16,"x_max":680,"o":"m 303 -421 l 304 362 l -16 362 l -16 481 l 303 481 l 303 1264 l 422 1264 l 422 -421 l 303 -421 m 562 -421 l 562 1264 l 680 1264 l 680 -421 l 562 -421 z "},"╣":{"ha":984,"x_min":-16,"x_max":680,"o":"m 562 -421 l 562 1264 l 680 1264 l 680 -421 l 562 -421 m 422 1264 l 422 491 l -16 491 l -16 610 l 303 610 l 303 1264 l 422 1264 m 303 233 l -16 233 l -16 352 l 422 352 l 422 -421 l 303 -421 l 303 233 z "},"╤":{"ha":984,"x_min":-16,"x_max":999,"o":"m 999 491 l -16 491 l -16 610 l 999 610 l 999 491 m 432 233 l -16 233 l -16 352 l 999 352 l 999 233 l 551 233 l 551 -421 l 432 -421 l 432 233 z "},"╥":{"ha":984,"x_min":-16,"x_max":999,"o":"m 303 -421 l 303 362 l -16 362 l -16 481 l 999 481 l 999 362 l 680 362 l 680 -421 l 562 -421 l 562 362 l 422 362 l 422 -421 l 303 -421 z "},"╦":{"ha":984,"x_min":-16,"x_max":999,"o":"m 999 491 l -16 491 l -16 610 l 999 610 l 999 491 m 303 233 l -16 233 l -16 352 l 422 352 l 422 -421 l 303 -421 l 303 233 m 562 -421 l 562 352 l 999 352 l 999 233 l 680 233 l 680 -421 l 562 -421 z "},"╧":{"ha":984,"x_min":-16,"x_max":999,"o":"m 999 491 l -16 491 l -16 610 l 432 610 l 432 1264 l 551 1264 l 551 610 l 999 610 l 999 491 m 999 233 l -16 233 l -16 352 l 999 352 l 999 233 z "},"╨":{"ha":984,"x_min":-16,"x_max":999,"o":"m 999 362 l -16 362 l -16 481 l 303 481 l 303 1264 l 422 1264 l 422 481 l 562 481 l 562 1264 l 680 1264 l 680 481 l 999 481 l 999 362 z "},"╩":{"ha":984,"x_min":-16,"x_max":999,"o":"m 422 491 l -16 491 l -16 610 l 303 610 l 303 1264 l 422 1264 l 422 491 m 999 491 l 562 491 l 562 1264 l 680 1264 l 680 610 l 999 610 l 999 491 m 999 233 l -16 233 l -16 352 l 999 352 l 999 233 z "},"╪":{"ha":984,"x_min":-16,"x_max":999,"o":"m 432 233 l -16 233 l -16 352 l 432 352 l 432 491 l -16 491 l -16 610 l 432 610 l 432 1264 l 551 1264 l 551 610 l 999 610 l 999 491 l 551 491 l 551 352 l 999 352 l 999 233 l 551 233 l 551 -421 l 432 -421 l 432 233 z "},"╫":{"ha":984,"x_min":-16,"x_max":999,"o":"m 303 -421 l 303 362 l -16 362 l -16 481 l 303 481 l 303 1264 l 422 1264 l 422 481 l 562 481 l 562 1264 l 680 1264 l 680 481 l 999 481 l 999 362 l 680 362 l 680 -421 l 562 -421 l 562 362 l 422 362 l 422 -421 l 303 -421 z "},"╬":{"ha":984,"x_min":-16,"x_max":999,"o":"m 680 610 l 999 610 l 999 491 l 562 491 l 562 1264 l 680 1264 l 680 610 m 303 610 l 303 1264 l 422 1264 l 422 491 l -16 491 l -16 610 l 303 610 m 303 233 l -16 233 l -16 352 l 422 352 l 422 -421 l 303 -421 l 303 233 m 680 233 l 680 -421 l 562 -421 l 562 352 l 999 352 l 999 233 l 680 233 z "},"▀":{"ha":984,"x_min":-16,"x_max":999,"o":"m 999 421 l -16 421 l -16 1264 l 999 1264 l 999 421 z "},"▄":{"ha":984,"x_min":-16,"x_max":999,"o":"m 999 -421 l -16 -421 l -16 421 l 999 421 l 999 -421 z "},"█":{"ha":984,"x_min":-16,"x_max":999,"o":"m -16 -421 l -16 1264 l 999 1264 l 999 -421 l -16 -421 z "},"▌":{"ha":984,"x_min":-16,"x_max":492,"o":"m -16 -421 l -16 1264 l 492 1264 l 492 -421 l -16 -421 z "},"▐":{"ha":984,"x_min":492,"x_max":1000,"o":"m 492 -421 l 492 1264 l 1000 1264 l 1000 -421 l 492 -421 z "},"░":{"ha":984,"x_min":0,"x_max":900,"o":"m 0 1264 l 82 1264 l 82 1179 l 0 1179 l 0 1264 m 327 1264 l 409 1264 l 409 1179 l 327 1179 l 327 1264 m 654 1264 l 736 1264 l 736 1179 l 654 1179 l 654 1264 m 163 1095 l 245 1095 l 245 1010 l 163 1010 l 163 1095 m 490 1095 l 572 1095 l 572 1010 l 490 1010 l 490 1095 m 818 1095 l 900 1095 l 900 1010 l 818 1010 l 818 1095 m 654 926 l 736 926 l 736 842 l 654 842 l 654 926 m 327 926 l 409 926 l 409 842 l 327 842 l 327 926 m 0 926 l 82 926 l 82 842 l 0 842 l 0 926 m 818 758 l 900 758 l 900 673 l 818 673 l 818 758 m 490 758 l 572 758 l 572 673 l 490 673 l 490 758 m 163 758 l 245 758 l 245 673 l 163 673 l 163 758 m 0 588 l 82 588 l 82 503 l 0 503 l 0 588 m 327 588 l 409 588 l 409 503 l 327 503 l 327 588 m 654 588 l 736 588 l 736 503 l 654 503 l 654 588 m 818 419 l 900 419 l 900 334 l 818 334 l 818 419 m 490 419 l 572 419 l 572 334 l 490 334 l 490 419 m 163 419 l 245 419 l 245 334 l 163 334 l 163 419 m 0 250 l 82 250 l 82 165 l 0 165 l 0 250 m 327 250 l 409 250 l 409 165 l 327 165 l 327 250 m 654 250 l 736 250 l 736 165 l 654 165 l 654 250 m 163 81 l 245 81 l 245 -3 l 163 -3 l 163 81 m 490 81 l 572 81 l 572 -3 l 490 -3 l 490 81 m 818 81 l 900 81 l 900 -3 l 818 -3 l 818 81 m 654 -88 l 736 -88 l 736 -173 l 654 -173 l 654 -88 m 327 -88 l 409 -88 l 409 -173 l 327 -173 l 327 -88 m 0 -88 l 82 -88 l 82 -173 l 0 -173 l 0 -88 m 163 -257 l 245 -257 l 245 -342 l 163 -342 l 163 -257 m 490 -257 l 572 -257 l 572 -342 l 490 -342 l 490 -257 m 818 -257 l 900 -257 l 900 -342 l 818 -342 l 818 -257 z "},"▒":{"ha":984,"x_min":0,"x_max":981,"o":"m 82 1264 l 163 1264 l 163 1179 l 82 1179 l 82 1264 m 245 1264 l 327 1264 l 327 1179 l 245 1179 l 245 1264 m 409 1264 l 491 1264 l 491 1179 l 409 1179 l 409 1264 m 572 1264 l 654 1264 l 654 1179 l 572 1179 l 572 1264 m 736 1264 l 818 1264 l 818 1179 l 736 1179 l 736 1264 m 900 1264 l 981 1264 l 981 1179 l 900 1179 l 900 1264 m 0 1095 l 82 1095 l 82 1010 l 0 1010 l 0 1095 m 163 1095 l 245 1095 l 245 1010 l 163 1010 l 163 1095 m 327 1095 l 409 1095 l 409 1010 l 327 1010 l 327 1095 m 491 1095 l 572 1095 l 572 1010 l 491 1010 l 491 1095 m 654 1095 l 736 1095 l 736 1010 l 654 1010 l 654 1095 m 818 1095 l 900 1095 l 900 1010 l 818 1010 l 818 1095 m 82 926 l 163 926 l 163 842 l 82 842 l 82 926 m 245 926 l 327 926 l 327 842 l 245 842 l 245 926 m 409 926 l 491 926 l 491 842 l 409 842 l 409 926 m 572 926 l 654 926 l 654 842 l 572 842 l 572 926 m 736 926 l 818 926 l 818 842 l 736 842 l 736 926 m 900 926 l 981 926 l 981 842 l 900 842 l 900 926 m 163 757 l 245 757 l 245 673 l 163 673 l 163 757 m 327 757 l 409 757 l 409 673 l 327 673 l 327 757 m 491 757 l 572 757 l 572 673 l 491 673 l 491 757 m 654 757 l 736 757 l 736 673 l 654 673 l 654 757 m 818 757 l 900 757 l 900 673 l 818 673 l 818 757 m 0 757 l 82 757 l 82 673 l 0 673 l 0 757 m 82 588 l 163 588 l 163 503 l 82 503 l 82 588 m 245 588 l 327 588 l 327 503 l 245 503 l 245 588 m 409 588 l 491 588 l 491 503 l 409 503 l 409 588 m 572 588 l 654 588 l 654 503 l 572 503 l 572 588 m 736 588 l 818 588 l 818 503 l 736 503 l 736 588 m 900 588 l 981 588 l 981 503 l 900 503 l 900 588 m 0 419 l 82 419 l 82 334 l 0 334 l 0 419 m 327 419 l 409 419 l 409 334 l 327 334 l 327 419 m 491 419 l 572 419 l 572 334 l 491 334 l 491 419 m 654 419 l 736 419 l 736 334 l 654 334 l 654 419 m 818 419 l 900 419 l 900 334 l 818 334 l 818 419 m 163 419 l 245 419 l 245 334 l 163 334 l 163 419 m 900 250 l 981 250 l 981 165 l 900 165 l 900 250 m 736 250 l 818 250 l 818 165 l 736 165 l 736 250 m 572 250 l 654 250 l 654 165 l 572 165 l 572 250 m 409 250 l 491 250 l 491 165 l 409 165 l 409 250 m 245 250 l 327 250 l 327 165 l 245 165 l 245 250 m 82 250 l 163 250 l 163 165 l 82 165 l 82 250 m 0 81 l 82 81 l 82 -3 l 0 -3 l 0 81 m 163 81 l 245 81 l 245 -3 l 163 -3 l 163 81 m 327 81 l 409 81 l 409 -3 l 327 -3 l 327 81 m 491 81 l 572 81 l 572 -3 l 491 -3 l 491 81 m 654 81 l 736 81 l 736 -3 l 654 -3 l 654 81 m 818 81 l 900 81 l 900 -3 l 818 -3 l 818 81 m 900 -88 l 981 -88 l 981 -173 l 900 -173 l 900 -88 m 736 -88 l 818 -88 l 818 -173 l 736 -173 l 736 -88 m 572 -88 l 654 -88 l 654 -173 l 572 -173 l 572 -88 m 409 -88 l 491 -88 l 491 -173 l 409 -173 l 409 -88 m 245 -88 l 327 -88 l 327 -173 l 245 -173 l 245 -88 m 82 -88 l 163 -88 l 163 -173 l 82 -173 l 82 -88 m 0 -257 l 82 -257 l 82 -342 l 0 -342 l 0 -257 m 163 -257 l 245 -257 l 245 -342 l 163 -342 l 163 -257 m 327 -257 l 409 -257 l 409 -342 l 327 -342 l 327 -257 m 491 -257 l 572 -257 l 572 -342 l 491 -342 l 491 -257 m 654 -258 l 736 -257 l 736 -342 l 654 -342 l 654 -258 m 818 -257 l 900 -257 l 900 -342 l 818 -342 l 818 -257 z "},"▓":{"ha":984,"x_min":0,"x_max":981,"o":"m 981 1010 l 981 757 l 900 757 l 900 673 l 981 673 l 981 419 l 900 419 l 900 334 l 981 334 l 981 81 l 900 81 l 900 -3 l 981 -3 l 981 -257 l 900 -257 l 900 -342 l 981 -342 l 981 -426 l 0 -426 l 0 -173 l 82 -173 l 82 -88 l 0 -88 l 0 165 l 82 165 l 82 250 l 0 250 l 0 503 l 82 503 l 82 588 l 0 588 l 0 842 l 82 842 l 82 926 l 0 926 l 0 1179 l 82 1179 l 82 1264 l 163 1264 l 163 1179 l 245 1179 l 245 1264 l 327 1264 l 327 1179 l 409 1179 l 409 1264 l 491 1264 l 491 1179 l 572 1179 l 572 1264 l 654 1264 l 654 1179 l 736 1179 l 736 1264 l 818 1264 l 818 1179 l 900 1179 l 900 1264 l 981 1264 l 981 1095 l 900 1095 l 900 1010 l 981 1010 m 82 1095 l 82 1010 l 163 1010 l 163 1095 l 82 1095 m 245 1095 l 245 1010 l 327 1010 l 327 1095 l 245 1095 m 409 1095 l 409 1010 l 491 1010 l 491 1095 l 409 1095 m 572 1095 l 572 1010 l 654 1010 l 654 1095 l 572 1095 m 736 1095 l 736 1010 l 818 1010 l 818 1095 l 736 1095 m 900 926 l 818 926 l 818 842 l 900 842 l 900 926 m 736 926 l 654 926 l 654 842 l 736 842 l 736 926 m 572 926 l 491 926 l 491 842 l 572 842 l 572 926 m 409 926 l 327 926 l 327 842 l 409 842 l 409 926 m 245 926 l 163 926 l 163 842 l 245 842 l 245 926 m 82 757 l 82 673 l 163 673 l 163 757 l 82 757 m 245 757 l 245 673 l 327 673 l 327 757 l 245 757 m 409 757 l 409 673 l 491 673 l 491 757 l 409 757 m 572 757 l 572 673 l 654 673 l 654 757 l 572 757 m 736 757 l 736 673 l 818 673 l 818 757 l 736 757 m 245 588 l 163 588 l 163 503 l 245 503 l 245 588 m 327 588 l 327 503 l 409 503 l 409 588 l 327 588 m 491 588 l 491 503 l 572 503 l 572 588 l 491 588 m 654 588 l 654 503 l 736 503 l 736 588 l 654 588 m 818 588 l 818 503 l 900 503 l 900 588 l 818 588 m 82 419 l 82 334 l 163 334 l 163 419 l 82 419 m 409 419 l 409 334 l 491 334 l 491 419 l 409 419 m 327 334 l 327 419 l 245 419 l 245 334 l 327 334 m 572 419 l 572 334 l 654 334 l 654 419 l 572 419 m 736 419 l 736 334 l 818 334 l 818 419 l 736 419 m 900 165 l 900 250 l 818 250 l 818 165 l 900 165 m 736 165 l 736 250 l 654 250 l 654 165 l 736 165 m 572 165 l 572 250 l 491 250 l 491 165 l 572 165 m 409 165 l 409 250 l 327 250 l 327 165 l 409 165 m 245 165 l 245 250 l 163 250 l 163 165 l 245 165 m 82 81 l 82 -3 l 163 -3 l 163 81 l 82 81 m 245 81 l 245 -3 l 327 -3 l 327 81 l 245 81 m 409 81 l 409 -3 l 491 -3 l 491 81 l 409 81 m 572 81 l 572 -3 l 654 -3 l 654 81 l 572 81 m 736 81 l 736 -3 l 818 -3 l 818 81 l 736 81 m 900 -173 l 900 -88 l 818 -88 l 818 -173 l 900 -173 m 736 -173 l 736 -88 l 654 -88 l 654 -173 l 736 -173 m 572 -173 l 572 -88 l 491 -88 l 491 -173 l 572 -173 m 409 -173 l 409 -88 l 327 -88 l 327 -173 l 409 -173 m 245 -173 l 245 -88 l 163 -88 l 163 -173 l 245 -173 m 82 -257 l 82 -342 l 163 -342 l 163 -257 l 82 -257 m 245 -257 l 245 -342 l 327 -342 l 327 -257 l 245 -257 m 409 -257 l 409 -342 l 491 -342 l 491 -257 l 409 -257 m 572 -257 l 572 -342 l 654 -342 l 654 -257 l 572 -257 m 736 -257 l 736 -342 l 818 -342 l 818 -257 l 736 -257 z "},"■":{"ha":839,"x_min":99,"x_max":739,"o":"m 99 640 l 739 640 l 739 0 l 99 0 l 99 640 z "},"□":{"ha":839,"x_min":99,"x_max":739,"o":"m 99 640 l 739 640 l 739 0 l 99 0 l 99 640 m 151 589 l 151 52 l 688 52 l 688 589 l 151 589 z "},"▪":{"ha":493,"x_min":62,"x_max":431,"o":"m 431 643 l 431 275 l 62 275 l 62 643 l 431 643 z "},"▫":{"ha":493,"x_min":62,"x_max":431,"o":"m 431 643 l 431 275 l 62 275 l 62 643 l 431 643 m 379 591 l 114 591 l 114 326 l 379 326 l 379 591 z "},"▬":{"ha":1389,"x_min":0,"x_max":1388,"o":"m 0 477 l 1388 477 l 1388 215 l 0 215 l 0 477 z "},"▲":{"ha":1375,"x_min":206,"x_max":1169,"o":"m 206 0 l 688 962 l 1169 0 l 206 0 z "},"►":{"ha":1375,"x_min":195,"x_max":1179,"o":"m 195 961 l 1179 470 l 195 -21 l 195 961 z "},"▼":{"ha":1375,"x_min":206,"x_max":1169,"o":"m 1169 941 l 688 -21 l 206 941 l 1169 941 z "},"◄":{"ha":1375,"x_min":195,"x_max":1179,"o":"m 1179 961 l 1179 -21 l 195 470 l 1179 961 z "},"○":{"ha":839,"x_min":121,"x_max":718,"o":"m 420 690 q 566 652 494 690 q 678 541 638 613 q 718 392 718 469 q 631 180 718 268 q 420 93 543 93 q 208 180 296 93 q 121 392 121 268 q 161 542 121 470 q 273 652 201 613 q 420 690 345 690 m 420 639 q 298 607 357 639 q 205 515 239 575 q 172 392 172 456 q 245 217 172 290 q 420 144 317 144 q 594 217 522 144 q 667 392 667 290 q 633 515 667 456 q 541 607 600 575 q 420 639 482 639 z "},"●":{"ha":839,"x_min":121,"x_max":718,"o":"m 718 392 q 630 181 718 269 q 420 93 543 93 q 208 180 296 93 q 121 392 121 268 q 209 603 121 515 q 420 690 296 690 q 630 603 543 690 q 718 392 718 515 z "},"◘":{"ha":839,"x_min":87,"x_max":751,"o":"m 87 0 l 87 665 l 751 665 l 751 0 l 87 0 m 419 469 q 322 429 362 469 q 282 332 282 389 q 322 236 282 276 q 419 195 363 195 q 516 236 476 195 q 556 332 556 276 q 516 429 556 389 q 419 469 476 469 z "},"◙":{"ha":839,"x_min":28,"x_max":812,"o":"m 28 0 l 28 783 l 812 783 l 812 0 l 28 0 m 420 690 q 273 652 345 690 q 161 541 201 613 q 121 391 121 469 q 209 180 121 268 q 420 93 296 93 q 631 180 544 93 q 719 391 719 268 q 679 541 719 469 q 567 652 639 613 q 420 690 496 690 m 420 639 q 542 607 482 639 q 634 516 601 575 q 667 391 667 456 q 595 217 667 289 q 420 144 523 144 q 245 217 317 144 q 173 391 173 289 q 206 516 173 456 q 299 607 239 575 q 420 639 358 639 z "},"◦":{"ha":493,"x_min":53,"x_max":440,"o":"m 440 458 q 384 321 440 378 q 247 264 327 264 q 110 321 167 264 q 53 458 53 378 q 110 595 53 538 q 247 652 167 652 q 384 595 327 652 q 440 458 440 538 m 389 458 q 347 559 389 517 q 247 601 305 601 q 146 559 189 601 q 104 458 104 517 q 146 358 104 400 q 247 316 188 316 q 348 358 306 316 q 389 458 389 400 z "}}}
